<?xml version="1.0" encoding="utf-8"?>
<!-- Generator: Adobe Illustrator 16.0.3, SVG Export Plug-In . SVG Version: 6.00 Build 0)  -->
<!DOCTYPE svg PUBLIC "-//W3C//DTD SVG 1.1//EN" "http://www.w3.org/Graphics/SVG/1.1/DTD/svg11.dtd">
<svg version="1.1" id="Capa_1" xmlns="http://www.w3.org/2000/svg" xmlns:xlink="http://www.w3.org/1999/xlink" x="0px" y="0px"
	 width="2560px" height="674px" viewBox="0 0 2560 674" enable-background="new 0 0 2560 674" xml:space="preserve">
<path fill-rule="evenodd" clip-rule="evenodd" fill="#FFFFFF" d="M1815.497,227.306c8.108-20.163,15.849-39.375,23.563-58.597
	c20.342-50.69,40.701-101.374,60.937-152.106c1.129-2.828,2.422-3.79,5.502-3.777c32.083,0.129,64.166,0.128,96.249,0.003
	c3.188-0.013,4.193,0.837,3.921,3.98c-0.317,3.667,1.086,8.236-0.645,10.809c-1.644,2.447-6.568,0.829-10.033,1.273
	c-4.944,0.634-9.895,1.034-14.802,2.091c-6.247,1.345-9.286,5.294-10.403,11.182c-0.692,3.647-0.989,7.328-0.988,11.055
	c0.028,75.129,0.02,150.259,0.021,225.388c0,18.342,4.235,22.93,22.581,24.45c3.855,0.319,7.712,0.716,11.574,0.816
	c2.105,0.054,2.586,0.777,2.698,2.826c0.708,12.889,0.768,12.886-11.875,12.886c-38.532,0-77.064-0.058-115.596,0.087
	c-3.949,0.015-5.527-0.505-5.348-5.057c0.418-10.546,0.123-10.607,10.778-11.278c5.161-0.325,10.229-1.11,15.285-2.173
	c5.587-1.175,8.585-4.716,9.739-10.051c0.715-3.308,1.131-6.655,1.13-10.066c-0.022-74.323-0.017-148.646-0.021-222.969
	c0-0.766-0.065-1.531-0.108-2.505c-2.318,0.398-2.182,2.393-2.676,3.654c-30.431,77.626-60.802,155.276-91.178,232.924
	c-2.282,5.835-4.624,11.647-6.812,17.517c-0.772,2.071-1.831,3.033-4.201,2.927c-4.505-0.202-9.054-0.367-13.531,0.036
	c-3.87,0.348-5.567-1.084-6.956-4.624c-16.144-41.123-32.449-82.182-48.725-123.252c-16.511-41.669-33.026-83.335-49.588-124.984
	c-0.56-1.407-0.689-3.124-2.288-4.215c-1.246,0.98-0.745,2.35-0.743,3.487c0.199,63.359-0.579,126.721,0.497,190.076
	c0.2,11.759,0.831,23.526,2.692,35.162c1.82,11.368,7.801,16.665,19.488,17.736c6.578,0.603,13.151,1.271,19.737,1.773
	c1.954,0.149,3.053,0.694,2.712,2.844c-0.049,0.315-0.012,0.644-0.004,0.966c0.247,11.985,0.247,11.985-11.755,11.985
	c-29.987,0-59.975-0.054-89.962,0.078c-3.295,0.015-4.333-0.672-4.284-4.158c0.156-11.239-0.04-11.701,11.302-12.538
	c17.927-1.323,21.378-10.477,22.766-26.506c1.779-20.571,1.938-41.216,1.949-61.853c0.029-53.687,0.017-107.374,0.009-161.061
	c-0.002-19.237-3.479-22.941-22.712-24.322c-2.894-0.208-5.836-0.903-8.666-0.578c-4.963,0.57-5.674-1.599-5.522-5.959
	c0.339-9.776,0.105-9.785,9.695-9.785c31.115,0,62.231,0.075,93.347-0.1c3.643-0.02,5.267,1.036,6.614,4.405
	c27.341,68.303,54.81,136.555,82.262,204.813C1813.718,223.499,1814.425,224.928,1815.497,227.306z"/>
<path fill-rule="evenodd" clip-rule="evenodd" fill="#FFFFFF" d="M1278.747,142.355c0.001-29.504,0.007-59.008-0.001-88.512
	c-0.005-19.498-3.458-23.181-23.026-24.635c-1.286-0.096-2.59-0.133-3.848-0.382c-3.254-0.645-8.394,1.201-9.446-1.294
	c-1.563-3.705-0.439-8.536-0.496-12.887c-0.016-1.201,0.489-1.756,1.687-1.732c0.966,0.019,1.934-0.007,2.901-0.007
	c41.757,0,83.515,0.068,125.271-0.105c4.153-0.018,5.331,1.153,4.857,5.081c-0.4,3.318,0.863,7.491-0.739,9.822
	c-1.545,2.247-6.002,0.644-9.155,1.127c-4.77,0.732-9.593,1.12-14.361,1.867c-6.889,1.079-10.667,5.235-11.865,12.1
	c-0.671,3.852-0.725,7.693-0.725,11.553c-0.018,52.236,0.069,104.474-0.057,156.71c-0.04,16.147-1.776,32.138-6.043,47.798
	c-8.263,30.333-28.457,49.491-57.686,58.419c-43.532,13.298-87.457,12.806-130.655-1.813c-30.821-10.43-47.976-33.167-54.081-64.778
	c-2.551-13.208-3.3-26.527-3.311-39.914c-0.041-52.236-0.009-104.474-0.029-156.71c-0.002-4.669-0.118-9.327-1.292-13.916
	c-1.233-4.813-3.958-7.794-8.918-9.022c-7.416-1.836-14.963-2.266-22.52-2.548c-2.869-0.107-4.201-0.462-4.19-3.915
	c0.035-11.757-0.13-11.758,11.683-11.758c39.5,0,79,0.066,118.499-0.1c4.012-0.017,5.449,0.904,4.943,4.974
	c-0.413,3.321,0.969,7.594-0.66,9.836c-1.739,2.395-6.29,0.809-9.594,1.223c-5.267,0.661-10.549,1.008-15.757,2.25
	c-5.545,1.321-8.512,4.729-9.777,10.063c-0.788,3.321-1.071,6.673-1.069,10.066c0.03,56.589-0.129,113.18,0.203,169.768
	c0.102,17.446,2.679,34.693,9.621,50.939c10.569,24.738,33.678,38.258,60.446,35.57c28.265-2.839,45.387-17.571,53.704-45.709
	c4.726-15.988,5.288-32.384,5.434-48.813C1278.901,189.434,1278.745,165.894,1278.747,142.355z"/>
<path fill-rule="evenodd" clip-rule="evenodd" fill="#FFFFFF" d="M175.917,12.905c41.749,0,83.497,0.042,125.245-0.076
	c3.57-0.01,4.844,0.605,4.807,4.585c-0.219,23.532-0.183,47.067-0.026,70.6c0.023,3.462-0.604,4.639-4.381,4.558
	c-11.022-0.238-11.106-0.02-13.787-10.701c-2.237-8.91-5.275-17.497-9.018-25.895c-6.086-13.654-16.89-20.455-31.21-22.822
	c-12.812-2.119-25.7-1.575-38.579-1.733c-1.997-0.024-3.093,0.429-2.856,2.649c0.102,0.956,0.016,1.932,0.016,2.899
	c0,79.307-0.007,158.612,0.019,237.918c0.001,4.498-0.189,9.004,0.858,13.47c1.884,8.036,5.446,11.839,13.555,12.877
	c8.939,1.145,17.941,1.862,26.934,2.502c2.705,0.192,3.362,1.06,3.39,3.702c0.13,12.149,0.222,12.148-11.648,12.148
	c-44.649,0-89.3-0.069-133.949,0.111c-4.298,0.017-5.369-1.033-5.243-5.274c0.321-10.794,0.104-10.688,11.038-11.344
	c6.748-0.405,13.504-0.979,20.195-1.912c8.487-1.184,12.161-5.126,13.063-13.548c0.445-4.158,0.736-8.354,0.738-12.533
	c0.042-79.467-0.003-158.935,0.127-238.401c0.006-4.155-0.804-5.487-5.224-5.35c-13.504,0.418-27.035-0.358-40.395,2.734
	c-11.743,2.718-20.291,9.102-25.813,19.857C68.15,64.88,64.39,76.455,61.649,88.382c-0.674,2.937-1.58,4.216-4.94,4.182
	c-11.424-0.114-11.425,0.05-11.425-11.504c0-21.277,0.108-42.556-0.102-63.831c-0.037-3.729,1.017-4.417,4.523-4.407
	C91.775,12.95,133.846,12.905,175.917,12.905z"/>
<path fill-rule="evenodd" clip-rule="evenodd" fill="#FFFFFF" d="M1280.528,407.704c410.138,0,820.277,0.002,1230.416-0.034
	c3.233-0.001,6.196-0.38,5.403,4.468c-0.259,1.587-0.577,2.343-2.26,2.2c-1.12-0.095-2.255-0.016-3.384-0.016
	c-820.277,0.001-1640.554,0.002-2460.832-0.093c-1.745,0-4.747,1.981-5.338-1.872c-0.491-3.195,0.064-5.435,4.133-4.684
	c1.092,0.201,2.252,0.03,3.38,0.03C461.541,407.704,871.034,407.704,1280.528,407.704z"/>
<path fill-rule="evenodd" clip-rule="evenodd" fill="#FFFFFF" d="M1280.377,655.945c409.977,0,819.953-0.002,1229.93,0.033
	c2.664,0,6.556-1.537,5.929,3.943c-0.224,1.948-0.904,2.512-2.656,2.421c-1.287-0.067-2.579-0.011-3.868-0.011
	c-819.793,0-1639.585,0-2459.378-0.002c-1.451,0-2.911,0.091-4.35-0.044c-2.623-0.246-1.471-2.386-1.713-3.767
	c-0.239-1.359-0.103-2.625,1.824-2.573c1.45,0.04,2.901-0.001,4.353-0.001C460.423,655.945,870.4,655.945,1280.377,655.945z"/>
<path fill-rule="evenodd" clip-rule="evenodd" fill="#FFFFFF" d="M900.69,515.407c-5.417,11.947-10.843,23.891-16.246,35.844
	c-2.713,6.003-5.317,12.056-8.113,18.02c-0.804,1.715-0.95,4.105-4.021,3.986c-2.778-0.108-2.834-2.226-3.572-3.831
	c-7.706-16.794-15.349-33.615-23.054-50.408c-0.626-1.364-0.783-3.094-2.73-4.076c-0.135,16.463-0.221,32.667,0.687,48.868
	c0.154,2.753,1.448,4.088,4.024,4.534c1.901,0.329,3.788,0.746,5.677,1.143c1.587,0.333,1.935,1.419,1.818,2.884
	c-0.109,1.371-1.012,1.512-2.019,1.413c-9.017-0.876-18.03-0.718-27.043,0.027c-1.099,0.091-1.85-0.17-1.947-1.474
	c-0.108-1.447,0.182-2.522,1.803-2.888c2.931-0.661,6.584-0.161,8.406-2.914c2.215-3.348,1.313-7.512,1.371-11.328
	c0.228-14.99,0.393-29.982,0.391-44.974c-0.001-6.411-0.765-7.009-7.109-7.879c-1.275-0.176-2.533-0.469-3.806-0.66
	c-1.49-0.226-1.604-1.233-1.616-2.469c-0.016-1.755,1.153-1.66,2.284-1.587c8.696,0.567,17.397,0.84,26.083-0.044
	c2.652-0.271,2.71,1.752,3.31,3.243c6.357,15.812,13.638,31.207,20.967,46.58c0.32,0.671,0.319,1.626,1.786,1.96
	c6.721-14.381,13.71-28.745,19.681-43.577c3.348-8.316,3.264-8.426,12-7.808c5.818,0.411,11.596-0.119,17.393-0.303
	c1.065-0.034,2.7-0.886,2.95,1.307c0.202,1.771-0.539,2.496-2.222,3.027c-9.591,3.032-9.645,3.079-9.688,13.196
	c-0.065,15.154,0.154,30.313-0.122,45.462c-0.096,5.264,1.917,7.803,6.986,8.26c1.12,0.101,2.232,0.315,3.339,0.529
	c1.69,0.325,1.78,1.578,1.687,2.958c-0.119,1.774-1.423,1.439-2.483,1.367c-11.759-0.804-23.516-0.739-35.277-0.012
	c-1.15,0.072-2.674,0.591-2.864-1.513c-0.169-1.87,0.767-2.641,2.41-2.923c1.269-0.218,2.528-0.536,3.806-0.648
	c4.385-0.385,5.984-2.849,5.957-7.098c-0.1-15.301-0.039-30.602-0.039-45.902C901.252,515.604,900.971,515.506,900.69,515.407z"/>
<path fill-rule="evenodd" clip-rule="evenodd" fill="#FFFFFF" d="M222.964,497.624c5.795,0.004,11.59-0.022,17.385,0.028
	c1.111,0.009,2.674-0.739,2.895,1.407c0.184,1.793-0.573,2.618-2.25,3.05c-2.895,0.747-6.576,0.128-8.422,2.825
	c-2.073,3.028-1.139,6.897-1.157,10.4c-0.075,15.142-0.04,30.284,0.014,45.428c0.022,6.358,0.65,7.034,6.884,8.251
	c1.104,0.216,2.218,0.385,3.325,0.592c1.425,0.268,1.605,1.272,1.606,2.518c0.002,1.636-0.959,1.783-2.212,1.696
	c-11.909-0.828-23.819-0.834-35.729-0.018c-1.104,0.076-2.34,0.266-2.53-1.405c-0.164-1.449,0.196-2.552,1.773-2.936
	c0.156-0.037,0.317-0.063,0.47-0.113c9.807-3.171,9.808-3.171,9.854-13.435c0.023-5.154-0.047-10.312,0.104-15.463
	c0.062-2.103-0.656-2.851-2.722-2.835c-8.213,0.062-16.427,0.092-24.64-0.013c-2.587-0.033-2.754,1.312-2.717,3.332
	c0.127,6.926,0.285,13.856,0.123,20.778c-0.102,4.337,1.634,6.679,5.939,7.129c0.96,0.101,1.92,0.238,2.866,0.427
	c1.553,0.309,3.313,0.336,3.199,2.718c-0.134,2.805-2.188,1.774-3.554,1.757c-8.211-0.104-16.42-0.375-24.631-0.445
	c-3.215-0.028-6.433,0.321-9.648,0.493c-1.313,0.069-2.609,0.258-2.633-1.773c-0.02-1.593,0.709-2.215,2.125-2.693
	c9.74-3.281,9.766-3.309,9.785-13.612c0.026-14.659,0.059-29.319-0.034-43.978c-0.048-7.622-0.459-7.962-7.89-9.403
	c-0.945-0.184-1.891-0.396-2.808-0.684c-1.48-0.466-1.161-1.739-1.114-2.818c0.064-1.455,1.222-1.25,2.126-1.196
	c11.913,0.718,23.824,0.682,35.738,0.007c1.037-0.059,2.356-0.425,2.519,1.336c0.131,1.43-0.13,2.565-1.778,2.877
	c-0.315,0.06-0.617,0.211-0.933,0.245c-11.071,1.195-9.163,3.471-9.352,12.387c-0.092,4.348,0.111,8.704-0.067,13.046
	c-0.099,2.414,0.486,3.424,3.12,3.387c7.728-0.106,15.459-0.034,23.188,0.104c2.743,0.049,4.017-0.582,3.834-3.759
	c-0.325-5.621-0.38-11.284-0.095-16.906c0.259-5.103-2.065-7.416-6.852-7.913c-1.275-0.132-2.531-0.45-3.792-0.698
	c-1.465-0.287-1.528-1.37-1.525-2.575c0.004-1.775,1.243-1.545,2.346-1.546C211.052,497.617,217.009,497.621,222.964,497.624z"/>
<path fill-rule="evenodd" clip-rule="evenodd" fill="#FFFFFF" d="M1464.546,534.315c5.315-0.001,10.631-0.04,15.944,0.03
	c1.102,0.014,2.713-0.796,3.021,1.305c0.262,1.788-0.57,2.445-2.227,2.993c-8.914,2.952-8.919,3.008-8.911,12.355
	c0.005,5.479,0.063,10.958,0.167,16.435c0.029,1.56-0.022,2.687-1.999,3.103c-14.664,3.093-29.317,6.396-44.454,4.2
	c-18.003-2.613-29.088-15.364-29.905-34.142c-1.191-27.413,17.389-45.188,46.819-44.674c8.224,0.145,16.353,1.296,24.441,2.812
	c2.934,0.55,3.784,1.767,3.65,4.792c-0.228,5.136,0.282,10.302,0.295,15.456c0.004,1.28,1.274,3.466-1.57,3.632
	c-2.117,0.124-3.903,0.274-4.558-2.729c-1.648-7.568-5.003-14.065-13.349-16.101c-14.479-3.532-31.193-0.438-35.877,20.154
	c-2.157,9.489-2.155,18.906,1.36,28.022c6.23,16.157,23.268,19.065,36.756,14.155c1.82-0.662,1.736-2.041,1.725-3.517
	c-0.041-5.318-0.173-10.638-0.047-15.951c0.106-4.413-1.646-6.991-6.184-7.458c-1.109-0.114-2.187-0.517-3.286-0.745
	c-1.467-0.304-1.533-1.354-1.535-2.564c-0.004-1.776,1.229-1.557,2.333-1.559C1452.953,534.313,1458.75,534.317,1464.546,534.315z"
	/>
<path fill-rule="evenodd" clip-rule="evenodd" fill="#FFFFFF" d="M1721.112,546.056c-0.256-13.679,0.245-26.343-0.821-38.998
	c-0.239-2.836-1.99-3.867-4.316-4.412c-1.72-0.402-3.485-0.617-5.23-0.908c-1.438-0.24-1.641-1.208-1.639-2.471
	c0.003-1.691,1.048-1.725,2.242-1.625c8.857,0.735,17.713,0.593,26.57-0.008c1.177-0.079,2.264-0.066,2.247,1.645
	c-0.014,1.26-0.216,2.239-1.658,2.475c-0.157,0.026-0.313,0.074-0.466,0.127c-9.085,3.157-9.239,3.152-9.644,12.939
	c-0.759,18.372-0.521,36.747,0.199,55.117c0.084,2.166,0.616,4.186-2.552,5.327c-3.086,1.111-3.657-0.953-4.859-2.435
	c-15.238-18.759-30.446-37.539-45.668-56.311c-0.797-0.981-1.639-1.926-2.479-2.909c-1.566,1.146-0.833,2.527-0.822,3.654
	c0.128,14.509,0.578,29.019,0.4,43.522c-0.065,5.341,1.92,7.749,6.954,8.22c1.115,0.104,2.217,0.385,3.319,0.612
	c1.498,0.309,1.416,1.46,1.428,2.621c0.015,1.742-1.146,1.661-2.3,1.547c-8.855-0.882-17.709-0.652-26.562,0.027
	c-1.266,0.097-2.214-0.061-2.182-1.701c0.023-1.21,0.098-2.27,1.546-2.572c0.314-0.066,0.627-0.146,0.938-0.23
	c8.47-2.291,8.645-2.286,8.862-10.855c0.39-15.31,0.654-30.623,0.753-45.938c0.053-8.087-0.543-8.548-8.377-10.14
	c-1.1-0.223-2.212-0.457-3.26-0.844c-1.167-0.43-0.922-1.538-0.939-2.484c-0.028-1.436,1.007-1.485,1.977-1.397
	c8.375,0.764,16.749,0.594,25.116-0.058c2.548-0.199,3.174,1.945,4.307,3.331c11.62,14.224,23.166,28.507,34.74,42.769
	C1719.401,544.266,1719.937,544.783,1721.112,546.056z"/>
<path fill-rule="evenodd" clip-rule="evenodd" fill="#FFFFFF" d="M2492.662,545.847c0-12.81-0.033-24.704,0.017-36.599
	c0.019-4.578-2.183-6.791-6.704-6.942c-1.11-0.038-2.209-0.419-3.319-0.613c-1.617-0.282-1.326-1.523-1.368-2.624
	c-0.053-1.401,0.853-1.523,1.894-1.438c9.017,0.738,18.033,0.604,27.052,0.01c0.9-0.06,2.002-0.202,2.045,1.29
	c0.039,1.343,0.105,2.822-1.722,2.81c-10.11-0.064-9.927,6.757-10.133,14.108c-0.504,18.06-0.206,36.1,0.28,54.146
	c0.059,2.161,0.598,4.19-2.595,5.293c-3.119,1.076-3.676-1.08-4.85-2.53c-15.912-19.651-31.778-39.338-47.628-58.981
	c-1.963,0.903-1.188,2.388-1.182,3.502c0.07,14.507,0.415,29.016,0.242,43.518c-0.063,5.275,1.953,7.771,7.005,8.205
	c0.961,0.083,1.909,0.299,2.862,0.46c1.654,0.281,1.871,1.407,1.813,2.847c-0.07,1.769-1.248,1.587-2.365,1.476
	c-8.693-0.868-17.382-0.649-26.075,0.001c-1.249,0.094-2.609,0.417-2.621-1.7c-0.01-1.57,0.511-2.378,2.048-2.676
	c2.814-0.544,6.406-0.095,8.09-2.475c2.06-2.914,1.308-6.849,1.383-10.367c0.318-14.663,0.664-29.329,0.773-43.995
	c0.059-7.944-0.703-8.605-8.433-10.188c-1.098-0.225-2.206-0.469-3.249-0.864c-1.179-0.448-0.851-1.579-0.871-2.503
	c-0.03-1.407,0.951-1.467,1.963-1.37c8.373,0.796,16.745,0.579,25.111-0.057c2.343-0.178,2.895,1.754,3.932,3.031
	C2468.131,515.48,2480.156,530.379,2492.662,545.847z"/>
<path fill-rule="evenodd" clip-rule="evenodd" fill="#FFFFFF" d="M707.33,529.857c0-6.123,0.045-12.246-0.011-18.37
	c-0.07-7.574-0.195-7.677-7.485-9.137c-0.945-0.189-1.875-0.453-2.815-0.665c-1.628-0.367-1.151-1.674-1.219-2.726
	c-0.099-1.53,1.06-1.388,1.969-1.337c12.079,0.656,24.154,0.673,36.232,0c0.949-0.054,2.022-0.062,1.969,1.405
	c-0.034,0.94,0.227,2.017-0.931,2.492c-0.739,0.302-1.528,0.503-2.311,0.677c-8.919,1.991-8.947,1.988-8.945,11.27
	c0.002,10.957-0.187,21.921,0.147,32.868c0.502,16.467,14.876,24.645,29.729,17.122c6.002-3.04,8.101-8.553,8.613-14.709
	c1.124-13.518,0.322-27.051-0.055-40.578c-0.091-3.293-1.766-4.971-4.919-5.455c-1.428-0.22-2.835-0.577-4.247-0.895
	c-1.432-0.321-1.489-1.396-1.501-2.601c-0.018-1.728,1.108-1.665,2.262-1.594c8.692,0.544,17.381,0.769,26.076,0.028
	c0.886-0.074,2.067-0.327,2.149,1.136c0.059,1.074,0.386,2.315-1.04,2.882c-0.299,0.118-0.598,0.245-0.906,0.333
	c-2.87,0.819-6.544,0.236-8.251,3.202c-1.72,2.985-0.903,6.617-1.009,9.955c-0.312,9.824-0.396,19.654-0.583,29.482
	c-0.392,20.607-9.607,30.101-30.126,30.706c-6.6,0.194-13.167-0.351-19.397-3.031c-9.795-4.217-13.001-12.343-13.248-22.16
	c-0.169-6.763-0.032-13.534-0.032-20.302C707.405,529.857,707.368,529.857,707.33,529.857z"/>
<path fill-rule="evenodd" clip-rule="evenodd" fill="#FFFFFF" d="M355.606,553.123c-1.945,6.214-3.976,12.432-5.805,18.708
	c-0.528,1.813-1.492,2.096-3.123,2.039c-19.488-0.677-38.978-1.097-58.469-0.06c-1.151,0.062-2.63,0.563-2.721-1.602
	c-0.078-1.832,0.721-2.467,2.365-2.938c9.511-2.722,9.533-2.761,9.549-12.819c0.023-15.147,0.062-30.295-0.043-45.441
	c-0.047-6.909-0.759-7.56-7.497-8.695c-0.318-0.053-0.65-0.05-0.955-0.142c-1.564-0.466-3.696-0.138-3.414-2.932
	c0.293-2.896,2.419-1.589,3.639-1.54c13.207,0.52,26.413,0.733,39.626,0.396c5.959-0.153,11.925-0.2,17.874-0.545
	c2.745-0.159,3.634,0.714,3.633,3.446c-0.001,4.5-0.069,9.026,0.785,13.494c0.187,0.975,0.782,2.464-1.087,2.506
	c-1.172,0.026-2.626,0.686-3.456-0.836c-0.23-0.423-0.475-0.873-0.55-1.337c-1.525-9.405-7.618-11.552-16.104-10.554
	c-3.974,0.468-8.052,0.182-12.076,0.04c-2.293-0.081-3.461,0.3-3.454,3.048c0.019,6.764-0.247,13.532-0.541,20.293
	c-0.098,2.253,0.535,3.287,2.931,3.143c2.084-0.126,4.19,0.137,6.279,0.049c9.263-0.391,10.262,0.057,12.173-8.735
	c0.435-1.999,1.62-2.5,3.482-2.272c2.124,0.259,1.41,1.782,1.348,2.922c-0.402,7.411-0.38,14.817,0.001,22.228
	c0.068,1.318,0.82,2.982-1.65,3.131c-1.753,0.105-2.468-0.486-3.02-2.189c-2.894-8.939-2.954-8.92-12.455-9.042
	c-9.034-0.116-9.034-0.116-9.034,9.066c0,5.479,0.207,10.969-0.075,16.433c-0.18,3.481,0.611,5.009,4.439,4.654
	c3.835-0.355,7.8-0.555,11.582,0.016c9.438,1.424,15.419-2.769,19.288-10.887C350.39,553.4,352.049,551.589,355.606,553.123z"/>
<path fill-rule="evenodd" clip-rule="evenodd" fill="#FFFFFF" d="M1909.56,505.178c-8.557,0-17.021-0.027-25.483,0.014
	c-2.829,0.014-4.315,1.942-5.283,4.265c-1.048,2.514-2.087,5.061-2.773,7.686c-0.548,2.099-1.981,1.696-3.362,1.753
	c-2.271,0.093-1.554-1.577-1.481-2.697c0.344-5.3,0.821-10.592,1.139-15.893c0.117-1.955,0.736-2.836,2.892-2.737
	c17.866,0.825,35.739,0.744,53.604-0.021c2.766-0.118,2.728,1.293,2.665,3.234c-0.063,1.963-1.39,3.202-2.372,4.632
	c-12.472,18.164-24.973,36.309-37.438,54.475c-1.425,2.075-2.69,4.258-4.29,6.804c10.055,0,19.473,0.029,28.89-0.014
	c3.813-0.019,6.278-2.232,7.907-5.434c1.16-2.28,2.26-4.62,3.081-7.037c0.751-2.211,2.265-2.542,4.139-2.195
	c2.676,0.497,0.912,2.256,0.737,3.379c-0.495,3.174-1.261,6.305-1.834,9.466c-1.64,9.059-1.626,9.167-10.954,8.847
	c-15.618-0.536-31.229-0.637-46.847,0.032c-1.971,0.084-4.742,1.197-5.822-0.667c-1.436-2.479,0.629-4.794,2.096-6.942
	c12.869-18.863,25.712-37.743,38.53-56.642C1908.163,508.209,1909.394,507.082,1909.56,505.178z"/>
<path fill-rule="evenodd" clip-rule="evenodd" fill="#FFFFFF" d="M509.766,535.702c0,8.705,0.176,17.415-0.073,26.113
	c-0.128,4.473,1.783,6.529,5.99,7c1.437,0.16,2.856,0.48,4.281,0.738c1.438,0.26,1.562,1.272,1.61,2.512
	c0.064,1.64-0.822,1.835-2.102,1.784c-12.081-0.484-24.161-1.033-36.244-0.032c-1.172,0.097-2.278,0.091-2.234-1.626
	c0.03-1.179-0.003-2.287,1.471-2.609c0.313-0.068,0.623-0.162,0.932-0.25c9.524-2.71,9.644-2.71,9.717-12.634
	c0.119-16.121,0.008-32.244,0.136-48.365c0.022-2.808-0.533-4.39-3.691-3.851c-0.47,0.08-0.965,0.011-1.449,0.011
	c-11.637-0.018-11.658-0.003-15.11,11.057c-0.335,1.074-0.621,2.168-1.03,3.214c-0.719,1.84-2.369,1.37-3.741,1.303
	c-2.124-0.104-1.386-1.646-1.291-2.858c0.428-5.462,1.053-10.923,1.167-16.393c0.061-2.903,1.184-3.336,3.71-3.269
	c19.821,0.522,39.647,0.731,59.468,0.021c2.427-0.087,3.361,0.447,3.44,3.09c0.166,5.469,0.807,10.92,1.147,16.386
	c0.066,1.062,1.108,2.784-1.058,3.01c-1.704,0.179-3.61,0.535-4.354-1.858c-0.809-2.606-1.911-5.132-2.59-7.769
	c-1.051-4.082-3.653-5.557-7.708-5.797c-10.612-0.627-10.605-0.738-10.605,9.792c0,7.094,0,14.188,0,21.281
	C509.626,535.702,509.696,535.702,509.766,535.702z"/>
<path fill-rule="evenodd" clip-rule="evenodd" fill="#FFFFFF" d="M78.223,497.622c9.819,0,19.641,0.132,29.456-0.081
	c2.978-0.064,3.8,0.678,3.806,3.681c0.009,5.138,0.669,10.271,0.915,15.414c0.057,1.19,1.275,3.063-1.166,3.435
	c-2.073,0.316-3.713-0.021-4.321-2.548c-0.599-2.488-1.685-4.854-2.392-7.322c-1.08-3.769-3.504-5.287-7.393-5.554
	c-10.887-0.745-10.885-0.861-10.877,9.852c0.011,14.977-0.001,29.953,0.063,44.93c0.035,8.194,0.108,8.207,7.965,9.691
	c0.79,0.148,1.588,0.261,2.367,0.449c1.413,0.341,1.478,1.422,1.487,2.625c0.013,1.685-1.058,1.696-2.249,1.648
	c-11.906-0.481-23.812-1.026-35.72-0.029c-1.154,0.097-2.299,0.149-2.417-1.525c-0.104-1.472,0.271-2.541,1.874-2.848
	c0.158-0.03,0.316-0.065,0.471-0.111c9.656-2.895,9.695-2.895,9.72-13.043c0.039-15.943-0.061-31.887,0.095-47.828
	c0.03-3.09-0.691-4.551-3.941-3.972c-0.313,0.056-0.643,0.008-0.965,0.007c-11.841-0.02-11.973,0.077-15.449,11.3
	c-0.285,0.919-0.651,1.818-0.865,2.754c-0.486,2.122-2.168,1.497-3.504,1.536c-2.146,0.062-1.581-1.535-1.509-2.729
	c0.35-5.781,0.886-11.555,1.043-17.339c0.079-2.894,1.841-2.422,3.561-2.422c9.982-0.003,19.964-0.002,29.947-0.002
	C78.223,497.601,78.223,497.611,78.223,497.622z"/>
<path fill-rule="evenodd" clip-rule="evenodd" fill="#FFFFFF" d="M2133.902,497.623c9.819,0,19.642,0.143,29.455-0.086
	c3.036-0.069,3.748,0.764,3.77,3.708c0.039,5.301,0.662,10.595,0.982,15.895c0.067,1.127,0.898,2.811-1.248,2.913
	c-1.482,0.07-3.24,0.643-3.909-1.664c-0.804-2.772-1.968-5.439-2.78-8.209c-1.105-3.771-3.537-5.271-7.414-5.535
	c-10.871-0.74-10.869-0.854-10.862,9.865c0.012,14.976-0.003,29.951,0.063,44.927c0.036,8.179,0.122,8.205,7.977,9.684
	c0.789,0.149,1.588,0.258,2.367,0.45c1.409,0.347,1.472,1.43,1.478,2.633c0.008,1.688-1.074,1.686-2.258,1.638
	c-11.905-0.485-23.812-1.021-35.719-0.03c-1.146,0.095-2.289,0.146-2.387-1.525c-0.071-1.227,0.093-2.254,1.425-2.699
	c0.305-0.102,0.623-0.163,0.93-0.256c9.624-2.927,9.661-2.927,9.685-13.073c0.037-15.942-0.065-31.886,0.096-47.826
	c0.032-3.131-0.765-4.506-3.97-3.945c-0.313,0.055-0.644,0.008-0.965,0.007c-11.817-0.018-11.94,0.074-15.428,11.33
	c-0.285,0.919-0.646,1.819-0.869,2.753c-0.505,2.117-2.195,1.471-3.525,1.503c-2.168,0.051-1.539-1.588-1.471-2.757
	c0.342-5.78,0.877-11.554,1.04-17.338c0.083-2.923,1.899-2.386,3.594-2.388c9.981-0.009,19.964-0.004,29.946-0.004
	C2133.904,497.602,2133.904,497.612,2133.902,497.623z"/>
<path fill-rule="evenodd" clip-rule="evenodd" fill="#FFFFFF" d="M1802.285,573.797c-5.635,0.002-11.27,0.027-16.904-0.017
	c-1.289-0.01-3.025,0.728-3.128-1.74c-0.084-1.994,1.122-2.616,2.646-2.709c8.646-0.525,9.52-0.952,9.487-12.398
	c-0.041-15.147-0.021-30.295-0.103-45.442c-0.04-7.171-0.612-7.748-7.703-9.113c-0.945-0.182-1.887-0.394-2.825-0.608
	c-1.442-0.327-1.474-1.412-1.489-2.61c-0.021-1.8,1.239-1.569,2.314-1.536c4.026,0.121,8.052,0.438,12.076,0.42
	c7.569-0.037,15.137-0.304,22.706-0.353c1.285-0.008,3.358-1.193,3.456,1.776c0.085,2.6-1.84,2.155-3.231,2.534
	c-0.925,0.253-1.907,0.304-2.866,0.418c-3.954,0.471-5.888,2.39-5.851,6.669c0.152,17.564,0.179,35.13,0.02,52.692
	c-0.037,4.179,1.533,6.338,5.567,6.906c1.432,0.202,2.845,0.539,4.273,0.768c1.533,0.246,2.099,1.057,2.072,2.644
	c-0.035,2.106-1.4,1.702-2.65,1.702C1814.197,573.793,1808.24,573.797,1802.285,573.797z"/>
<path fill-rule="evenodd" clip-rule="evenodd" fill="#FFFFFF" d="M2232.976,497.618c5.791,0.001,11.583-0.018,17.374,0.016
	c1.162,0.007,2.65-0.523,2.71,1.63c0.046,1.626-0.644,2.095-2.113,2.54c-10.016,3.03-10.05,3.075-10.075,13.739
	c-0.034,14.65-0.041,29.301,0.046,43.951c0.046,7.824,0.469,8.204,8.175,9.667c0.789,0.149,1.573,0.325,2.363,0.473
	c1.441,0.27,1.583,1.276,1.588,2.514c0.007,1.677-1.05,1.753-2.241,1.663c-12.064-0.902-24.127-0.708-36.19,0.006
	c-0.918,0.054-2.072,0.24-2.069-1.234c0.002-1.056-0.44-2.338,1.036-2.873c0.453-0.164,0.928-0.269,1.393-0.394
	c9.336-2.512,9.363-2.512,9.366-12.313c0.003-15.294-0.011-30.588-0.063-45.882c-0.023-6.896-0.504-7.4-7.444-8.727
	c-0.789-0.151-1.58-0.292-2.373-0.421c-1.553-0.252-1.997-1.157-1.987-2.696c0.011-2.174,1.472-1.647,2.648-1.651
	C2221.07,497.605,2227.023,497.617,2232.976,497.618z"/>
<path fill-rule="evenodd" clip-rule="evenodd" fill="#FFFFFF" d="M725.358,166.07c6.076,2.076,11.667,3.612,16.957,5.859
	c23.642,10.041,35.449,29.134,40.455,53.394c2.826,13.695,3.313,27.825,7.745,41.218c2.596,7.844,6.129,15.187,11.238,21.732
	c6.274,8.039,14.053,13.685,24.374,15.107c2.934,0.404,3.865,1.548,3.846,4.601c-0.07,11.605,0.056,11.76-11.341,11.568
	c-15.116-0.255-30.279,1.07-45.321-1.776c-23.987-4.537-38.947-18.306-44.682-42.219c-4.767-19.874-8.079-40.041-12.591-59.961
	c-0.998-4.402-2.281-8.712-4.084-12.845c-7.267-16.658-20.215-24.876-38.19-25.329c-7.893-0.199-15.798,0.081-23.692-0.096
	c-2.793-0.063-3.863,0.412-3.85,3.599c0.14,33.688,0.077,67.375,0.144,101.063c0.005,2.552,0.484,5.118,0.906,7.651
	c1.062,6.386,4.644,10.201,11.14,11.665c7.125,1.605,14.341,2.075,21.563,2.533c2.506,0.159,3.131,0.892,3.187,3.373
	c0.281,12.382,0.365,12.38-11.919,12.38c-39.168,0-78.335-0.054-117.503,0.083c-3.91,0.015-5.563-0.44-5.379-5.042
	c0.425-10.582,0.124-10.625,10.792-11.31c4.671-0.3,9.25-1.102,13.857-1.896c7.159-1.233,10.487-5.711,11.424-12.42
	c0.467-3.341,0.824-6.73,0.826-10.098c0.046-75.273,0.045-150.545,0.029-225.818c-0.004-18.364-3.974-22.555-22.327-23.832
	c-2.411-0.167-4.814-0.457-7.226-0.611c-7.235-0.465-7.236-0.45-7.236-7.982c0-7.755,0-7.755,7.75-7.755
	c45.938,0,91.875-0.024,137.813,0.012c18.583,0.015,36.954,1.698,54.942,6.782c36.724,10.377,51.966,42.293,50.6,72.232
	c-1.595,34.954-21.7,59.189-57.658,69.896C736.728,163.381,731.392,164.538,725.358,166.07z M646.252,155.056
	c-0.017,2.772,0.418,3.97,3.618,3.875c11.59-0.345,23.19,0.226,34.78-0.931c24.671-2.462,42.213-16.493,47.656-39.14
	c4.175-17.37,3.758-34.862-0.945-52.099c-4.506-16.518-15.281-27.42-31.625-32.218c-13.16-3.863-26.746-4.058-40.238-1.808
	c-9.604,1.602-13.133,6.136-13.175,15.942c-0.073,17.407-0.02,34.814-0.018,52.222C646.308,118.952,646.361,137.004,646.252,155.056
	z"/>
<path fill-rule="evenodd" clip-rule="evenodd" fill="#FFFFFF" d="M2331.583,12.905c20.311,0,40.62-0.113,60.93,0.03
	c24.003,0.169,47.379,3.688,69.863,12.657c26.688,10.645,40.823,30.727,45.067,58.451c3.08,20.125,2.349,40.051-7.233,58.446
	c-12.981,24.921-34.453,39.222-61.133,46.469c-25.301,6.873-51.14,7.964-77.144,7.582c-8.112-0.119-8.114-0.019-8.114,7.91
	c0,24.179,0,48.357,0.002,72.536c0,1.612-0.024,3.225,0.038,4.835c0.53,13.542,4.876,18.504,18.264,20.196
	c7.186,0.908,14.431,1.43,21.665,1.804c2.911,0.15,4.146,0.646,4.137,4.012c-0.033,11.754,0.123,11.755-11.683,11.755
	c-41.908,0-83.817-0.04-125.726,0.076c-3.394,0.009-4.671-0.487-4.584-4.333c0.254-11.296,0.046-11.328,11.492-12.054
	c4.675-0.296,9.25-1.115,13.842-2.005c6.226-1.208,9.369-5.108,10.571-11.014c0.744-3.647,1.008-7.322,1.008-11.046
	c-0.023-75.436-0.011-150.872-0.023-226.308c-0.004-18.232-3.905-22.393-21.959-23.628c-1.768-0.121-3.563-0.154-5.292-0.493
	c-3.107-0.609-8.144,1.188-8.995-1.145c-1.455-3.985-0.683-8.874-0.424-13.359c0.145-2.53,2.545-1.309,3.864-1.313
	C2283.872,12.884,2307.729,12.905,2331.583,12.905z M2353.845,161.352c0.048,10.445,4.293,14.96,14.653,15.997
	c5.623,0.563,11.253,0.494,16.895,0.193c24.792-1.322,42.27-13.365,51.777-36.213c9.813-23.581,9.311-47.771,1.947-71.83
	c-6.221-20.322-20.664-31.921-41.182-36.378c-9.725-2.112-19.495-1.812-29.32-0.936c-10.885,0.97-14.781,5.064-14.789,16.063
	c-0.015,18.529-0.004,37.057-0.005,55.586C2353.819,123.006,2353.757,142.18,2353.845,161.352z"/>
<path fill-rule="evenodd" clip-rule="evenodd" fill="#FFFFFF" d="M602.691,497.601c7.723,0.679,15.451-0.495,23.16,0.484
	c9.784,1.242,14.966,5.631,16.824,13.922c1.874,8.36-1.625,17.948-8.966,22.257c-3.717,2.181-4.06,3.691-1.73,7.143
	c4.224,6.254,8.065,12.773,11.873,19.295c2.901,4.97,7.041,7.764,12.727,8.443c1.814,0.218,4.262,0.009,3.933,2.984
	c-0.336,3.039-2.752,1.593-4.163,1.489c-7.247-0.537-14.496-0.761-21.704,0.146c-3.168,0.398-4.456-0.857-5.706-3.556
	c-4.39-9.465-9.103-18.778-13.622-28.185c-0.914-1.9-1.984-2.906-4.315-3.017c-2.686-0.127-3.647,0.425-3.533,3.311
	c0.256,6.434,0.362,12.891,0.111,19.321c-0.174,4.468,1.675,6.582,5.958,7.007c1.433,0.144,2.843,0.526,4.261,0.813
	c1.687,0.343,1.771,1.586,1.683,2.961c-0.113,1.773-1.404,1.407-2.472,1.382c-7.403-0.177-14.805-0.473-22.209-0.523
	c-4.181-0.028-8.363,0.36-12.547,0.518c-1.201,0.045-2.65,0.492-2.669-1.649c-0.013-1.506,0.38-2.411,1.951-2.767
	c3.074-0.693,6.899-0.186,8.823-3.06c2.14-3.196,0.977-7.223,1.001-10.864c0.101-14.977-0.17-29.958,0.052-44.932
	c0.075-5.036-1.821-7.546-6.706-8.022c-0.958-0.094-1.901-0.335-2.856-0.47c-1.738-0.243-2.4-1.152-2.268-2.952
	c0.163-2.224,1.748-1.442,2.828-1.451C589.171,497.572,595.932,497.601,602.691,497.601z M607.559,518.538
	c0,3.542,0.228,7.104-0.068,10.622c-0.264,3.135,1.031,4.035,3.834,3.715c1.279-0.146,2.57-0.193,3.846-0.361
	c7.875-1.043,11.473-6.298,10.876-15.85c-0.484-7.752-5.085-12.018-12.591-12.427c-4.746-0.26-6.781,1.089-6.001,6.1
	c0.416,2.673,0.074,5.463,0.074,8.201C607.539,518.538,607.549,518.538,607.559,518.538z"/>
<path fill-rule="evenodd" clip-rule="evenodd" fill="#FFFFFF" d="M1299.469,497.625c7.41,0.596,14.826-0.469,22.222,0.416
	c9.772,1.171,15.319,5.723,17.137,13.707c1.881,8.259-1.659,18.113-8.883,22.416c-3.847,2.292-4.147,3.925-1.7,7.488
	c4.09,5.959,7.793,12.203,11.359,18.496c3.023,5.332,7.291,8.406,13.393,9.035c1.682,0.174,3.768,0.096,3.518,2.835
	c-0.287,3.144-2.623,1.705-4.007,1.602c-7.415-0.557-14.826-0.708-22.21,0.158c-2.711,0.317-3.867-0.616-4.998-3.042
	c-4.476-9.611-9.422-19.006-13.817-28.651c-1.558-3.417-4.163-3.353-6.708-2.931c-2.535,0.419-1.216,2.948-1.233,4.468
	c-0.067,6.123,0.28,12.252,0.173,18.372c-0.073,4.197,1.734,6.25,5.829,6.636c1.591,0.149,3.153,0.614,4.724,0.958
	c1.461,0.32,1.44,1.438,1.462,2.619c0.031,1.729-1.106,1.685-2.262,1.608c-11.757-0.778-23.515-0.832-35.274-0.014
	c-1.111,0.078-2.311,0.255-2.462-1.439c-0.129-1.452,0.195-2.557,1.784-2.927c0.157-0.035,0.316-0.064,0.469-0.114
	c9.58-3.098,9.629-3.098,9.65-13.278c0.029-14.67,0.049-29.342-0.067-44.012c-0.063-7.937-0.273-7.999-8.162-9.724
	c-1.606-0.351-3.791-0.115-3.69-2.811c0.119-3.168,2.52-1.787,3.939-1.815C1286.256,497.556,1292.863,497.625,1299.469,497.625z
	 M1303.491,518.626c0,3.688-0.002,7.379,0.002,11.067c0.001,1.43-0.285,3.064,1.938,3.083c5.18,0.042,10.619,0.255,13.99-4.555
	c3.792-5.411,3.709-11.507,1.189-17.417c-2.164-5.077-6.633-6.305-11.811-6.566c-4.484-0.226-5.94,1.401-5.417,5.733
	c0.344,2.846,0.065,5.767,0.065,8.654C1303.463,518.626,1303.477,518.626,1303.491,518.626z"/>
<path fill-rule="evenodd" clip-rule="evenodd" fill="#FFFFFF" d="M1190.775,575.404c-23.918,0.522-38.903-12.461-40.332-33.801
	c-1.668-24.922,12.037-42.704,34.617-45.185c7.312-0.803,14.535-0.667,21.479,1.66c14.733,4.936,22.021,15.716,23.693,30.885
	c2.407,21.831-10.509,41.222-30.672,45.478C1196.274,575.135,1192.854,575.188,1190.775,575.404z M1207.64,513.134
	c-3.204-7.089-8.737-10.93-16.596-11.104c-7.723-0.172-14.217,2.676-17.39,9.831c-7.157,16.14-6.74,32.519,0.842,48.41
	c3.493,7.32,10.252,9.714,18.144,9.229c7.962-0.488,13.033-4.689,15.885-11.961c2.634-6.715,3.085-13.747,3.227-20.837
	C1211.53,528.646,1211.021,520.614,1207.64,513.134z"/>
<path fill-rule="evenodd" clip-rule="evenodd" fill="#FFFFFF" d="M2336.869,575.412c-23.775-0.557-36.875-13.417-37.799-37.109
	c-0.887-22.729,13.243-39.489,35.133-41.926c5.672-0.632,11.279-0.547,16.81,0.58c15.112,3.078,25.015,13.171,27.479,28.567
	c1.717,10.727,0.259,21.163-5.192,30.799C2365.966,569.283,2353.515,575.802,2336.869,575.412z M2356.863,514.275
	c-2.996-7.609-8.506-11.927-16.802-12.229c-8.362-0.306-15.051,3.036-18.205,10.848c-6.229,15.428-5.995,31.077,0.781,46.319
	c3.461,7.782,10.149,10.735,18.496,10.313c8.419-0.426,13.658-4.964,16.407-12.643c2.3-6.426,3.021-13.123,3.006-19.917
	C2360.491,529.214,2359.73,521.563,2356.863,514.275z"/>
<path fill-rule="evenodd" clip-rule="evenodd" fill="#FFFFFF" d="M995.953,498.098c7.401,0,14.806-0.154,22.201,0.043
	c7.546,0.2,14.071,2.67,17.019,10.32c3.099,8.044,2.271,15.913-2.993,22.85c-6.555,8.637-15.946,10.504-25.958,9.216
	c-4.571-0.589-5.882,0.241-5.492,4.852c0.433,5.119,0.398,10.313,0.096,15.445c-0.311,5.27,2.092,7.456,7.031,8.281
	c2.376,0.396,7.135-1.372,6.519,3.148c-0.492,3.61-4.623,1.367-6.93,1.282c-10.471-0.384-20.92-0.448-31.383,0.166
	c-1.25,0.073-3.372,1.371-3.762-1.41c-0.359-2.568,1.399-2.755,3.22-3.139c8.454-1.783,8.549-1.811,8.607-10.553
	c0.106-15.941-0.083-31.886,0.199-47.821c0.093-5.246-1.965-7.767-6.984-8.289c-1.114-0.116-2.201-0.479-3.313-0.635
	c-1.785-0.249-1.768-1.486-1.738-2.846c0.041-1.865,1.395-1.386,2.415-1.389c7.082-0.024,14.163-0.013,21.245-0.013
	C995.953,497.771,995.953,497.935,995.953,498.098z M1000.738,531.016c-0.073,2.267,0.791,2.969,3.027,3.189
	c11.559,1.147,18.276-7.347,15.527-19.813c-1.473-6.676-5.31-9.891-12.08-10.12c-6.436-0.218-6.436-0.218-6.439,6.046
	c-0.001,2.888,0,5.776,0,8.665C1000.774,522.993,1000.867,527.008,1000.738,531.016z"/>
<path fill-rule="evenodd" clip-rule="evenodd" fill="#FFFFFF" d="M2043.371,573.045c-5.755,0.262-11.061,0.554-16.371,0.706
	c-1.203,0.034-3.033,0.969-3.2-1.564c-0.122-1.842,0.737-2.464,2.373-2.934c7.122-2.051,7.106-2.101,4.254-8.999
	c-3.97-9.594-3.97-9.602-14.594-9.676c-2.898-0.02-5.808-0.128-8.691,0.088c-2.473,0.184-5.935-1.365-7.242,0.854
	c-2.661,4.513-5.026,9.447-5.696,14.7c-0.326,2.566,2.904,2.399,4.828,2.899c1.654,0.43,3.755,0.215,3.486,2.917
	c-0.316,3.201-2.684,1.617-4.052,1.513c-6.444-0.487-12.864-0.483-19.297,0.124c-1.278,0.12-3.051,0.878-3.239-1.562
	c-0.142-1.832,0.769-2.69,2.447-2.918c4.868-0.658,6.805-4.39,8.638-8.221c9.628-20.13,18.654-40.531,27.538-60.998
	c0.744-1.715,0.788-4.182,3.853-4.184c3.055-0.001,3.026,2.379,3.819,4.14c9.02,20.054,18.028,40.112,26.996,60.188
	c2.049,4.586,4.547,8.545,10.172,9.103c1.805,0.178,2.359,1.301,2.229,3.031c-0.194,2.556-2.066,1.495-3.247,1.462
	C2053.226,573.57,2048.083,573.269,2043.371,573.045z M2013.466,519.203c-2.115,4.812-3.856,8.723-5.556,12.651
	c-1.733,4.004-3.427,8.026-5.409,12.683c5.135,0,9.447,0,13.76,0c2.376,0,4.751,0,7.839,0
	C2020.479,535.912,2017.156,527.994,2013.466,519.203z"/>
<path fill-rule="evenodd" clip-rule="evenodd" fill="#FFFFFF" d="M1593.32,573.047c-5.956,0.27-11.263,0.536-16.572,0.729
	c-1.146,0.042-2.666,0.649-2.824-1.49c-0.131-1.773,0.588-2.515,2.273-3.022c7.154-2.152,7.138-2.21,4.34-8.972
	c-3.987-9.633-3.987-9.647-14.57-9.711c-4.186-0.025-8.375,0.127-12.557,0.014c-2.34-0.063-3.86,0.396-4.645,2.966
	c-1.026,3.363-2.407,6.645-3.907,9.834c-1.529,3.25-0.406,4.83,2.816,5.493c1.257,0.258,2.528,0.469,3.761,0.817
	c1.484,0.421,1.226,1.706,1.165,2.799c-0.078,1.383-1.149,1.358-2.111,1.259c-7.395-0.775-14.784-0.774-22.179-0.002
	c-1.177,0.124-2.258,0.106-2.333-1.578c-0.068-1.498,0.383-2.648,1.928-2.837c5.515-0.67,7.484-4.869,9.549-9.16
	c9.534-19.819,18.366-39.953,27.143-60.112c0.743-1.705,0.753-4.208,3.8-4.272c3.33-0.071,3.224,2.611,4.066,4.483
	c9.033,20.044,18.029,40.105,27.004,60.176c1.987,4.444,4.49,8.194,9.905,8.74c1.69,0.171,2.491,1.087,2.394,2.926
	c-0.135,2.535-1.939,1.646-3.164,1.607C1603.293,573.563,1597.988,573.267,1593.32,573.047z M1563.52,519.121
	c-3.859,8.954-7.264,16.853-10.84,25.15c7.451,0,14.123,0,21.399,0C1570.574,535.924,1567.256,528.021,1563.52,519.121z"/>
</svg>
