<?xml version="1.0" encoding="utf-8"?>
<!-- Generator: Adobe Illustrator 16.0.3, SVG Export Plug-In . SVG Version: 6.00 Build 0)  -->
<!DOCTYPE svg PUBLIC "-//W3C//DTD SVG 1.1//EN" "http://www.w3.org/Graphics/SVG/1.1/DTD/svg11.dtd">
<svg version="1.1" id="Capa_1" xmlns="http://www.w3.org/2000/svg" xmlns:xlink="http://www.w3.org/1999/xlink" x="0px" y="0px"
	 width="2016px" height="2016px" viewBox="0 0 2016 2016" enable-background="new 0 0 2016 2016" xml:space="preserve">
<g>
	
		<linearGradient id="SVGID_1_" gradientUnits="userSpaceOnUse" x1="824.9111" y1="906.292" x2="2183.8164" y2="906.292" gradientTransform="matrix(0.7071 -0.7071 0.7071 0.7071 -713.9464 1489.4268)">
		<stop  offset="0" style="stop-color:#6F00FF"/>
		<stop  offset="1" style="stop-color:#FF00B9"/>
	</linearGradient>
	<path fill="url(#SVGID_1_)" d="M1471.089,586.08c265.341,265.343,265.345,695.548,0.002,960.891
		c-265.344,265.346-695.551,265.339-960.893,0c-265.339-265.343-265.342-695.545,0-960.891
		C775.544,320.739,1205.747,320.739,1471.089,586.08z"/>
	
		<radialGradient id="SVGID_2_" cx="1961.499" cy="875.6855" r="345.2969" gradientTransform="matrix(0.7071 -0.7071 0.7071 0.7071 -713.9464 1489.4268)" gradientUnits="userSpaceOnUse">
		<stop  offset="0" style="stop-color:#FFFFFF;stop-opacity:0.8"/>
		<stop  offset="1" style="stop-color:#FFFFFF;stop-opacity:0"/>
	</radialGradient>
	<path fill="url(#SVGID_2_)" d="M1536.407,477.479c134.848,134.846,134.846,353.479,0,488.324
		c-134.843,134.845-353.477,134.845-488.323,0c-134.846-134.847-134.844-353.48,0-488.324
		C1182.929,342.632,1401.563,342.632,1536.407,477.479z"/>
	
		<linearGradient id="SVGID_3_" gradientUnits="userSpaceOnUse" x1="1369.9238" y1="222.229" x2="618.0234" y2="656.339" gradientTransform="matrix(0.8149 -0.5796 0.5796 0.8149 -800.2252 1244.0978)">
		<stop  offset="0" style="stop-color:#FFFFFF;stop-opacity:0"/>
		<stop  offset="1" style="stop-color:#000000;stop-opacity:0.7"/>
	</linearGradient>
	<path fill="url(#SVGID_3_)" d="M365.124,822.369c-0.36-15.575,6.621-31.814,13.888-47.871l-37.361,65.873
		C350.117,835.452,358.258,828.938,365.124,822.369z"/>
	
		<linearGradient id="SVGID_4_" gradientUnits="userSpaceOnUse" x1="1705.6035" y1="803.6362" x2="953.6964" y2="1237.7501" gradientTransform="matrix(0.8149 -0.5796 0.5796 0.8149 -800.2252 1244.0978)">
		<stop  offset="0" style="stop-color:#FFFFFF;stop-opacity:0"/>
		<stop  offset="1" style="stop-color:#000000;stop-opacity:0.7"/>
	</linearGradient>
	<path fill="url(#SVGID_4_)" d="M1506.276,1189.664c-112.425-17.251-219.347-26.042-318.154-79.992
		c-95.164-51.952-181.833-110.965-258.492-184.241c-79.658-76.138-175.005-118.153-271.114-175.242
		c-73.33-43.557-123.4-93.594-215.653-107.278c1.72,5.439,5.819,8.319,7.492,13.902c-20.085,15.891-42.269,30.618-62.336,46.529
		c12.229,17.669,5.66,37.964-3.524,58.945c-0.877,1.66-1.589,3.282-2.16,4.875c-1.096,2.437-2.209,4.886-3.323,7.337l2.313-4.077
		c-3.625,14.314,2.721,26.774-4.815,45.332c-8.835,21.758-32.109,34.053-40.818,58.733c-16.088,45.601,5.489,110.261-33.034,152.445
		c21.749,37.927,16.594,98.84,23.371,140.036c7.111,43.208,23.391,84.945,39.542,129.79c29.592,82.141,79.784,175.974,144.326,243.1
		c23.43,24.366,55.633,59.42,91.039,91.793c4.639-1.762,9.625,1.325,11.35,5.609c6.674-3.873,14.827,3.387,12.895,10.236
		c16.742,9.914,32.337,22.025,50.337,29.491c16.014,6.647,34.626,10.001,47.763,22.043c0.999,0.914,1.699,1.9,2.153,2.904
		c0.118-0.132,0.228-0.265,0.357-0.395c4.481-4.485,10.319-2.624,13.27,1.297c5.188-0.988,10.404,3.578,10.665,8.701
		c13.609-3.051,28.292-8.807,43.208-7.171c28.02,3.08,44.473,19.199,70.549,25.492c38.197,9.217,93.452,13.069,134.021,10.947
		c99.511-5.196,275.883-34.613,335.859-103.469c26.791-30.751,42.191-53.664,76.821-75.887
		c24.711-15.854,62.439-21.57,86.501-47.607c35.698-38.633,64.968-86.328,103.29-127.528
		c-6.263-40.955,37.685-91.768,32.154-126.359C1622.909,1202.271,1549.244,1196.263,1506.276,1189.664z"/>
</g>
<linearGradient id="SVGID_5_" gradientUnits="userSpaceOnUse" x1="1315.1563" y1="554.6875" x2="1764.3682" y2="554.6875" gradientTransform="matrix(0.7071 -0.7071 0.7071 0.7071 65.5849 1265.2539)">
	<stop  offset="0" style="stop-color:#6F00FF"/>
	<stop  offset="1" style="stop-color:#FF00B9"/>
</linearGradient>
<circle fill="url(#SVGID_5_)" cx="1546.584" cy="568.7" r="224.606"/>
<radialGradient id="SVGID_6_" cx="1690.877" cy="544.5693" r="114.1445" gradientTransform="matrix(0.7071 -0.7071 0.7071 0.7071 65.5849 1265.2539)" gradientUnits="userSpaceOnUse">
	<stop  offset="0" style="stop-color:#FFFFFF;stop-opacity:0.8"/>
	<stop  offset="1" style="stop-color:#FFFFFF;stop-opacity:0"/>
</radialGradient>
<circle fill="url(#SVGID_6_)" cx="1646.284" cy="454.692" r="114.145"/>
<linearGradient id="SVGID_7_" gradientUnits="userSpaceOnUse" x1="1475.1152" y1="318.8472" x2="1226.5621" y2="462.3494" gradientTransform="matrix(0.8149 -0.5796 0.5796 0.8149 -20.694 1019.9249)">
	<stop  offset="0" style="stop-color:#FFFFFF;stop-opacity:0"/>
	<stop  offset="1" style="stop-color:#000000;stop-opacity:0.7"/>
</linearGradient>
<path fill="url(#SVGID_7_)" d="M1339.806,487.99c-0.118-5.149,2.189-10.517,4.592-15.825l-12.351,21.775
	C1334.846,492.314,1337.537,490.161,1339.806,487.99z"/>
<linearGradient id="SVGID_8_" gradientUnits="userSpaceOnUse" x1="1586.0801" y1="511.0415" x2="1337.5225" y2="654.5463" gradientTransform="matrix(0.8149 -0.5796 0.5796 0.8149 -20.694 1019.9249)">
	<stop  offset="0" style="stop-color:#FFFFFF;stop-opacity:0"/>
	<stop  offset="1" style="stop-color:#000000;stop-opacity:0.7"/>
</linearGradient>
<path fill="url(#SVGID_8_)" d="M1717.035,609.407c-37.164-5.703-72.509-8.609-105.172-26.443
	c-31.457-17.175-60.108-36.683-85.449-60.905c-26.332-25.169-57.852-39.057-89.622-57.929c-24.24-14.398-40.792-30.94-71.288-35.463
	c0.568,1.796,1.925,2.75,2.479,4.595c-6.641,5.253-13.975,10.121-20.608,15.381c4.044,5.84,1.872,12.549-1.163,19.485
	c-0.291,0.549-0.526,1.084-0.715,1.611c-0.363,0.807-0.73,1.616-1.099,2.426l0.765-1.348c-1.198,4.731,0.899,8.851-1.592,14.985
	c-2.922,7.192-10.615,11.257-13.494,19.415c-5.318,15.075,1.815,36.45-10.92,50.394c7.19,12.537,5.486,32.674,7.727,46.292
	c2.351,14.283,7.731,28.081,13.072,42.905c9.781,27.153,26.372,58.172,47.709,80.36c7.744,8.056,18.391,19.643,30.095,30.344
	c1.533-0.582,3.182,0.439,3.751,1.855c2.207-1.281,4.901,1.12,4.263,3.384c5.534,3.276,10.69,7.28,16.641,9.749
	c5.294,2.197,11.446,3.305,15.788,7.287c0.331,0.303,0.563,0.628,0.712,0.96c0.039-0.043,0.075-0.088,0.118-0.13
	c1.482-1.483,3.412-0.867,4.387,0.429c1.716-0.326,3.44,1.182,3.526,2.876c4.499-1.009,9.353-2.913,14.283-2.371
	c9.262,1.018,14.7,6.347,23.32,8.426c12.628,3.047,30.894,4.32,44.305,3.62c32.894-1.719,91.197-11.442,111.024-34.202
	c8.855-10.168,13.946-17.742,25.395-25.087c8.169-5.241,20.64-7.129,28.594-15.737c11.802-12.771,21.477-28.539,34.145-42.157
	c-2.07-13.54,12.459-30.336,10.63-41.771C1755.59,613.573,1731.24,611.587,1717.035,609.407z"/>
<g>
	<path fill="none" stroke="#000000" stroke-miterlimit="10" d="M632.18,400.578c3.074,3.074,6.046,6.248,8.967,9.466"/>
	
		<linearGradient id="SVGID_9_" gradientUnits="userSpaceOnUse" x1="598.563" y1="492.8525" x2="878.4028" y2="492.8525" gradientTransform="matrix(0.7071 -0.7071 0.7071 0.7071 -131.3253 667.126)">
		<stop  offset="0" style="stop-color:#1F00AA"/>
		<stop  offset="0.5026" style="stop-color:#A900BF"/>
		<stop  offset="1" style="stop-color:#FF157D"/>
	</linearGradient>
	<circle fill="url(#SVGID_9_)" cx="739.359" cy="493.439" r="139.92"/>
	
		<radialGradient id="SVGID_10_" cx="809.5898" cy="486.5488" r="71.1072" gradientTransform="matrix(0.7071 -0.7071 0.7071 0.7071 -131.3253 667.126)" gradientUnits="userSpaceOnUse">
		<stop  offset="0" style="stop-color:#FFFFFF;stop-opacity:0.8"/>
		<stop  offset="1" style="stop-color:#FFFFFF;stop-opacity:0"/>
	</radialGradient>
	<circle fill="url(#SVGID_10_)" cx="785.182" cy="438.701" r="71.107"/>
</g>
<g>
	
		<linearGradient id="SVGID_11_" gradientUnits="userSpaceOnUse" x1="1605.6914" y1="1103.293" x2="1831.875" y2="1103.293" gradientTransform="matrix(0.7071 -0.7071 0.7071 0.7071 -273.2911 1545.5664)">
		<stop  offset="0" style="stop-color:#6F00FF"/>
		<stop  offset="1" style="stop-color:#FF00B9"/>
	</linearGradient>
	<circle fill="url(#SVGID_11_)" cx="1722.218" cy="1110.349" r="113.092"/>
	
		<radialGradient id="SVGID_12_" cx="1794.8711" cy="1098.1992" r="57.4731" gradientTransform="matrix(0.7071 -0.7071 0.7071 0.7071 -273.2911 1545.5664)" gradientUnits="userSpaceOnUse">
		<stop  offset="0" style="stop-color:#FFFFFF;stop-opacity:0.8"/>
		<stop  offset="1" style="stop-color:#FFFFFF;stop-opacity:0"/>
	</radialGradient>
	<circle fill="url(#SVGID_12_)" cx="1772.418" cy="1052.944" r="57.473"/>
	
		<linearGradient id="SVGID_13_" gradientUnits="userSpaceOnUse" x1="1774.5029" y1="940.1494" x2="1649.348" y2="1012.4077" gradientTransform="matrix(0.8149 -0.5796 0.5796 0.8149 -359.5699 1300.2374)">
		<stop  offset="0" style="stop-color:#FFFFFF;stop-opacity:0"/>
		<stop  offset="1" style="stop-color:#000000;stop-opacity:0.7"/>
	</linearGradient>
	<path fill="url(#SVGID_13_)" d="M1618.103,1069.711c-0.06-2.593,1.103-5.296,2.313-7.969l-6.219,10.965
		C1615.606,1071.888,1616.961,1070.804,1618.103,1069.711z"/>
	
		<linearGradient id="SVGID_14_" gradientUnits="userSpaceOnUse" x1="1830.374" y1="1036.9219" x2="1705.2231" y2="1109.1777" gradientTransform="matrix(0.8149 -0.5796 0.5796 0.8149 -359.5699 1300.2374)">
		<stop  offset="0" style="stop-color:#FFFFFF;stop-opacity:0"/>
		<stop  offset="1" style="stop-color:#000000;stop-opacity:0.7"/>
	</linearGradient>
	<path fill="url(#SVGID_14_)" d="M1808.043,1130.845c-18.713-2.871-36.51-4.334-52.956-13.313
		c-15.838-8.648-30.265-18.471-43.024-30.666c-13.259-12.673-29.129-19.666-45.127-29.169
		c-12.204-7.249-20.538-15.579-35.894-17.855c0.286,0.903,0.97,1.385,1.249,2.313c-3.344,2.645-7.037,5.096-10.377,7.744
		c2.036,2.941,0.942,6.319-0.586,9.811c-0.146,0.276-0.265,0.547-0.359,0.812c-0.184,0.406-0.369,0.813-0.554,1.222l0.384-0.678
		c-0.603,2.382,0.454,4.456-0.801,7.545c-1.471,3.621-5.345,5.668-6.793,9.775c-2.678,7.59,0.914,18.353-5.499,25.373
		c3.62,6.313,2.763,16.452,3.89,23.309c1.184,7.193,3.894,14.14,6.583,21.604c4.925,13.672,13.277,29.29,24.021,40.462
		c3.899,4.057,9.26,9.891,15.153,15.279c0.771-0.293,1.602,0.222,1.889,0.935c1.111-0.646,2.468,0.563,2.146,1.704
		c2.786,1.648,5.382,3.664,8.379,4.908c2.666,1.105,5.763,1.664,7.948,3.669c0.167,0.151,0.283,0.315,0.359,0.482
		c0.02-0.021,0.037-0.044,0.059-0.065c0.747-0.747,1.718-0.437,2.209,0.217c0.864-0.165,1.733,0.595,1.775,1.448
		c2.266-0.508,4.709-1.467,7.192-1.195c4.663,0.515,7.402,3.196,11.742,4.244c6.358,1.533,15.556,2.175,22.309,1.821
		c16.563-0.865,45.918-5.761,55.901-17.22c4.459-5.12,7.022-8.934,12.786-12.633c4.113-2.638,10.392-3.59,14.397-7.924
		c5.943-6.431,10.814-14.369,17.192-21.226c-1.043-6.818,6.273-15.275,5.352-21.032
		C1827.455,1132.943,1815.195,1131.942,1808.043,1130.845z"/>
</g>
<linearGradient id="SVGID_15_" gradientUnits="userSpaceOnUse" x1="1532.8369" y1="1377.0596" x2="1284.2838" y2="1520.5618" gradientTransform="matrix(0.8149 -0.5796 0.5796 0.8149 -800.2252 1244.0978)">
	<stop  offset="0" style="stop-color:#FFFFFF;stop-opacity:0"/>
	<stop  offset="1" style="stop-color:#000000;stop-opacity:0.7"/>
</linearGradient>
<path fill="url(#SVGID_15_)" d="M1220.642,1541.053c-0.119-5.148,2.188-10.517,4.591-15.824l-12.351,21.775
	C1215.681,1545.378,1218.372,1543.225,1220.642,1541.053z"/>
<g>
	
		<linearGradient id="SVGID_16_" gradientUnits="userSpaceOnUse" x1="1195.9922" y1="1607.751" x2="1645.2041" y2="1607.751" gradientTransform="matrix(0.7071 -0.7071 0.7071 0.7071 -713.9464 1489.4268)">
		<stop  offset="0" style="stop-color:#6F00FF"/>
		<stop  offset="1" style="stop-color:#FF00B9"/>
	</linearGradient>
	<circle fill="url(#SVGID_16_)" cx="1427.419" cy="1621.764" r="224.606"/>
	
		<radialGradient id="SVGID_17_" cx="1545.543" cy="1611.5703" r="114.145" gradientTransform="matrix(0.7071 -0.7071 0.7071 0.7071 -713.9464 1489.4268)" gradientUnits="userSpaceOnUse">
		<stop  offset="0" style="stop-color:#FFFFFF;stop-opacity:0.8"/>
		<stop  offset="1" style="stop-color:#FFFFFF;stop-opacity:0"/>
	</radialGradient>
	<circle fill="url(#SVGID_17_)" cx="1518.469" cy="1536.116" r="114.145"/>
	
		<linearGradient id="SVGID_18_" gradientUnits="userSpaceOnUse" x1="1643.8027" y1="1569.2539" x2="1395.2451" y2="1712.7587" gradientTransform="matrix(0.8149 -0.5796 0.5796 0.8149 -800.2252 1244.0978)">
		<stop  offset="0" style="stop-color:#FFFFFF;stop-opacity:0"/>
		<stop  offset="1" style="stop-color:#000000;stop-opacity:0.7"/>
	</linearGradient>
	<path fill="url(#SVGID_18_)" d="M1597.871,1662.47c-37.164-5.703-72.509-8.609-105.172-26.443
		c-31.458-17.174-60.108-36.682-85.449-60.904c-26.332-25.169-57.852-39.058-89.622-57.93
		c-24.24-14.398-40.792-30.939-71.288-35.463c0.568,1.798,1.924,2.75,2.477,4.596c-6.64,5.253-13.973,10.121-20.606,15.381
		c4.043,5.841,1.871,12.55-1.165,19.485c-0.29,0.549-0.525,1.085-0.714,1.611c-0.362,0.806-0.73,1.615-1.099,2.426l0.765-1.348
		c-1.198,4.731,0.899,8.851-1.592,14.985c-2.921,7.192-10.614,11.257-13.493,19.415c-5.318,15.074,1.814,36.449-10.92,50.394
		c7.189,12.538,5.485,32.674,7.726,46.292c2.351,14.283,7.732,28.08,13.071,42.904c9.782,27.153,26.374,58.172,47.71,80.361
		c7.745,8.055,18.391,19.643,30.095,30.344c1.533-0.582,3.182,0.438,3.752,1.854c2.206-1.28,4.901,1.119,4.263,3.384
		c5.534,3.277,10.689,7.281,16.64,9.749c5.294,2.197,11.446,3.306,15.789,7.286c0.33,0.303,0.562,0.629,0.712,0.961
		c0.039-0.044,0.075-0.088,0.118-0.131c1.481-1.482,3.411-0.867,4.387,0.429c1.715-0.326,3.439,1.183,3.525,2.877
		c4.499-1.009,9.353-2.912,14.283-2.371c9.263,1.019,14.701,6.347,23.321,8.427c12.627,3.047,30.893,4.32,44.304,3.619
		c32.895-1.718,91.198-11.442,111.024-34.203c8.856-10.166,13.947-17.74,25.395-25.086c8.169-5.241,20.641-7.131,28.595-15.738
		c11.801-12.771,21.477-28.537,34.145-42.156c-2.07-13.539,12.457-30.336,10.629-41.771
		C1636.427,1666.637,1612.075,1664.65,1597.871,1662.47z"/>
</g>
<g>
	<path fill="none" stroke="#000000" stroke-miterlimit="10" d="M433.58,691.488c1.325,1.324,2.605,2.691,3.864,4.078"/>
	
		<linearGradient id="SVGID_19_" gradientUnits="userSpaceOnUse" x1="844.6616" y1="775.1543" x2="965.2339" y2="775.1543" gradientTransform="matrix(0.7071 -0.7071 0.7071 0.7071 -708.252 823.2759)">
		<stop  offset="0" style="stop-color:#1F00AA"/>
		<stop  offset="0.5026" style="stop-color:#A900BF"/>
		<stop  offset="1" style="stop-color:#FF157D"/>
	</linearGradient>
	<circle fill="url(#SVGID_19_)" cx="479.759" cy="731.498" r="60.286"/>
	
		<radialGradient id="SVGID_20_" cx="935.585" cy="772.439" r="30.6377" gradientTransform="matrix(0.7071 -0.7071 0.7071 0.7071 -708.252 823.2759)" gradientUnits="userSpaceOnUse">
		<stop  offset="0" style="stop-color:#FFFFFF;stop-opacity:0.8"/>
		<stop  offset="1" style="stop-color:#FFFFFF;stop-opacity:0"/>
	</radialGradient>
	<circle fill="url(#SVGID_20_)" cx="499.503" cy="707.914" r="30.638"/>
</g>
<g>
	<path fill="none" stroke="#000000" stroke-miterlimit="10" d="M1151.414,928.17c1.393,1.394,2.74,2.832,4.064,4.291"/>
	
		<linearGradient id="SVGID_21_" gradientUnits="userSpaceOnUse" x1="1181.9824" y1="1453.2656" x2="1308.8184" y2="1453.2656" gradientTransform="matrix(0.7071 -0.7071 0.7071 0.7071 -708.252 823.2759)">
		<stop  offset="0" style="stop-color:#1F00AA"/>
		<stop  offset="0.5026" style="stop-color:#A900BF"/>
		<stop  offset="1" style="stop-color:#FF157D"/>
	</linearGradient>
	<circle fill="url(#SVGID_21_)" cx="1199.992" cy="970.259" r="63.418"/>
	
		<radialGradient id="SVGID_22_" cx="1277.6289" cy="1450.4092" r="32.2285" gradientTransform="matrix(0.7071 -0.7071 0.7071 0.7071 -708.252 823.2759)" gradientUnits="userSpaceOnUse">
		<stop  offset="0" style="stop-color:#FFFFFF;stop-opacity:0.8"/>
		<stop  offset="1" style="stop-color:#FFFFFF;stop-opacity:0"/>
	</radialGradient>
	<circle fill="url(#SVGID_22_)" cx="1220.762" cy="945.45" r="32.229"/>
</g>
<g>
	
		<linearGradient id="SVGID_23_" gradientUnits="userSpaceOnUse" x1="1650.126" y1="562.3682" x2="2392.9883" y2="562.3682" gradientTransform="matrix(0.7071 -0.7071 0.7071 0.7071 -713.9464 1489.4268)">
		<stop  offset="0" style="stop-color:#6F00FF"/>
		<stop  offset="1" style="stop-color:#FF00B9"/>
	</linearGradient>
	<circle fill="url(#SVGID_23_)" cx="1113.164" cy="457.624" r="371.431"/>
	
		<radialGradient id="SVGID_24_" cx="2271.4551" cy="545.6377" r="188.7612" gradientTransform="matrix(0.7071 -0.7071 0.7071 0.7071 -713.9464 1489.4268)" gradientUnits="userSpaceOnUse">
		<stop  offset="0" style="stop-color:#FFFFFF;stop-opacity:0.8"/>
		<stop  offset="1" style="stop-color:#FFFFFF;stop-opacity:0"/>
	</radialGradient>
	<circle fill="url(#SVGID_24_)" cx="1278.039" cy="269.089" r="188.761"/>
	
		<linearGradient id="SVGID_25_" gradientUnits="userSpaceOnUse" x1="1909.8955" y1="101.2471" x2="1498.8651" y2="338.5556" gradientTransform="matrix(0.8149 -0.5796 0.5796 0.8149 -800.2252 1244.0978)">
		<stop  offset="0" style="stop-color:#FFFFFF;stop-opacity:0"/>
		<stop  offset="1" style="stop-color:#000000;stop-opacity:0.7"/>
	</linearGradient>
	<path fill="url(#SVGID_25_)" d="M771.216,324.153c-0.197-8.514,3.619-17.392,7.592-26.169l-20.424,36.01
		C763.012,331.305,767.463,327.744,771.216,324.153z"/>
	
		<linearGradient id="SVGID_26_" gradientUnits="userSpaceOnUse" x1="2093.4014" y1="419.0801" x2="1682.3613" y2="656.3942" gradientTransform="matrix(0.8149 -0.5796 0.5796 0.8149 -800.2252 1244.0978)">
		<stop  offset="0" style="stop-color:#FFFFFF;stop-opacity:0"/>
		<stop  offset="1" style="stop-color:#000000;stop-opacity:0.7"/>
	</linearGradient>
	<path fill="url(#SVGID_26_)" d="M1395.041,524.94c-61.458-9.431-119.908-14.237-173.923-43.729
		c-52.022-28.4-99.401-60.66-141.308-100.717c-43.546-41.622-95.669-64.59-148.208-95.798
		c-40.086-23.811-67.458-51.165-117.889-58.645c0.94,2.973,3.181,4.547,4.095,7.6c-10.98,8.687-23.106,16.737-34.077,25.436
		c6.686,9.659,3.094,20.753-1.927,32.223c-0.479,0.907-0.869,1.794-1.181,2.665c-0.599,1.332-1.208,2.671-1.817,4.011l1.265-2.229
		c-1.981,7.825,1.487,14.636-2.632,24.781c-4.83,11.894-17.553,18.616-22.313,32.107c-8.795,24.928,3,60.276-18.059,83.336
		c11.889,20.734,9.071,54.033,12.776,76.553c3.887,23.62,12.787,46.436,21.616,70.951c16.177,44.903,43.615,96.199,78.898,132.894
		c12.808,13.32,30.413,32.483,49.768,50.179c2.536-0.962,5.262,0.725,6.205,3.067c3.648-2.117,8.105,1.851,7.049,5.596
		c9.152,5.42,17.677,12.041,27.517,16.122c8.754,3.634,18.929,5.467,26.11,12.049c0.546,0.5,0.929,1.04,1.177,1.589
		c0.064-0.073,0.125-0.146,0.195-0.216c2.45-2.452,5.641-1.434,7.254,0.709c2.836-0.54,5.688,1.956,5.83,4.757
		c7.439-1.668,15.466-4.815,23.62-3.921c15.317,1.685,24.312,10.496,38.566,13.936c20.881,5.039,51.087,7.145,73.265,5.985
		c54.398-2.841,150.814-18.922,183.602-56.562c14.646-16.812,23.064-29.337,41.995-41.484c13.509-8.667,34.134-11.792,47.287-26.026
		c19.515-21.119,35.516-47.192,56.465-69.714c-3.424-22.39,20.601-50.167,17.577-69.076
		C1458.8,531.831,1418.53,528.546,1395.041,524.94z"/>
</g>
<linearGradient id="SVGID_27_" gradientUnits="userSpaceOnUse" x1="948.3701" y1="398.4023" x2="537.3324" y2="635.7151" gradientTransform="matrix(0.8149 -0.5796 0.5796 0.8149 -800.2252 1244.0978)">
	<stop  offset="0" style="stop-color:#FFFFFF;stop-opacity:0"/>
	<stop  offset="1" style="stop-color:#000000;stop-opacity:0.7"/>
</linearGradient>
<path fill="url(#SVGID_27_)" d="M159.887,1123.599c-0.197-8.515,3.619-17.393,7.592-26.17l-20.424,36.011
	C151.683,1130.751,156.134,1127.189,159.887,1123.599z"/>
<g>
	
		<linearGradient id="SVGID_28_" gradientUnits="userSpaceOnUse" x1="652.5576" y1="695.3867" x2="1395.4199" y2="695.3867" gradientTransform="matrix(0.7071 -0.7071 0.7071 0.7071 -713.9464 1489.4268)">
		<stop  offset="0" style="stop-color:#6F00FF"/>
		<stop  offset="1" style="stop-color:#FF00B9"/>
	</linearGradient>
	<circle fill="url(#SVGID_28_)" cx="501.835" cy="1257.07" r="371.431"/>
	
		<radialGradient id="SVGID_29_" cx="1273.8887" cy="678.6553" r="112.3437" gradientTransform="matrix(0.7071 -0.7071 0.7071 0.7071 -713.9464 1489.4268)" gradientUnits="userSpaceOnUse">
		<stop  offset="0" style="stop-color:#FFFFFF;stop-opacity:0.8"/>
		<stop  offset="1" style="stop-color:#FFFFFF;stop-opacity:0"/>
	</radialGradient>
	<circle fill="url(#SVGID_29_)" cx="666.709" cy="1068.533" r="112.344"/>
	
		<linearGradient id="SVGID_30_" gradientUnits="userSpaceOnUse" x1="1131.873" y1="716.2354" x2="720.8334" y2="953.5492" gradientTransform="matrix(0.8149 -0.5796 0.5796 0.8149 -800.2252 1244.0978)">
		<stop  offset="0" style="stop-color:#FFFFFF;stop-opacity:0"/>
		<stop  offset="1" style="stop-color:#000000;stop-opacity:0.7"/>
	</linearGradient>
	<path fill="url(#SVGID_30_)" d="M783.712,1324.385c-61.458-9.431-119.908-14.236-173.923-43.729
		c-52.022-28.4-99.401-60.66-141.308-100.718c-43.546-41.622-95.669-64.59-148.208-95.799
		c-40.086-23.811-67.458-51.164-117.889-58.645c0.94,2.973,3.181,4.547,4.095,7.6c-10.98,8.688-23.106,16.737-34.077,25.436
		c6.686,9.659,3.094,20.754-1.927,32.223c-0.479,0.908-0.869,1.795-1.181,2.665c-0.599,1.332-1.208,2.671-1.817,4.011l1.265-2.229
		c-1.981,7.825,1.487,14.637-2.632,24.781c-4.83,11.895-17.553,18.616-22.313,32.107c-8.795,24.929,3,60.276-18.059,83.336
		c11.889,20.733,9.071,54.032,12.776,76.553c3.887,23.62,12.787,46.437,21.616,70.951c16.177,44.903,43.615,96.198,78.898,132.894
		c12.808,13.32,30.413,32.482,49.768,50.18c2.536-0.963,5.262,0.725,6.205,3.066c3.648-2.117,8.105,1.852,7.049,5.596
		c9.152,5.42,17.677,12.041,27.517,16.122c8.754,3.634,18.929,5.467,26.11,12.05c0.546,0.5,0.929,1.039,1.177,1.588
		c0.064-0.072,0.125-0.145,0.195-0.216c2.45-2.452,5.641-1.435,7.254,0.709c2.836-0.54,5.688,1.956,5.83,4.757
		c7.439-1.668,15.466-4.814,23.62-3.92c15.317,1.684,24.312,10.495,38.566,13.936c20.881,5.038,51.087,7.145,73.265,5.984
		c54.398-2.841,150.814-18.922,183.602-56.563c14.646-16.811,23.064-29.336,41.995-41.484c13.509-8.667,34.134-11.792,47.287-26.025
		c19.515-21.119,35.516-47.192,56.465-69.715c-3.424-22.389,20.6-50.166,17.577-69.076
		C847.471,1331.276,807.201,1327.992,783.712,1324.385z"/>
</g>
<linearGradient id="SVGID_31_" gradientUnits="userSpaceOnUse" x1="802.6401" y1="885.3159" x2="517.6941" y2="1049.8296" gradientTransform="matrix(0.8149 -0.5796 0.5796 0.8149 -800.2252 1244.0978)">
	<stop  offset="0" style="stop-color:#FFFFFF;stop-opacity:0"/>
	<stop  offset="1" style="stop-color:#000000;stop-opacity:0.7"/>
</linearGradient>
<path fill="url(#SVGID_31_)" d="M336.725,1572.794c-0.137-5.902,2.509-12.057,5.263-18.142l-14.159,24.964
	C331.038,1577.752,334.123,1575.283,336.725,1572.794z"/>
<g>
	
		<linearGradient id="SVGID_32_" gradientUnits="userSpaceOnUse" x1="528.6909" y1="1034.9355" x2="1043.6738" y2="1034.9355" gradientTransform="matrix(0.7071 -0.7071 0.7071 0.7071 -713.9464 1489.4268)">
		<stop  offset="0" style="stop-color:#6F00FF"/>
		<stop  offset="1" style="stop-color:#FF00B9"/>
	</linearGradient>
	<circle fill="url(#SVGID_32_)" cx="573.778" cy="1665.322" r="257.491"/>
	
		<radialGradient id="SVGID_33_" cx="959.4224" cy="1023.3379" r="130.8567" gradientTransform="matrix(0.7071 -0.7071 0.7071 0.7071 -713.9464 1489.4268)" gradientUnits="userSpaceOnUse">
		<stop  offset="0" style="stop-color:#FFFFFF;stop-opacity:0.6"/>
		<stop  offset="0.6859" style="stop-color:#FFFFFF;stop-opacity:0"/>
	</radialGradient>
	<circle fill="url(#SVGID_33_)" cx="688.076" cy="1534.622" r="130.857"/>
	
		<linearGradient id="SVGID_34_" gradientUnits="userSpaceOnUse" x1="929.8525" y1="1105.6504" x2="644.9032" y2="1270.166" gradientTransform="matrix(0.8149 -0.5796 0.5796 0.8149 -800.2252 1244.0978)">
		<stop  offset="0" style="stop-color:#FFFFFF;stop-opacity:0"/>
		<stop  offset="1" style="stop-color:#000000;stop-opacity:0.7"/>
	</linearGradient>
	<path fill="url(#SVGID_34_)" d="M769.187,1711.988c-42.605-6.538-83.125-9.87-120.57-30.315
		c-36.064-19.688-68.91-42.052-97.96-69.821c-30.188-28.854-66.322-44.776-102.744-66.411c-27.79-16.507-46.765-35.47-81.726-40.655
		c0.651,2.061,2.205,3.152,2.839,5.269c-7.612,6.021-16.019,11.603-23.624,17.633c4.635,6.695,2.145,14.387-1.335,22.338
		c-0.333,0.629-0.602,1.244-0.818,1.847c-0.416,0.924-0.838,1.853-1.26,2.781l0.877-1.545c-1.374,5.425,1.031,10.147-1.825,17.18
		c-3.348,8.246-12.168,12.905-15.469,22.258c-6.097,17.281,2.08,41.786-12.519,57.772c8.242,14.373,6.289,37.457,8.856,53.069
		c2.695,16.374,8.865,32.191,14.985,49.187c11.214,31.128,30.236,66.688,54.695,92.127c8.879,9.233,21.083,22.518,34.501,34.786
		c1.758-0.667,3.648,0.503,4.301,2.126c2.529-1.468,5.619,1.283,4.887,3.879c6.344,3.758,12.254,8.348,19.076,11.178
		c6.069,2.518,13.122,3.789,18.101,8.353c0.378,0.347,0.644,0.72,0.816,1.101c0.045-0.05,0.086-0.1,0.135-0.148
		c1.698-1.701,3.911-0.996,5.029,0.491c1.966-0.375,3.943,1.355,4.042,3.297c5.157-1.156,10.722-3.338,16.375-2.718
		c10.619,1.167,16.854,7.276,26.736,9.661c14.476,3.493,35.416,4.952,50.79,4.148c37.711-1.969,104.551-13.117,127.28-39.212
		c10.153-11.653,15.989-20.337,29.113-28.758c9.365-6.008,23.663-8.175,32.781-18.042c13.529-14.642,24.621-32.716,39.144-48.329
		c-2.374-15.521,14.281-34.777,12.185-47.887C813.387,1716.766,785.47,1714.488,769.187,1711.988z"/>
</g>
<g>
	
		<linearGradient id="SVGID_35_" gradientUnits="userSpaceOnUse" x1="566.5479" y1="1089.1211" x2="724.8491" y2="1089.1211" gradientTransform="matrix(0.7071 -0.7071 0.7071 0.7071 -273.2911 1545.5664)">
		<stop  offset="0" style="stop-color:#6F00FF"/>
		<stop  offset="1" style="stop-color:#FF00B9"/>
	</linearGradient>
	<circle fill="url(#SVGID_35_)" cx="953.411" cy="1859.113" r="79.151"/>
	
		<radialGradient id="SVGID_36_" cx="698.9502" cy="1085.5547" r="40.2239" gradientTransform="matrix(0.7071 -0.7071 0.7071 0.7071 -273.2911 1545.5664)" gradientUnits="userSpaceOnUse">
		<stop  offset="0" style="stop-color:#FFFFFF;stop-opacity:0.8"/>
		<stop  offset="1" style="stop-color:#FFFFFF;stop-opacity:0"/>
	</radialGradient>
	<circle fill="url(#SVGID_36_)" cx="988.544" cy="1818.937" r="40.224"/>
	
		<linearGradient id="SVGID_37_" gradientUnits="userSpaceOnUse" x1="723.6294" y1="1138.252" x2="636.0377" y2="1188.823" gradientTransform="matrix(0.8149 -0.5796 0.5796 0.8149 -359.5699 1300.2374)">
		<stop  offset="0" style="stop-color:#FFFFFF;stop-opacity:0"/>
		<stop  offset="1" style="stop-color:#000000;stop-opacity:0.7"/>
	</linearGradient>
	<path fill="url(#SVGID_37_)" d="M880.542,1830.672c-0.042-1.814,0.771-3.707,1.619-5.577l-4.353,7.674
		C878.795,1832.195,879.744,1831.437,880.542,1830.672z"/>
	
		<linearGradient id="SVGID_38_" gradientUnits="userSpaceOnUse" x1="762.7329" y1="1205.9814" x2="675.1426" y2="1256.5518" gradientTransform="matrix(0.8149 -0.5796 0.5796 0.8149 -359.5699 1300.2374)">
		<stop  offset="0" style="stop-color:#FFFFFF;stop-opacity:0"/>
		<stop  offset="1" style="stop-color:#000000;stop-opacity:0.7"/>
	</linearGradient>
	<path fill="url(#SVGID_38_)" d="M1013.479,1873.458c-13.098-2.01-25.553-3.033-37.064-9.318
		c-11.084-6.053-21.182-12.927-30.111-21.462c-9.28-8.87-20.387-13.764-31.583-20.415c-8.542-5.073-14.374-10.903-25.121-12.496
		c0.2,0.632,0.679,0.969,0.874,1.619c-2.34,1.851-4.925,3.566-7.262,5.42c1.425,2.059,0.659,4.422-0.41,6.866
		c-0.103,0.193-0.186,0.382-0.252,0.567c-0.128,0.284-0.258,0.569-0.387,0.855l0.269-0.475c-0.422,1.667,0.318,3.119-0.561,5.28
		c-1.029,2.534-3.741,3.967-4.754,6.842c-1.874,5.312,0.64,12.845-3.849,17.758c2.534,4.419,1.934,11.515,2.723,16.313
		c0.828,5.034,2.725,9.896,4.607,15.12c3.447,9.568,9.292,20.499,16.812,28.318c2.729,2.839,6.481,6.922,10.605,10.693
		c0.54-0.205,1.121,0.155,1.322,0.654c0.778-0.452,1.727,0.394,1.502,1.192c1.95,1.153,3.767,2.564,5.864,3.436
		c1.866,0.773,4.033,1.164,5.563,2.567c0.117,0.106,0.198,0.221,0.251,0.338c0.014-0.015,0.026-0.031,0.041-0.046
		c0.523-0.523,1.202-0.306,1.546,0.151c0.605-0.115,1.213,0.417,1.243,1.014c1.585-0.355,3.295-1.026,5.034-0.837
		c3.264,0.36,5.181,2.237,8.218,2.971c4.45,1.073,10.887,1.522,15.613,1.275c11.592-0.606,32.138-4.032,39.125-12.053
		c3.12-3.583,4.914-6.252,8.948-8.841c2.879-1.847,7.273-2.513,10.076-5.546c4.16-4.501,7.57-10.057,12.033-14.855
		c-0.73-4.771,4.391-10.69,3.746-14.72C1027.064,1874.927,1018.484,1874.226,1013.479,1873.458z"/>
</g>
</svg>
