<?xml version="1.0" encoding="iso-8859-1"?>
<!-- Generator: Adobe Illustrator 16.0.3, SVG Export Plug-In . SVG Version: 6.00 Build 0)  -->
<!DOCTYPE svg PUBLIC "-//W3C//DTD SVG 1.1//EN" "http://www.w3.org/Graphics/SVG/1.1/DTD/svg11.dtd">
<svg version="1.1" id="Capa_1" xmlns="http://www.w3.org/2000/svg" xmlns:xlink="http://www.w3.org/1999/xlink" x="0px" y="0px"
	 width="405px" height="334px" viewBox="0 0 405 334" style="enable-background:new 0 0 405 334;" xml:space="preserve">
<g>
	
		<linearGradient id="SVGID_1_" gradientUnits="userSpaceOnUse" x1="-805.3208" y1="1173.6543" x2="-804.4379" y2="1174.8163" gradientTransform="matrix(-289.1667 0 0 -311.0677 -232477.1563 365446.0938)">
		<stop  offset="0" style="stop-color:#005FE7"/>
		<stop  offset="1" style="stop-color:#00E1FF"/>
	</linearGradient>
	<path style="fill:url(#SVGID_1_);" d="M304.9,306.357c10.61,11.885,24.992,18.308,39.669,19.084
		c14.676,0.775,29.646-4.096,41.43-14.797c11.786-10.699,18.153-25.205,18.923-40.004c0.771-14.801-4.06-29.898-14.67-41.783
		L215.934,33.612c-10.611-11.883-24.995-18.303-39.669-19.079c-14.676-0.775-29.645,4.095-41.43,14.795
		c-11.785,10.703-18.152,25.207-18.92,40.007c-0.77,14.8,4.06,29.896,14.67,41.78l174.318,195.24L304.9,306.357z"/>
	
		<linearGradient id="SVGID_2_" gradientUnits="userSpaceOnUse" x1="-804.981" y1="1174.0576" x2="-804.7498" y2="1174.4427" gradientTransform="matrix(-357.5808 -12.487 10.8418 -310.4694 -300335.0938 354679)">
		<stop  offset="0" style="stop-color:#FF4CA1"/>
		<stop  offset="1" style="stop-color:#FFDE67"/>
	</linearGradient>
	<path style="fill:url(#SVGID_2_);" d="M118.022,298.504c46.009,14.185,97.383,10.67,143.219-13.908
		c45.835-24.578,77.454-65.566,91.521-111.965c14.065-46.399,10.58-98.21-13.791-144.435c-6.756-12.814-18.021-21.652-30.776-25.584
		c-12.752-3.933-26.993-2.958-39.698,3.854c-12.705,6.814-21.471,18.175-25.369,31.037c-3.9,12.862-2.934,27.224,3.822,40.038
		c10.859,20.598,12.413,43.685,6.145,64.361c-6.268,20.676-20.357,38.939-40.781,49.892c-20.424,10.952-43.317,12.518-63.819,6.197
		c-20.502-6.321-38.612-20.531-49.472-41.128C92.266,144.048,81,135.21,68.246,131.277c-12.752-3.933-26.993-2.958-39.699,3.856
		c-12.707,6.813-21.471,18.175-25.37,31.036c-3.899,12.861-2.933,27.224,3.823,40.038
		C31.373,252.432,72.014,284.318,118.022,298.504L118.022,298.504z"/>
	
		<linearGradient id="SVGID_3_" gradientUnits="userSpaceOnUse" x1="-805.1528" y1="1173.3584" x2="-804.9066" y2="1173.0217" gradientTransform="matrix(-144.889 0 0 -146.12 -116485.2813 171722.8438)">
		<stop  offset="0" style="stop-color:#FF008C"/>
		<stop  offset="1" style="stop-color:#CC0DE8"/>
	</linearGradient>
	<path style="fill:url(#SVGID_3_);" d="M180.907,333.366c-40.01,0-72.444-32.709-72.444-73.06s32.434-73.061,72.444-73.061
		c40.011,0,72.444,32.71,72.444,73.061S220.918,333.366,180.907,333.366"/>
</g>
</svg>
