<?xml version="1.0" encoding="utf-8"?>
<!-- Generator: Adobe Illustrator 16.0.3, SVG Export Plug-In . SVG Version: 6.00 Build 0)  -->
<!DOCTYPE svg PUBLIC "-//W3C//DTD SVG 1.1//EN" "http://www.w3.org/Graphics/SVG/1.1/DTD/svg11.dtd">
<svg version="1.1" id="Capa_1" xmlns="http://www.w3.org/2000/svg" xmlns:xlink="http://www.w3.org/1999/xlink" x="0px" y="0px"
	 width="1000px" height="300px" viewBox="0 0 1000 300" enable-background="new 0 0 1000 300" xml:space="preserve">
<path fill-rule="evenodd" clip-rule="evenodd" fill="#343333" d="M325.94,169.524c-5.918,6.479-12.762,8.565-20.664,8.392
	c-13.649-0.3-22.108-8.227-22.333-21.807c-0.212-12.832,0.017-25.67-0.101-38.504c-0.022-2.46,0.878-3.069,3.089-2.865
	c3.758,0.345,8.641-1.576,10.962,0.816c1.802,1.857,0.566,6.719,0.578,10.246c0.032,9.831,0.011,19.662,0.011,29.493
	c0,0.818-0.007,1.639,0.001,2.458c0.116,10.202,4.582,15.888,12.495,15.913c8.507,0.025,16.04-7.811,16.075-16.854
	c0.049-12.835,0.102-25.671-0.057-38.504c-0.035-2.839,0.65-3.875,3.575-3.6c3.367,0.317,7.767-1.021,9.888,0.664
	c2.265,1.8,0.682,6.377,0.7,9.73c0.088,15.838-0.013,31.678,0.092,47.517c0.017,2.57-0.509,3.842-3.343,3.479
	c-1.612-0.206-3.272-0.037-4.911-0.037C326.172,176.061,326.172,176.061,325.94,169.524z"/>
<path fill-rule="evenodd" clip-rule="evenodd" fill="#343333" d="M885.739,128.663c7.548-8.071,15.99-8.913,24.847-6.833
	c8.567,2.011,13.488,8.06,13.733,17.084c0.327,12.002,0.098,24.02,0.105,36.031c0,0.409,0.144,1.035-0.063,1.195
	c-3.324,2.584-7.174,0.635-10.757,1.164c-2.342,0.347-2.123-1.453-2.129-2.977c-0.048-11.053-0.105-22.106-0.16-33.16
	c-0.004-0.82,0.005-1.638-0.002-2.457c-0.072-8.817-4.04-13.922-10.892-14.016c-7.659-0.105-14.369,6.727-14.401,14.778
	c-0.044,11.328-0.097,22.658,0.049,33.985c0.036,2.837-0.391,4.036-3.688,3.979c-9.417-0.162-9.42,0.011-9.42-9.332
	c0-13.922,0.066-27.845-0.057-41.766c-0.024-2.746,0.581-4.112,3.571-3.715c1.341,0.178,2.74,0.159,4.088,0.005
	C884.203,122.214,887.17,122.477,885.739,128.663z"/>
<path fill-rule="evenodd" clip-rule="evenodd" fill="#343333" d="M396.571,115.283c5.064,0,9.56,0.104,14.047-0.044
	c2.262-0.075,2.604,1.525,3.269,2.968c5.752,12.485,11.481,24.981,17.276,37.446c0.725,1.56,1.108,3.352,2.742,4.778
	c6.441-13.929,12.813-27.705,19.182-41.481c0.399-0.864,0.704-1.784,1.193-2.594c1.002-1.661,2.783-1.39,4.01-0.837
	c1.494,0.673,0.114,1.936-0.263,2.746c-13.307,28.634-26.622,57.264-40.057,85.837c-3.741,7.956-8.152,10.636-15.206,9.756
	c-3.335-0.417-7.174-1.384-8.111-4.62c-0.739-2.554,3.084-3.868,4.898-6.311c0.772,3.46,1.766,6.314,5.342,6.758
	c3.428,0.426,5.938-1.442,7.354-4.213c4.456-8.722,8.647-17.58,12.915-26.398c0.779-1.608-0.351-2.903-0.959-4.215
	c-8.753-18.896-17.542-37.775-26.319-56.66C397.545,117.473,397.225,116.738,396.571,115.283z"/>
<path fill-rule="evenodd" clip-rule="evenodd" fill="#343333" d="M392.12,163.701c0.154,0.026,0.322,0.007,0.418,0.08
	c6.334,4.874,6.367,6.887-0.615,10.749c-9.169,5.072-18.722,4.761-27.744-0.173c-7.012-3.836-9.233-10.804-9.301-18.429
	c-0.098-11.049-0.154-22.103,0.055-33.148c0.061-3.204-0.79-4.491-3.999-3.94c-0.663,0.114-1.364-0.022-2.043,0.024
	c-1.389,0.094-2.255-0.111-2.292-1.909c-0.039-1.913,0.752-2.167,2.408-2.238c5.849-0.249,5.846-0.318,5.846-6.042
	c0-0.409,0-0.818,0-1.228c0-11.893-0.003-11.847,12.018-11.062c1.905,0.125,2.653,0.642,2.603,2.618
	c-0.112,4.363,0.083,8.734-0.081,13.094c-0.084,2.22,0.706,2.805,2.803,2.704c3.267-0.157,6.549-0.126,9.818,0
	c1.36,0.052,3.415-1.001,3.5,1.913c0.084,2.852-1.847,2.097-3.313,2.124c-3.409,0.061-6.824,0.115-10.229-0.017
	c-1.931-0.075-2.589,0.518-2.569,2.512c0.136,13.23,0.086,26.462,0.269,39.69c0.055,3.925,1.464,7.473,4.696,10.019
	c6.269,4.939,13.546,3.023,16.602-4.359C391.376,165.697,391.738,164.692,392.12,163.701z"/>
<path fill-rule="evenodd" clip-rule="evenodd" fill="#343333" d="M971.125,165.83c5.883,4.992,5.83,6.565-0.674,10.04
	c-7.899,4.222-16.149,4.029-23.938,0.054c-6.75-3.446-8.906-9.971-8.955-17.204c-0.067-9.683-0.161-19.369,0.063-29.047
	c0.075-3.241-0.826-4.411-4.054-4.018c-1.278,0.156-3.252,0.727-3.221-1.811c0.031-2.637,2.119-1.775,3.291-1.634
	c3.263,0.393,4.244-0.833,3.966-4.015c-0.283-3.248,0.079-6.549-0.111-9.811c-0.13-2.249,0.739-2.642,2.795-2.692
	c10.367-0.254,10.366-0.317,10.366,9.801c0,6.642,0,6.642,6.516,6.642c1.636,0,3.278-0.086,4.907,0.027
	c1.292,0.09,3.262-0.801,3.155,1.84c-0.089,2.232-1.759,1.658-2.99,1.688c-2.863,0.068-5.734,0.141-8.59-0.016
	c-2.235-0.123-3.08,0.511-3.052,2.923c0.133,11.318-0.048,22.64,0.138,33.957c0.12,7.288,4.066,11.836,10.049,12.256
	C965.723,175.157,967.928,173.288,971.125,165.83z"/>
<path fill-rule="evenodd" clip-rule="evenodd" fill="#353435" d="M594.337,247.788c0-5.736,0.152-11.479-0.065-17.207
	c-0.105-2.815,1.187-3.011,3.429-3.065c2.42-0.06,3.319,0.527,3.281,3.155c-0.154,10.924-0.07,21.852-0.085,32.778
	c-0.006,3.968-1.306,7.358-5.082,9.088c-4.052,1.854-8.199,1.763-12.122-0.572c-0.685-0.406-1.291-1.019-1.784-1.652
	c-0.692-0.89,0.021-1.493,0.644-2.031c0.864-0.749,1.347-0.401,1.801,0.539c1.233,2.551,3.181,3.679,6.013,2.687
	c2.882-1.008,3.856-3.31,3.88-6.103c0.051-5.872,0.016-11.744,0.016-17.616C594.286,247.788,594.312,247.788,594.337,247.788z"/>
<path fill-rule="evenodd" clip-rule="evenodd" fill="#343434" d="M691.958,250.156c2.944,1.724,2.352,3.218,0.064,4.576
	c-4.069,2.415-8.279,2.439-12.459,0.397c-3.792-1.853-4.813-5.348-4.892-9.203c-0.085-4.09,0.056-8.184-0.052-12.272
	c-0.055-2.039,1.163-5.006-2.83-4.87c-0.202,0.006-0.593-0.556-0.589-0.85c0.003-0.28,0.425-0.814,0.628-0.799
	c4.173,0.327,2.759-2.814,2.751-4.729c-0.011-2.509,0.158-3.943,3.403-3.966c3.345-0.024,3.642,1.613,3.218,3.985
	c-0.766,4.276,1.337,5.163,4.99,4.649c0.782-0.11,2.207-0.511,2.225,0.876c0.018,1.415-1.452,1.08-2.221,0.943
	c-4.338-0.773-5.345,1.184-5.042,5.181c0.351,4.61,0.032,9.269,0.122,13.903c0.06,3.113,1.266,5.72,4.517,6.522
	C689.122,255.323,690.777,253.126,691.958,250.156z"/>
<path fill-rule="evenodd" clip-rule="evenodd" fill="#353434" d="M648.19,241.859c0.107,0.869,0.149,2.521,0.531,4.092
	c2.045,8.397,8.901,11.11,16.198,6.508c0.7-0.441,1.451-1.941,2.304-0.819c0.939,1.236-0.704,1.703-1.433,2.218
	c-6.287,4.443-15.068,3.284-20.293-2.614c-5.197-5.868-5.195-14.227,0.004-20.098c5.024-5.675,13.828-6.834,19.988-2.562
	c0.859,0.597,2.695,1.213,1.757,2.502c-0.973,1.336-1.761-0.539-2.503-1.041c-3.406-2.302-7.031-3.242-10.741-1.209
	C649.229,231.452,648.296,236.127,648.19,241.859z"/>
<path fill-rule="evenodd" clip-rule="evenodd" fill="#373636" d="M546.744,232.001c-1.964,2.127-2.468,4.626-2.353,7.486
	c0.186,4.614-0.093,9.248,0.102,13.861c0.114,2.717-1.375,2.673-3.295,2.682c-1.957,0.01-3.369-0.032-3.313-2.717
	c0.153-7.201-0.014-14.409,0.106-21.611c0.023-1.426-1.228-3.965,1.949-3.818c1.972,0.091,5.015-1.274,4.567,2.892
	c-0.075,0.698,0.779,0.39,1.263,0.281C546.295,231.167,546.621,231.479,546.744,232.001z"/>
<path fill-rule="evenodd" clip-rule="evenodd" fill="#373737" d="M167.172,84.445c0-4.082,0.02-8.163-0.011-12.245
	c-0.011-1.435-0.105-2.63,2.02-2.581c1.867,0.043,2.754,0.476,2.621,2.515c-0.143,2.168-0.81,4.806,0.137,6.432
	c1.804,3.096-0.291,5.615-0.195,8.381c0.117,3.397-0.037,6.804,0.048,10.203c0.045,1.797-0.703,2.315-2.421,2.363
	c-1.881,0.053-2.257-0.756-2.225-2.415C167.228,92.881,167.172,88.663,167.172,84.445z"/>
<path fill-rule="evenodd" clip-rule="evenodd" fill="#343434" d="M159.783,99.83c-6.542,0.337-8.989-1.925-9.039-8.38
	c-0.02-2.584,0.046-5.169-0.025-7.752c-0.034-1.225,0.618-2.885-1.523-3.155c-0.219-0.027-0.41-0.279-0.614-0.426
	c3.664-0.966,1.021-4.742,2.777-6.253c0.746-0.642,3.818-1.47,3.637,1.149c-0.288,4.171,1.532,5.195,5.265,4.525
	c-0.197,0.499-0.286,0.847-0.339,0.842c-4.196-0.415-5.304,1.672-4.822,5.507c0.303,2.411,0.017,4.891,0.077,7.337
	c0.074,3.04,1.243,5.27,4.573,5.749c0.238,0.182,0.322,0.369,0.253,0.562C159.932,99.731,159.859,99.83,159.783,99.83z"/>
<path fill-rule="evenodd" clip-rule="evenodd" fill="#343434" d="M174.795,79.922c6.934-1.969,10.477,0.518,10.521,7.405
	c0.021,3.118-0.031,6.238,0.017,9.356c0.025,1.611,0.04,2.853-2.252,2.832c-2.431-0.023-2.077-1.528-2.08-2.985
	c-0.007-2.983,0.021-5.967-0.008-8.95C180.936,81.641,180.303,80.875,174.795,79.922z"/>
<path fill-rule="evenodd" clip-rule="evenodd" fill="#363636" d="M601.663,216.657c-0.245,2.792-1.387,4.578-3.971,4.573
	c-2.286-0.004-3.765-1.424-3.854-3.824c-0.097-2.595,1.352-4.134,3.852-4.242C600.126,213.059,601.105,214.88,601.663,216.657z"/>
<path fill-rule="evenodd" clip-rule="evenodd" fill="#363636" d="M546.744,232.001c-0.324-0.314-0.648-0.63-0.973-0.944
	c3.176-3.894,6.703-5.014,10.604-3.329c0.774,0.335,2.226,0.45,1.307,1.799c-0.473,0.695-1.043,2.133-2.513,1.024
	C551.875,228.063,549.34,230.271,546.744,232.001z"/>
<path fill-rule="evenodd" clip-rule="evenodd" fill="#434242" d="M159.783,99.83c-0.011-0.286-0.022-0.571-0.034-0.857
	c0.52-0.391,1.003-0.847,1.567-1.155c0.776-0.425,0.512-1.968,1.821-1.705c0.314,0.063,0.735,0.498,0.784,0.813
	c0.22,1.399-1.076,1.668-1.896,2.184C161.381,99.513,160.538,99.601,159.783,99.83z"/>
<path fill-rule="evenodd" clip-rule="evenodd" fill="#636262" d="M203.173,98.711c0.994-1.358,1.775-2.166,3.256-1.718
	C205.907,98.275,205.098,98.952,203.173,98.711z"/>
<path fill-rule="evenodd" clip-rule="evenodd" fill="#5E5E5D" d="M209.007,94.56c-0.708,0.755-1.022,1.184-1.437,1.463
	c-0.099,0.066-0.79-0.509-0.773-0.539c0.305-0.53,0.628-1.074,1.071-1.48C207.97,93.91,208.533,94.319,209.007,94.56z"/>
<path fill-rule="evenodd" clip-rule="evenodd" fill="#343333" d="M107.693,92.546c10.009,4.139,17.783,10.183,22.854,19.175
	c8.072,14.313,8.367,29.081,0.312,43.281c-8.038,14.17-20.653,21.891-37.229,22.002c-23.218,0.155-46.439-0.018-69.658,0.108
	c-2.985,0.017-3.875-0.621-3.867-3.769c0.112-48.625,0.113-97.249-0.002-145.874c-0.007-3.184,0.943-3.763,3.89-3.746
	c21.58,0.125,43.161,0.055,64.741,0.071c16.972,0.014,31.297,10.25,35.998,25.679c4.911,16.116-0.905,32.005-15.286,41.776
	C108.999,91.555,108.574,91.894,107.693,92.546z M45.9,167.361c0.002,1.396-0.542,3.131,2.001,3.044
	c10.769-0.37,21.582,0.803,32.312-0.692c17.444-2.43,31.131-18.58,30.935-36.3c-0.201-18.101-14.199-33.998-31.818-35.911
	c-10.34-1.123-20.737-0.173-31.101-0.507c-2.64-0.085-2.349,1.514-2.348,3.175c0.012,11.062,0.006,22.124,0.006,33.186
	C45.888,144.691,45.879,156.026,45.9,167.361z M45.835,87.288c-0.034,2.333,0.667,2.977,2.964,2.937
	c7.775-0.135,15.556,0.044,23.331-0.073c14.799-0.223,27.799-12.963,28.56-27.855c0.787-15.407-10.475-29.332-25.362-31.168
	c-8.965-1.106-17.99-0.174-26.979-0.52c-2.519-0.097-2.489,1.266-2.48,3.056c0.042,9.006,0.019,18.011,0.019,27.017
	C45.888,69.55,45.966,78.421,45.835,87.288z"/>
<path fill-rule="evenodd" clip-rule="evenodd" fill="#343333" d="M476.862,168.774c0-27.718,0.058-55.438-0.078-83.156
	c-0.016-3.257,0.893-4.027,4.064-4.012c26.626,0.128,53.253,0.025,79.879,0.086c25.548,0.059,46.978,20.141,48.919,45.715
	c1.92,25.296-16.106,48.622-40.963,52.737c-5.507,0.911-11.134,0.89-16.737,0.858c-14.063-0.077-28.13,0.067-42.192-0.099
	c-3.056-0.036-3.901,0.752-3.882,3.853c0.138,22.529-0.002,45.06,0.156,67.589c0.022,3.347-0.691,4.437-4.199,4.284
	c-7.087-0.307-14.205-0.28-21.294-0.006c-3.195,0.124-3.753-0.918-3.741-3.873C476.909,224.759,476.862,196.767,476.862,168.774z
	 M505.879,169.415c-0.035,2.9,0.819,3.644,3.652,3.598c10.233-0.167,20.473,0.026,30.707-0.086
	c20.161-0.22,38.264-17.447,40.084-37.227c2.428-26.38-17.689-43.368-33.97-45.581c-12.092-1.644-24.257-0.289-36.373-0.821
	c-3.12-0.137-4.173,0.625-4.117,3.961c0.212,12.553,0.085,25.112,0.085,37.668C505.947,143.757,506.037,156.588,505.879,169.415z"/>
<path fill-rule="evenodd" clip-rule="evenodd" fill="#343333" d="M723.413,126.33c-0.623-3.543,0.882-4.106,3.554-4.089
	c9.268,0.061,9.281-0.035,9.266,9.048c-0.032,18.704,0.052,37.411-0.172,56.112c-0.122,10.266-5.582,17.307-14.95,20.903
	c-12.705,4.876-25.317,4.859-37.302-2.489c-1.057-0.648-3.556-1.431-1.343-3.019c1.558-1.117,2.244-5.979,5.705-2.259
	c4.528,4.867,9.986,7.485,16.675,7.073c10.939-0.675,17.73-8.39,18.449-21.034c0.23-4.058,0.036-8.14,0.036-12.85
	c-9.034,5.897-18.36,7.482-28.261,4.204c-6.574-2.176-11.723-6.272-15.528-12.052c-7.255-11.018-5.896-26.155,3.238-35.934
	C691.015,121.128,706.682,115.714,723.413,126.33z M723.343,134.69c0.002-1.498,0.063-2.924-1.182-4.152
	c-8.524-8.412-24.459-9.713-30.986,3.827c-4.342,9.005-4.638,18.388-1.385,27.796c4.873,14.093,19.755,18.047,31.25,8.463
	c1.59-1.325,2.407-2.691,2.348-4.843c-0.144-5.179-0.046-10.363-0.046-15.545C723.342,145.054,723.339,139.872,723.343,134.69z"/>
<path fill-rule="evenodd" clip-rule="evenodd" fill="#343333" d="M228.341,128.784c-6.849-5.841-7.588-5.333,0.267-10.549
	c7.833-5.2,16.656-5.689,25.512-2.811c8.714,2.833,13.571,9.881,13.667,19.688c0.125,12.69-0.052,25.383,0.095,38.073
	c0.032,2.791-0.894,3.588-3.513,3.382c-2.441-0.193-4.917-0.16-7.364-0.009c-2.716,0.167-4.857-0.033-3.259-4.701
	c-7.434,6.342-14.936,8.239-23.259,6.021c-12.479-3.327-16.33-16.746-7.616-26.305c3-3.29,6.775-5.445,10.768-7.267
	c5.69-2.596,11.352-5.26,17.102-7.718c1.933-0.826,2.681-1.885,2.534-3.982c-0.155-2.202-0.494-4.349-1.221-6.399
	c-3.116-8.799-13.344-10.858-19.722-4.029C230.538,124.1,229.458,126.443,228.341,128.784z M238.332,148.818
	c-2.449,2.257-4.201,4.99-5.155,8.182c-1.611,5.393-0.104,10.618,3.739,13.206c4.186,2.819,10.303,2.365,14.448-1.046
	c1.076-0.886,1.907-1.769,1.895-3.361c-0.065-8.417-0.03-16.833-0.03-25.594C247.553,142.31,242.569,144.911,238.332,148.818z"/>
<path fill-rule="evenodd" clip-rule="evenodd" fill="#343333" d="M183.53,147.541c-7.506,0-15.013-0.032-22.519,0.039
	c-1.01,0.01-2.416-0.731-2.869,1.225c-2.466,10.639,8.746,25.021,19.639,24.91c9.107-0.094,16.185-4.185,21.391-11.588
	c0.703-1,1.276-2.089,1.934-3.121c1.033-1.62,2.827-1.504,3.999-0.866c1.604,0.873,0.044,2.17-0.438,3.07
	c-7.381,13.787-24.167,20.137-39.372,14.964c-15.069-5.127-23.865-20.372-21.174-36.7c2.45-14.863,16.139-26.33,31.458-26.352
	c17.946-0.026,31.784,12.714,33.244,30.509c0.229,2.802-0.223,4.14-3.598,4.001C198.006,147.334,190.764,147.541,183.53,147.541z
	 M191.861,143.472c1.709,0.025,2.504-0.375,2.231-2.276c-1.003-6.984-2.881-13.599-7.753-18.982
	c-5.86-6.475-14.017-6.641-20.049-0.344c-5.132,5.357-7.107,12.083-8.097,19.227c-0.311,2.237,0.821,2.399,2.567,2.374
	c5.046-0.074,10.094-0.025,15.142-0.026C181.221,143.443,186.542,143.394,191.861,143.472z"/>
<path fill-rule="evenodd" clip-rule="evenodd" fill="#343333" d="M628.28,133.607c-5.886-5.479-5.778-6.241,1.083-9.955
	c9.32-5.045,21.963-4.173,28.485,1.873c4.086,3.787,5.719,8.593,5.77,13.945c0.109,11.469-0.041,22.94,0.092,34.409
	c0.029,2.507-0.618,3.456-3.184,3.208c-2.164-0.209-4.37-0.134-6.549-0.019c-2.404,0.128-4.368-0.005-2.671-4.307
	c-5.331,3.934-10.094,6.127-15.761,5.963c-7.503-0.217-13.628-3.947-15.518-9.819c-2.084-6.477,0.45-13.344,6.879-17.756
	c6.436-4.419,13.817-7.024,20.868-10.237c2.395-1.091,3.185-2.408,2.867-4.978c-0.775-6.29-3.941-10.544-8.826-11.412
	c-5.405-0.961-9.491,1.46-12.612,7.468C628.954,132.471,628.668,132.931,628.28,133.607z M650.725,146.541
	c0.044-1.886-0.136-2.908-2.427-1.801c-4.063,1.961-8.048,4.029-11.236,7.278c-3.968,4.042-5.863,8.819-4.354,14.503
	c1.146,4.321,5.782,6.994,10.608,6.296c4.999-0.725,7.385-3.404,7.388-8.298c0.001-2.725,0-5.448,0-8.173
	C650.704,153.078,650.648,149.808,650.725,146.541z"/>
<path fill-rule="evenodd" clip-rule="evenodd" fill="#343333" d="M823.368,133.634c-5.931-5.492-5.828-6.259,1.015-9.969
	c9.311-5.049,21.963-4.188,28.494,1.836c3.979,3.67,5.704,8.335,5.773,13.528c0.155,11.74,0.004,23.485,0.092,35.227
	c0.016,2.089-0.497,2.998-2.724,2.825c-2.171-0.17-4.373-0.138-6.55-0.011c-2.534,0.148-4.857,0.255-3.362-4.314
	c-6.484,5.263-12.813,7.059-19.921,5.402c-5.72-1.334-10.115-4.422-11.393-10.405c-1.338-6.272,0.816-11.602,5.826-15.608
	c5.717-4.575,12.704-6.778,19.176-9.931c6.438-3.137,7.511-6.191,4.069-12.505c-2.939-5.393-9.641-7.048-14.743-3.677
	C826.389,127.837,824.847,130.542,823.368,133.634z M828.817,156.526c-2.578,4.864-2.074,10.607,1.186,13.676
	c2.938,2.768,6.433,3.407,10.208,2.052c2.416-0.867,5.34-1.78,5.443-4.774c0.265-7.7,0.089-15.416,0.089-23.762
	C838.714,146.865,832.365,149.832,828.817,156.526z"/>
<path fill-rule="evenodd" clip-rule="evenodd" fill="#343333" d="M803.5,160.938c-4.127,11.481-15.748,18.522-29.277,17.736
	c-12.003-0.697-23.157-10.547-25.812-22.792c-3.288-15.163,6.293-30.9,21.029-34.543c15.781-3.902,31.201,4.869,35.607,20.255
	c2.628,9.174,2.364,9.525-7.136,9.525c-11.197,0-22.396,0.075-33.593-0.053c-2.91-0.033-4.13,0.688-3.199,3.726
	c0.313,1.026,0.201,2.174,0.407,3.242c1.74,9.023,7.11,15.259,14.26,16.603c8.082,1.52,17.119-2.821,22.139-10.848
	C799.303,161.586,800.415,159.511,803.5,160.938z M790.769,147.537c1.183-0.002,2.511,0.285,2.235-1.762
	c-0.848-6.299-2.508-12.265-6.92-17.086c-5.548-6.061-13.482-5.854-18.739,0.475c-3.954,4.762-5.658,10.416-6.436,16.458
	c-0.252,1.958,0.784,1.927,2.099,1.924c4.627-0.014,9.254-0.006,13.881-0.006S786.143,147.547,790.769,147.537z"/>
<path fill-rule="evenodd" clip-rule="evenodd" fill="#343434" d="M588.84,241.221c0.093,8.338-6.568,15.225-14.813,15.318
	c-8.201,0.094-15.081-6.713-15.156-14.994c-0.076-8.298,6.646-15.242,14.834-15.328C581.925,226.131,588.746,232.895,588.84,241.221
	z M568.58,251.648c2.998,3.919,7.245,4.014,10.394,0.323c4.568-5.353,4.497-16.143-0.141-21.349
	c-2.995-3.361-6.957-3.405-9.868,0.019c-2.485,2.924-3.527,6.409-3.497,10.642C565.262,244.822,566.158,248.482,568.58,251.648z"/>
<path fill-rule="evenodd" clip-rule="evenodd" fill="#343434" d="M635.619,247.579c-3.375,7.04-9.769,10.219-16.741,8.452
	c-7.319-1.855-11.885-7.816-11.652-15.22c0.227-7.26,5.818-13.462,13.124-14.558c6.485-0.974,13.497,3.278,15.928,9.656
	c2.03,5.329,1.5,6.145-4.006,6.146c-5.049,0.001-10.104,0.134-15.147-0.054c-2.726-0.101-3.708,0.601-3.033,3.433
	c1.002,4.206,2.619,8.001,7.233,8.992c4.751,1.021,8.435-1.228,11.365-4.896C633.368,248.682,633.434,246.983,635.619,247.579z
	 M628.55,240.129c0.823-0.022,1.851,0.413,2.004-1.208c0.352-3.704-3.511-9.814-6.939-10.646c-3.528-0.855-7.065,1.69-8.757,6.303
	c-1.912,5.215-1.663,5.57,3.898,5.571c1.088,0,2.177,0,3.265-0.001C624.197,240.148,626.375,240.188,628.55,240.129z"/>
<path fill-rule="evenodd" clip-rule="evenodd" fill="#353535" d="M202.625,99.581c-7.259,0.873-12.082-2.434-13.175-8.31
	c-0.922-4.956,2.545-10.578,7.278-11.799c5.459-1.409,10.707,1.256,12.636,6.385c1.052,2.799,1.069,4.674-2.873,4.374
	c-3.393-0.259-6.825,0.066-10.229-0.095c-2.271-0.107-2.376,0.873-2.08,2.706C194.884,97.204,198.202,98.527,202.625,99.581z
	 M205.379,87.328c-0.002-3.195-3.091-6.973-5.715-6.991c-2.705-0.017-5.996,3.762-5.503,6.971c0.564,3.676,3.81,0.748,5.217,1.794
	C205.38,89.103,205.38,89.103,205.379,87.328z"/>
</svg>
