<?xml version="1.0" encoding="utf-8"?>
<!-- Generator: Adobe Illustrator 16.0.3, SVG Export Plug-In . SVG Version: 6.00 Build 0)  -->
<!DOCTYPE svg PUBLIC "-//W3C//DTD SVG 1.1//EN" "http://www.w3.org/Graphics/SVG/1.1/DTD/svg11.dtd">
<svg version="1.1" id="Capa_1" xmlns="http://www.w3.org/2000/svg" xmlns:xlink="http://www.w3.org/1999/xlink" x="0px" y="0px"
	 width="2000px" height="1000px" viewBox="0 0 2000 1000" enable-background="new 0 0 2000 1000" xml:space="preserve">
<path fill-rule="evenodd" clip-rule="evenodd" fill="#FFFFFF" d="M919.328,386.939c-17.972,20.113-39.511,23.376-62.964,19.004
	c-25.783-4.807-40.769-21.792-41.286-48.268c-0.643-32.911-0.084-65.844-0.246-98.767c-0.021-4.283,1.309-5.561,5.5-5.401
	c7.815,0.295,15.675,0.476,23.466-0.05c5.447-0.368,6.002,1.919,5.99,6.494c-0.086,32.65,0.021,65.301,0.241,97.95
	c0.034,5.097,0.498,10.285,1.545,15.266c4.585,21.801,28.225,31.243,47.567,18.651c12.912-8.405,20.317-20.352,20.234-36.418
	c-0.164-31.573,0.085-63.148-0.176-94.721c-0.045-5.438,0.963-7.671,6.917-7.225c7.514,0.563,15.113,0.367,22.655,0.048
	c4.442-0.187,6.033,0.993,6.015,5.755c-0.172,45.876-0.171,91.754-0.001,137.63c0.019,4.76-1.567,5.962-6.012,5.756
	c-7.002-0.325-14.097-0.696-21.027,0.079c-7.486,0.837-9.574-2.061-8.458-8.847C919.549,392.301,919.328,390.648,919.328,386.939z"
	/>
<path fill-rule="evenodd" clip-rule="evenodd" fill="#FFFFFF" d="M1580.248,571.969c19.086-23.202,42.374-25.752,67.459-19.974
	c22.687,5.226,36.699,23.511,37.125,48.732c0.543,32.105,0.048,64.228,0.234,96.341c0.026,4.724-1.598,6.189-6.071,5.875
	c-9.582-0.675-19.251,1.049-28.797-0.953c-0.194-9.131-0.526-18.262-0.558-27.394c-0.08-23.479,0.06-46.958-0.088-70.436
	c-0.037-5.91-0.432-11.877-1.334-17.714c-3.759-24.312-29.055-34.886-49.038-20.256c-12.139,8.886-19.037,20.921-18.971,36.515
	c0.132,31.034-0.098,62.071,0.164,93.104c0.047,5.564-1.298,7.605-7.096,7.213c-7.522-0.509-15.112-0.326-22.658-0.053
	c-4.329,0.155-5.491-1.529-5.48-5.652c0.108-45.877,0.129-91.756-0.026-137.633c-0.015-4.548,1.775-5.389,5.726-5.246
	c6.737,0.245,13.529,0.515,20.227-0.057c7.04-0.601,10.646,1.204,9.239,8.955C1579.935,565.373,1580.248,567.533,1580.248,571.969z"
	/>
<path fill-rule="evenodd" clip-rule="evenodd" fill="#FFFFFF" d="M1099.891,469.063c1.618,7.447,3.869,14.54,12.653,15.517
	c8.602,0.958,14.831-3.86,18.359-10.833c10.681-21.117,20.66-42.589,30.952-63.904c1.719-3.562-0.538-6.309-1.829-9.112
	c-20.931-45.456-41.96-90.866-62.941-136.299c-1.546-3.347-3.733-6.468-4.168-10.84c11.518,0,22.799,0.314,34.051-0.133
	c5.556-0.222,5.866,3.983,7.278,7.048c15.083,32.74,29.999,65.556,44.974,98.346c0.886,1.941,1.878,3.834,3.319,6.76
	c9.396-20.46,18.43-40.111,27.447-59.771c6.728-14.67,13.448-29.343,20.145-44.027c4.027-8.832,4.004-8.843,14.867-7.503
	c-12.275,26.489-24.458,52.81-36.669,79.118c-20.84,44.901-41.699,89.793-62.543,134.693c-2.732,5.885-5.868,11.509-10.126,16.457
	c-10.367,12.048-31.518,13.986-43.928,4.099c-4.885-3.891-7.767-7.536-0.837-12.319
	C1093.921,474.271,1095.947,470.842,1099.891,469.063z"/>
<path fill-rule="evenodd" clip-rule="evenodd" fill="#FFFFFF" d="M1083.714,370.945c3,3.434,5.01,5.98,7.271,8.277
	c7.181,7.295,7.058,7.096-0.125,14.032c-21.207,20.482-62.137,16.723-79.171,3.711c-13.683-10.452-19.113-24.99-19.194-41.727
	c-0.135-27.768-0.253-55.54,0.121-83.303c0.089-6.562-1.367-9.518-8.297-8.435c-2.631,0.411-5.387-0.052-8.076,0.079
	c-4.606,0.224-3.237-3.145-3.475-5.565c-0.27-2.753,0.168-4.918,3.747-4.423c0.264,0.036,0.539,0.016,0.808-0.001
	c15.135-0.987,15.135-0.987,15.135-16.554c0-6.47,0.436-12.978-0.121-19.4c-0.564-6.521,1.229-9.264,8.243-8.677
	c7.229,0.605,14.555,0.345,21.823,0.056c4.157-0.165,5.615,1.073,5.505,5.392c-0.282,11.046,0.212,22.117-0.228,33.153
	c-0.207,5.193,1.504,6.344,6.35,6.142c9.15-0.381,18.334,0.083,27.491-0.196c4.115-0.125,5.642,0.914,5.57,5.314
	c-0.065,4.125-1.685,4.882-5.291,4.811c-9.433-0.185-18.881,0.188-28.303-0.165c-4.753-0.177-5.799,1.552-5.772,5.993
	c0.174,30.463-0.114,60.93,0.193,91.391c0.145,14.357,3.663,27.419,18.572,33.913c13.786,6.005,26.632,1.134,32.875-12.491
	C1080.815,379.106,1081.879,375.765,1083.714,370.945z"/>
<path fill-rule="evenodd" clip-rule="evenodd" fill="#FFFFFF" d="M1812.736,671.229c2.615,3.555,4.252,6.394,6.466,8.676
	c7.757,7.997,7.832,7.925-0.403,15.14c-19.035,16.679-57.593,18.536-77.901,3.498c-14.115-10.451-19.664-25.207-19.739-42.259
	c-0.127-28.037-0.229-56.077,0.117-84.111c0.075-6.104-1.55-8.38-7.621-7.487c-2.638,0.388-5.401-0.144-8.074,0.108
	c-3.977,0.377-4.296-1.862-4.195-4.93c0.094-2.776-0.353-5.675,3.937-5.092c0.264,0.036,0.539,0.015,0.808-0.001
	c14.994-0.896,14.994-0.897,14.994-15.885c0.002-7.818,0.158-15.641-0.063-23.453c-0.108-3.835,1.194-5.299,5.081-5.211
	c8.353,0.19,16.723,0.279,25.066-0.037c4.36-0.164,5.456,1.423,5.356,5.542c-0.251,10.508,0.243,21.04-0.212,31.534
	c-0.25,5.74,0.857,8.148,7.299,7.674c8.85-0.651,17.784-0.064,26.679-0.211c3.386-0.057,5.472,0.227,5.424,4.606
	c-0.044,4.137-1.08,5.659-5.429,5.512c-9.155-0.31-18.338,0.156-27.491-0.194c-4.769-0.183-6.525,0.886-6.479,6.129
	c0.264,30.193-0.025,60.39,0.205,90.582c0.103,13.368,2.812,25.893,15.807,33.266c14.563,8.262,29.33,3.296,35.989-12.058
	C1809.634,679.617,1810.682,676.567,1812.736,671.229z"/>
<path fill-rule="evenodd" clip-rule="evenodd" fill="#FFFFFF" d="M758.189,946.495c1.445,3.187,1.989,4.37,2.521,5.562
	c2.533,5.662,6.563,9.533,13.087,8.531c6.601-1.014,11.496-4.785,12.808-11.728c0.794-4.206,1.225-8.545,1.24-12.826
	c0.104-29.113,0.421-58.236-0.167-87.339c-0.177-8.76,4.833-6.869,9.666-7.079c5.037-0.22,8.991-0.874,8.85,7.004
	c-0.54,30.182-0.177,60.38-0.238,90.572c-0.024,12.254-5.66,20.946-15.786,24.823c-12.101,4.633-28.506,1.979-35.739-5.638
	C748.838,952.488,756.701,951.736,758.189,946.495z"/>
<path fill-rule="evenodd" clip-rule="evenodd" fill="#FFFFFF" d="M1053.551,902.827c8.291,7.007,8.299,9.034-0.562,13.894
	c-11.226,6.157-23.007,5.866-34.136,0.161c-10.375-5.318-12.666-15.188-12.42-26.131c0.286-12.672-0.051-25.354,0.134-38.027
	c0.062-4.128-0.456-6.881-5.566-6.297c-1.916,0.22-4.723,0.797-4.585-2.736c0.115-2.95,2.556-2.483,4.197-2.234
	c5.517,0.837,6.39-2.071,5.931-6.576c-0.245-2.402,0.295-4.907-0.105-7.267c-1.279-7.538,1.936-9.179,9.114-9.183
	c7.18-0.003,10.441,1.659,9.058,9.166c-0.241,1.303,0.179,2.73-0.069,4.032c-1.554,8.154,1.68,10.732,9.832,10.044
	c3.356-0.284,10.294-3.602,10.334,2.609c0.029,4.372-6.855,2.372-10.281,1.995c-8.236-0.905-10.551,1.878-10.049,10.073
	c0.821,13.438,0.352,26.953,0.47,40.436c0.04,4.668,0.958,9.162,3.89,12.923C1036.415,919.565,1047.109,916.798,1053.551,902.827z"
	/>
<path fill-rule="evenodd" clip-rule="evenodd" fill="#FFFFFF" d="M959.75,920.723c-18.459-0.028-34.456-11.21-40.215-28.109
	c-5.607-16.458,0.033-34.991,13.874-45.588c14.705-11.257,34.1-12.227,49.046-2.384c1.784,1.176,3.362,2.669,5.021,4.032
	c1.345,1.106,2.285,2.256,0.854,4.029c-1.634,2.023-3.027,1.541-4.602-0.086c-3.031-3.134-6.59-5.519-10.663-7.116
	c-13.75-5.392-26.703-0.345-32.882,13.162c-5.761,12.593-6.011,25.623-1.229,38.503c6.658,17.931,24.713,23.595,40.754,13.113
	c1.346-0.879,2.68-1.837,3.821-2.96c1.681-1.65,3.15-1.821,4.722,0.061c1.938,2.317-0.173,3.248-1.495,4.446
	C980.796,917.225,970.118,920.738,959.75,920.723z"/>
<path fill-rule="evenodd" clip-rule="evenodd" fill="#FFFFFF" d="M652.682,851.442c13.071-16.82,24.403-14.907,33.494-10.697
	c1.603,0.741,6.041,1.328,3.432,4.521c-1.782,2.183-2.777,7.561-8.382,4.239c-11.509-6.821-28.515,3.508-28.753,17.412
	c-0.255,14.809-0.278,29.631,0.063,44.437c0.116,4.998-1.392,7.426-6.226,6.007c-4.097-1.2-11.732,4.144-11.985-3.989
	c-0.711-22.87-0.201-45.779-0.292-68.672c-0.013-3.227,1.271-4.375,4.306-4.104c1.069,0.096,2.176,0.149,3.228-0.017
	C649.639,839.311,654.844,841.118,652.682,851.442z"/>
<path fill-rule="evenodd" clip-rule="evenodd" fill="#FFFFFF" d="M546.825,172.602c-2.806,3.813-3.936,8.011-3.758,12.803
	c0.268,7.257-0.135,14.539,0.144,21.795c0.175,4.552-0.719,6.806-6.067,6.78c-5.197-0.025-5.446-2.507-5.42-6.478
	c0.122-19.377,0.17-38.757-0.035-58.133c-0.046-4.353,0.861-6.119,5.673-6.07c4.618,0.046,6.139,1.42,5.856,5.984
	c-0.347,5.63-0.184,11.302-0.022,16.949c0.054,1.865-1.153,4.565,2.198,5.133C546.073,171.544,546.54,171.968,546.825,172.602z"/>
<path fill-rule="evenodd" clip-rule="evenodd" fill="#FFFFFF" d="M484.903,169.842c9.734-0.563,8.18-6.263,7.963-10.815
	c-0.191-4.011,1.524-5.155,5.237-4.95c3.085,0.171,6.465-0.146,5.688,4.389c-1.382,8.067,2.093,10.672,9.654,9.358
	c0.707-0.123,1.526,0.321,2.272,0.564c0.178,0.059,0.274,0.369,0.414,0.573c0.126,1.973-1.383,2.223-2.625,1.976
	c-8.62-1.716-10.515,2.377-9.773,10.119c0.692,7.217,0.195,14.541,0.436,21.811c0.153,4.653,2.048,8.497,6.851,9.901
	c4.544,1.328,8.005-0.452,9.756-4.819c1-2.495,1.982-1.704,3.377-0.571c2.071,1.682,1.514,3.113-0.271,4.548
	c-6.243,5.021-13.194,5.524-20.533,3.125c-6.315-2.065-9.876-6.583-10.18-13.134c-0.362-7.801-0.161-15.628-0.25-23.443
	C492.869,174.244,494.576,168.681,484.903,169.842z"/>
<path fill-rule="evenodd" clip-rule="evenodd" fill="#FFFFFF" d="M548.188,169.248c15.172-7.888,27.931-0.727,28.139,15.858
	c0.1,8.06-0.188,16.129,0.092,24.181c0.154,4.421-2.228,4.618-5.51,4.563c-3.188-0.052-5.836-0.024-5.737-4.516
	c0.195-8.863,0.195-17.738-0.049-26.599c-0.306-11.102-3.142-13.571-14.233-13.115C549.888,170.236,548.987,170.112,548.188,169.248
	z"/>
<path fill-rule="evenodd" clip-rule="evenodd" fill="#FFFFFF" d="M797.111,825.189c-6.415,0.023-11.101-4.523-11.328-10.994
	c-0.235-6.696,4.728-11.763,11.442-11.681c6.479,0.078,10.659,4.557,10.636,11.394C807.837,820.723,803.604,825.164,797.111,825.189
	z"/>
<path fill-rule="evenodd" clip-rule="evenodd" fill="#FFFFFF" d="M624.54,212.797c-0.635-0.503-1.271-1.006-1.905-1.51
	c4.246-2.63,6.777-7.063,11.151-9.769C632.705,206.812,629.426,210.407,624.54,212.797z"/>
<path fill-rule="evenodd" clip-rule="evenodd" fill="#FFFFFF" d="M548.188,169.248c0.9,0.125,1.801,0.249,2.702,0.373
	c-1.354,0.994-2.71,1.988-4.065,2.981c-0.477-0.412-0.954-0.824-1.431-1.236C545.899,170.098,546.815,169.371,548.188,169.248z"/>
<path fill-rule="evenodd" clip-rule="evenodd" fill="#FFFFFF" d="M468.396,682.635c0-75.81,0.091-151.619-0.15-227.428
	c-0.023-7.057,1.349-9.428,9.054-9.391c71.761,0.337,143.552,1.446,215.279-0.151c71.617-1.595,140.526,60.363,136.479,141.881
	c-3.463,69.748-62.833,127.513-132.768,127.526c-46.942,0.01-93.886,0.138-140.826-0.157c-6.438-0.04-7.957,1.739-7.934,8.008
	c0.233,62.589-0.06,125.18,0.373,187.767c0.06,8.759-2.582,10.449-10.648,10.222c-20.487-0.576-41.007-0.456-61.501-0.03
	c-6.151,0.128-7.519-1.58-7.501-7.581C468.47,836.412,468.396,759.523,468.396,682.635z M547.574,687.365
	c-0.029,5.131,1.143,6.866,6.646,6.801c26.417-0.312,52.842-0.299,79.262-0.101c35.825,0.269,65.737-12.741,88.89-40.048
	c30.017-35.401,36.096-75.925,18.226-117.806c-17.984-42.149-51.513-66.465-98.253-68.655c-29.055-1.361-58.222-0.199-87.332-0.651
	c-6.317-0.098-7.508,1.906-7.465,7.74c0.262,35.047,0.13,70.097,0.13,105.146C547.678,615.649,547.771,651.508,547.574,687.365z"/>
<path fill-rule="evenodd" clip-rule="evenodd" fill="#FFFFFF" d="M386.846,197.841c22.583,8.938,40.927,22.597,53.634,42.807
	c21.552,34.276,23.717,70.445,5.172,106.072c-19.125,36.743-50.489,56.952-92.609,57.328c-57.473,0.512-114.954,0.036-172.43,0.266
	c-5.908,0.023-7.665-1.215-7.654-7.451c0.208-119.811,0.209-239.623-0.001-359.434c-0.011-6.266,1.792-7.459,7.672-7.434
	c54.238,0.232,108.477,0.123,162.716,0.142c39.752,0.014,74.567,25.942,85.816,63.859c11.248,37.912-3.354,77.796-36.532,99.816
	C390.853,194.993,389.128,196.249,386.846,197.841z M236.118,378.399c-0.096,6.97,1.12,9.809,9.034,9.535
	c19.134-0.664,38.306-0.295,57.462-0.196c27.346,0.14,50.643-9.168,69.09-29.607c24.121-26.728,30.047-57.891,17.701-90.961
	c-12.332-33.031-37.21-53.324-72.853-57.24c-24.926-2.739-50.135-0.418-75.209-0.978c-5.543-0.123-5.109,3.091-5.103,6.755
	c0.05,27.521,0.028,55.041,0.027,82.562C236.267,324.979,236.486,351.692,236.118,378.399z M236.146,185.852
	c-0.063,5.017,1.319,6.393,6.307,6.32c19.154-0.286,38.318,0.082,57.474-0.159c37.09-0.467,68.043-31.518,70.187-70.128
	c1.987-35.783-27.118-70.105-63.126-74.155c-21.241-2.389-42.595-0.474-63.876-1.266c-6.044-0.225-7.02,2.106-6.956,7.438
	c0.264,21.854,0.11,43.713,0.11,65.57C236.268,141.6,236.427,163.729,236.146,185.852z"/>
<path fill-rule="evenodd" clip-rule="evenodd" fill="#FFFFFF" d="M1139.253,692.501c-35.191,25.695-83.781,19.99-111.36-10.808
	c-26.45-29.536-27.038-72.261-1.765-102.804c24.343-29.416,72.884-41.372,112.311-13.37c0.329-0.309,0.985-0.681,0.939-0.919
	c-1.636-8.608,2.575-10.565,10.232-9.649c8.191,0.981,19.241-3.52,23.924,1.898c4.064,4.702,1.336,15.41,1.345,23.464
	c0.052,46.146-0.88,92.317,0.279,138.436c1.171,46.608-25.741,67.878-60.801,74.698c-28.691,5.58-56.347,3.563-81.866-12.278
	c-8.067-5.009-8.045-5.045-1.462-11.641c0.572-0.572,1.229-1.084,1.701-1.729c4.106-5.613,7.1-6.09,12.563-0.25
	c22.25,23.79,58.397,24.807,78.401,2.827c9.832-10.803,14.476-24.046,15.386-38.285
	C1139.898,719.301,1139.253,706.418,1139.253,692.501z M1139.525,586.02c-0.007-2.619,0.413-5.201-1.829-7.53
	c-23.284-24.197-65.64-27.128-83.812,5.401c-13.35,23.9-14.147,49.339-6.684,75.176c13.428,46.478,60.35,47.92,87.346,24.551
	c3.563-3.084,5.213-6.169,5.109-10.974c-0.309-14.296-0.111-28.603-0.111-42.906C1139.545,615.165,1139.566,600.593,1139.525,586.02
	z"/>
<path fill-rule="evenodd" clip-rule="evenodd" fill="#FFFFFF" d="M941.174,692.588c-16.617,14.262-33.89,18.97-53.337,14.646
	c-15.177-3.374-27.181-11.273-31.012-27.176c-4.057-16.835,1.03-31.315,14.139-42.878c6.956-6.134,14.966-10.474,23.295-14.334
	c12.927-5.993,25.684-12.402,38.856-17.796c6.437-2.636,8.593-6.314,7.265-12.724c-0.817-3.943-1.139-8.038-2.392-11.831
	c-7.316-22.149-33.513-27.471-49.07-10.072c-3.816,4.269-6.285,9.351-8.627,14.656c-2.762-0.33-3.85-2.689-5.427-4.239
	c-10.474-10.287-10.585-10.536,1.702-18.676c21.235-14.069,44.288-16.289,67.942-7.945c21.005,7.41,30.79,24.146,31.283,45.541
	c0.759,32.885,0.125,65.802,0.301,98.703c0.023,4.295-1.26,5.567-5.446,5.36c-6.456-0.32-12.943-0.189-19.413-0.055
	C944.458,703.909,936.938,705.127,941.174,692.588z M902.4,636.76c-7.891,8.367-12.25,18.191-11.961,29.877
	c0.296,11.967,6.259,20.602,16.705,24.061c11.012,3.646,25.132-0.173,31.791-8.371c1.532-1.887,1.705-3.829,1.704-5.989
	c-0.003-20.725-0.001-41.45-0.001-63.321C925.913,619.221,912.77,625.764,902.4,636.76z"/>
<path fill-rule="evenodd" clip-rule="evenodd" fill="#FFFFFF" d="M682.059,285.518c-2.981-3.408-4.995-5.952-7.256-8.251
	c-7.104-7.221-7.139-7.186,0.5-13.542c19.858-16.522,54.144-20.437,77.092-8.466c17.81,9.29,25.646,25.028,25.924,44.355
	c0.465,32.357,0.052,64.726,0.22,97.088c0.023,4.374-0.866,6.279-5.675,5.955c-6.175-0.415-12.407-0.296-18.6-0.049
	c-7.121,0.285-14.394,1.162-10.373-11.917c-13.576,11.992-27.336,17.361-43.477,16.819c-18.229-0.612-34.908-10.619-40.135-24.967
	c-6.19-16.997-0.736-35.096,14.578-47.703c14.788-12.175,33.174-17.575,49.865-26.169c2.626-1.353,5.399-2.421,8.077-3.677
	c11.485-5.387,11.733-5.868,9.605-18.1c-2.828-16.254-11.779-25.852-26.022-27.897c-11.946-1.717-24.656,6.315-31.359,19.85
	C684.191,280.525,683.496,282.27,682.059,285.518z M704.97,335.448c-8.604,9.018-12.923,19.711-12.019,32.252
	c0.834,11.555,7.564,19.419,18.827,22.341c10.695,2.774,24.463-1.62,30.019-9.382c1.234-1.725,1.278-3.47,1.279-5.329
	c0.015-20.726,0.009-41.453,0.009-63.45C728.48,317.933,715.393,324.525,704.97,335.448z"/>
<path fill-rule="evenodd" clip-rule="evenodd" fill="#FFFFFF" d="M1410.499,587.301c-2.13-2.926-3.34-5.116-5.033-6.83
	c-9.841-9.954-10.016-10.12,2.067-18.198c21.197-14.172,44.263-16.386,67.924-8.129c21.007,7.33,30.927,24.021,31.437,45.433
	c0.783,32.884,0.104,65.801,0.338,98.702c0.036,4.968-1.855,5.738-6.093,5.54c-6.459-0.302-12.951-0.306-19.412-0.018
	c-6.939,0.311-13.438,0.652-8.388-12.272c-10.408,8.437-19.012,13.948-29.388,15.942c-9.976,1.916-19.861,1.92-29.514-1.327
	c-13.24-4.453-23.6-12.352-26.704-26.676c-3.53-16.288,1.241-30.374,13.573-41.678c7.017-6.43,15.303-10.92,23.894-14.886
	c13.914-6.424,27.743-13.037,41.756-19.233c3.861-1.706,5.104-3.814,4.789-7.937c-0.392-5.136-0.848-10.245-2.546-15.076
	c-3.733-10.621-10.619-17.933-22.168-20.039c-11.208-2.045-19.967,2.372-27.356,10.316
	C1415.802,575.099,1413.516,580.286,1410.499,587.301z M1431.671,638.82c-7.112,8.29-10.647,17.945-10.104,28.97
	c0.579,11.761,6.893,19.978,17.819,23.162c10.967,3.197,24.836-0.88,30.886-8.894c1.262-1.672,1.48-3.367,1.479-5.259
	c-0.001-20.977-0.001-41.952-0.001-63.813C1456.402,619.509,1442.289,626.447,1431.671,638.82z"/>
<path fill-rule="evenodd" clip-rule="evenodd" fill="#FFFFFF" d="M629.093,359.007c-12.972,27.604-33.587,44.444-63.591,48.09
	c-41.667,5.063-79.029-22.363-87.5-63.365c-9.286-44.951,22.711-89.451,68.144-94.767c45.909-5.372,86.442,28.7,89.094,74.465
	c0.448,7.725-1.51,9.824-9.458,9.714c-35.615-0.493-71.24-0.101-106.86-0.332c-5.614-0.036-7.346,0.983-6.563,7.095
	c1.486,11.597,3.466,22.942,9.292,33.201c11.614,20.452,31.917,28.521,54.439,21.95c16.86-4.919,29.843-14.99,38.233-30.275
	C617.668,358.685,621.502,356.764,629.093,359.007z M593.738,322.983c3.586,0.025,6.173,0.069,5.635-5.053
	c-1.84-17.525-6.858-33.749-18.853-47.049c-14.901-16.525-35.995-16-50.351,1.072c-10.939,13.009-15.802,28.428-17.763,45.082
	c-0.575,4.88,0.778,6.085,5.417,5.997c12.648-0.241,25.304-0.083,37.957-0.083C568.432,322.948,581.086,322.894,593.738,322.983z"/>
<path fill-rule="evenodd" clip-rule="evenodd" fill="#FFFFFF" d="M1302.337,634.111c-18.62,0-37.241,0.096-55.86-0.071
	c-4.314-0.038-6.105,0.577-5.573,5.732c1.811,17.533,5.588,34.166,19.048,46.788c14.378,13.484,31.116,14.732,48.933,8.371
	c15.072-5.382,26.382-15.371,34.423-29.136c0.813-1.395,1.44-2.911,2.356-4.23c2.765-3.985,7.404-3.13,10.23-1.752
	c3.275,1.596-0.273,4.739-1.313,6.754c-17.316,33.583-55.615,49.614-92.729,39c-35.341-10.108-59.139-44.757-56.228-81.866
	c3.079-39.248,33.904-71.212,71.099-73.727c41.751-2.821,76.563,22.497,85.424,62.132c4.779,21.381,4.3,22.005-16.903,22.005
	C1330.941,634.111,1316.639,634.111,1302.337,634.111z M1322.479,624.216c4.638,0.092,5.977-1.114,5.452-5.98
	c-1.801-16.694-6.715-32.11-17.711-45.033c-15.193-17.856-37.195-17.542-51.968,0.596c-10.722,13.166-15.423,28.646-17.282,45.297
	c-0.581,5.198,2.041,5.085,5.595,5.063c12.651-0.072,25.306-0.028,37.957-0.028C1297.175,624.13,1309.83,623.968,1322.479,624.216z"
	/>
<path fill-rule="evenodd" clip-rule="evenodd" fill="#FFFFFF" d="M731.629,920.721c-22.827-0.046-40.817-18.202-40.845-41.221
	c-0.028-23.374,18.081-41.413,41.52-41.358c22.667,0.053,40.966,18.443,41.021,41.222
	C773.382,902.371,754.835,920.769,731.629,920.721z M744.281,849.624c-7.863-8.312-17.605-8.092-25.197,0.321
	c-13.108,14.527-13.043,44.751,0.128,59.109c7.442,8.113,16.936,8.447,24.631,0.624c8.267-8.403,10.833-18.907,10.609-30.339
	C754.678,868.191,752.145,857.937,744.281,849.624z"/>
<path fill-rule="evenodd" clip-rule="evenodd" fill="#FFFFFF" d="M872.234,882.126c-8.904,0.002-17.814,0.196-26.709-0.079
	c-4.549-0.141-5.897,1.435-4.581,5.666c0.318,1.02,0.366,2.122,0.559,3.184c2.122,11.655,7.209,21.272,19.754,23.841
	c11.956,2.446,21.3-2.982,29.2-11.736c2.579-2.857,3.869-10.677,8.461-7.146c3.899,2.998-2.226,7.688-4.844,10.831
	c-12.543,15.067-34.26,18.687-51.355,8.944c-17.048-9.717-25.021-30.824-18.745-49.629c6.347-19.021,25.598-30.605,45.895-27.619
	c18.323,2.695,33.482,19.696,34.603,38.533c0.223,3.738-0.616,5.384-4.716,5.281C890.587,881.965,881.409,882.125,872.234,882.126z
	 M844.791,876.986c12.135,0.024,24.272-0.111,36.404,0.091c3.707,0.062,4.641-1.24,4.121-4.673
	c-1.191-7.85-3.459-15.265-8.612-21.457c-8.499-10.21-19.935-9.923-27.887,0.709c-5.321,7.112-7.581,15.354-8.298,24.992
	C842.148,876.784,843.47,876.985,844.791,876.986z"/>
<path fill-rule="evenodd" clip-rule="evenodd" fill="#FFFFFF" d="M624.54,212.797c-11.502,5.723-22.1,4.454-30.396-3.641
	c-7.712-7.525-9.813-19.572-5.06-29.018c4.77-9.478,15.854-15.388,26.078-13.904c10.767,1.563,19.356,10.271,21.645,21.167
	c1.076,5.121-0.232,6.597-5.438,6.385c-9.406-0.383-18.851,0.166-28.257-0.216c-5.17-0.209-5.63,1.654-4.639,6.047
	c2.646,11.727,10.556,15.677,24.162,11.671C624.318,210.466,624.528,211.506,624.54,212.797z M622.659,190.443
	c2.271,0.031,3.598-0.625,3.017-3.242c-1.226-5.529-2.538-11.015-7.014-15.007c-3.871-3.452-8.123-4.121-12.407-0.988
	c-5.88,4.299-8.824,10.863-7.932,17.489c0.531,3.945,6.464,0.891,9.861,1.706c1.015,0.244,2.137,0.038,3.209,0.033
	C615.149,190.43,618.904,190.392,622.659,190.443z"/>
</svg>
