<?xml version="1.0" encoding="utf-8"?>
<!-- Generator: Adobe Illustrator 16.0.3, SVG Export Plug-In . SVG Version: 6.00 Build 0)  -->
<!DOCTYPE svg PUBLIC "-//W3C//DTD SVG 1.1//EN" "http://www.w3.org/Graphics/SVG/1.1/DTD/svg11.dtd">
<svg version="1.1" id="Capa_1" xmlns="http://www.w3.org/2000/svg" xmlns:xlink="http://www.w3.org/1999/xlink" x="0px" y="0px"
	 width="2016px" height="2016px" viewBox="0 0 2016 2016" enable-background="new 0 0 2016 2016" xml:space="preserve">
<g>
	
		<linearGradient id="SVGID_1_" gradientUnits="userSpaceOnUse" x1="-804.457" y1="842.209" x2="-805.7485" y2="840.8741" gradientTransform="matrix(-184.6769 212.2024 236.4594 205.7876 -346905.4688 -1958.979)">
		<stop  offset="0.4607" style="stop-color:#680D81"/>
		<stop  offset="1" style="stop-color:#F01787"/>
	</linearGradient>
	<path fill="url(#SVGID_1_)" d="M1269.742,580.104c60.207,0.293,113.773-23.718,151.721-62.778
		c37.932-39.062,60.236-93.165,57.922-153.056c-2.305-59.89-28.813-114.227-69.771-153.661
		c-40.977-39.443-96.426-63.977-156.631-64.266l-989.138-4.733c-60.203-0.285-113.772,23.739-151.706,62.79
		C74.2,243.46,51.895,297.56,54.207,357.451c2.32,59.894,28.823,114.229,69.797,153.664c40.965,39.429,96.411,63.967,156.617,64.257
		l989.125,4.718L1269.742,580.104z"/>
	
		<linearGradient id="SVGID_2_" gradientUnits="userSpaceOnUse" x1="-804.457" y1="842.209" x2="-805.7485" y2="840.8741" gradientTransform="matrix(-184.6769 212.2024 236.4594 205.7876 -346905.4688 -1958.979)">
		<stop  offset="0" style="stop-color:#000000;stop-opacity:0.6"/>
		<stop  offset="0.3613" style="stop-color:#000000;stop-opacity:0"/>
	</linearGradient>
	<path fill="url(#SVGID_2_)" d="M1269.74,580.104c60.207,0.29,113.775-23.718,151.723-62.778
		c37.932-39.062,60.236-93.165,57.922-153.056c-2.305-59.888-28.813-114.227-69.771-153.66
		c-40.977-39.445-96.426-63.979-156.631-64.268l-989.138-4.733c-60.203-0.285-113.774,23.739-151.706,62.791
		c-37.939,39.06-60.244,93.158-57.932,153.05c2.32,59.894,28.821,114.229,69.795,153.661
		c40.967,39.432,96.413,63.967,156.618,64.261l989.126,4.718L1269.74,580.104z"/>
	
		<radialGradient id="SVGID_3_" cx="1266.2666" cy="-500.4038" r="258.7878" gradientTransform="matrix(2.528 0 0 0.3462 -2434.8115 404.4707)" gradientUnits="userSpaceOnUse">
		<stop  offset="0.1518" style="stop-color:#FFFFFF;stop-opacity:0.4"/>
		<stop  offset="1" style="stop-color:#FFFFFF;stop-opacity:0"/>
	</radialGradient>
	<path fill="url(#SVGID_3_)" d="M1420.592,231.21c0,49.489-292.908,89.603-654.224,89.603c-361.321,0-654.229-40.114-654.229-89.603
		c0-49.486,292.908-89.602,654.229-89.602C1127.684,141.608,1420.592,181.725,1420.592,231.21z"/>
</g>
<g>
	
		<linearGradient id="SVGID_4_" gradientUnits="userSpaceOnUse" x1="-808.8853" y1="840.7256" x2="-809.2964" y2="840.3007" gradientTransform="matrix(212.2024 184.6769 205.7875 -236.4594 -1175.229 349268.8125)">
		<stop  offset="0.4607" style="stop-color:#680D81"/>
		<stop  offset="1" style="stop-color:#F01787"/>
	</linearGradient>
	<path fill="url(#SVGID_4_)" d="M166.038,941.33c0.094-19.21-7.566-36.3-20.029-48.408c-12.463-12.102-29.725-19.218-48.834-18.48
		c-19.107,0.735-36.445,9.192-49.027,22.262c-12.584,13.073-20.412,30.765-20.504,49.974l-1.51,315.592
		c-0.092,19.208,7.574,36.3,20.033,48.402c12.463,12.104,29.723,19.222,48.832,18.484c19.109-0.74,36.445-9.196,49.027-22.27
		c12.58-13.071,20.41-30.761,20.502-49.971l1.506-315.587L166.038,941.33z"/>
	
		<linearGradient id="SVGID_5_" gradientUnits="userSpaceOnUse" x1="93.1118" y1="1188.9355" x2="93.1118" y2="1327.709" gradientTransform="matrix(1 0 0 1 0.5864 1.4141)">
		<stop  offset="0.4241" style="stop-color:#000000;stop-opacity:0"/>
		<stop  offset="1" style="stop-color:#000000;stop-opacity:0.6"/>
	</linearGradient>
	<circle fill="url(#SVGID_5_)" cx="93.698" cy="1259.736" r="69.387"/>
	
		<radialGradient id="SVGID_6_" cx="863.1675" cy="1527.5234" r="28.8171" gradientTransform="matrix(1.8548 0 0 1.1174 -1504.9485 -800.2031)" gradientUnits="userSpaceOnUse">
		<stop  offset="0.1518" style="stop-color:#FFFFFF;stop-opacity:0.4"/>
		<stop  offset="1" style="stop-color:#FFFFFF;stop-opacity:0"/>
	</radialGradient>
	<ellipse fill="url(#SVGID_6_)" cx="96.086" cy="906.589" rx="53.45" ry="32.198"/>
</g>
<g>
	
		<linearGradient id="SVGID_7_" gradientUnits="userSpaceOnUse" x1="-806.1533" y1="843.3081" x2="-807.5076" y2="841.9083" gradientTransform="matrix(212.2024 184.6769 205.7875 -236.4594 -1175.229 349268.8125)">
		<stop  offset="0.4607" style="stop-color:#680D81"/>
		<stop  offset="1" style="stop-color:#F01787"/>
	</linearGradient>
	<path fill="url(#SVGID_7_)" d="M1226.567,497.985c0.306-63.128-24.868-119.292-65.824-159.082
		c-40.958-39.772-97.686-63.158-160.48-60.731c-62.796,2.416-119.771,30.208-161.117,73.159
		c-41.356,42.962-67.079,101.102-67.384,164.228l-4.963,1037.125c-0.299,63.123,24.892,119.291,65.836,159.064
		c40.955,39.779,97.68,63.166,160.476,60.744c62.802-2.434,119.771-30.223,161.119-73.186
		c41.343-42.953,67.071-101.088,67.377-164.215l4.947-1037.11L1226.567,497.985z"/>
	
		<linearGradient id="SVGID_8_" gradientUnits="userSpaceOnUse" x1="988.2485" y1="1314.9199" x2="988.2485" y2="1770.9688" gradientTransform="matrix(1 0 0 1 0.5864 1.4141)">
		<stop  offset="0.4241" style="stop-color:#000000;stop-opacity:0"/>
		<stop  offset="1" style="stop-color:#000000;stop-opacity:0.6"/>
	</linearGradient>
	<circle fill="url(#SVGID_8_)" cx="988.835" cy="1544.357" r="228.024"/>
	
		<radialGradient id="SVGID_9_" cx="1348.708" cy="261.9629" r="94.7002" gradientTransform="matrix(2.2297 0 0 1.4552 -2001.4962 34.6017)" gradientUnits="userSpaceOnUse">
		<stop  offset="0.1518" style="stop-color:#FFFFFF;stop-opacity:0.4"/>
		<stop  offset="1" style="stop-color:#FFFFFF;stop-opacity:0"/>
	</radialGradient>
	<ellipse fill="url(#SVGID_9_)" cx="1005.708" cy="415.806" rx="211.152" ry="137.808"/>
</g>
<g>
	
		<linearGradient id="SVGID_10_" gradientUnits="userSpaceOnUse" x1="-801.7729" y1="842.6802" x2="-802.0609" y2="842.3826" gradientTransform="matrix(-184.6769 212.2024 236.4594 205.7876 -346905.4688 -1958.979)">
		<stop  offset="0.4607" style="stop-color:#680D81"/>
		<stop  offset="1" style="stop-color:#F01787"/>
	</linearGradient>
	<path fill="url(#SVGID_10_)" d="M526.264,1300.39c13.424,0.065,25.367-5.287,33.827-13.996
		c8.458-8.709,13.431-20.772,12.914-34.125c-0.514-13.354-6.423-25.468-15.556-34.26c-9.136-8.795-21.499-14.264-34.922-14.328
		l-220.535-1.056c-13.423-0.063-25.366,5.292-33.824,13.999c-8.458,8.709-13.432,20.771-12.916,34.123
		c0.518,13.355,6.426,25.469,15.562,34.262c9.134,8.791,21.496,14.262,34.919,14.326l220.532,1.053L526.264,1300.39z"/>
	
		<linearGradient id="SVGID_11_" gradientUnits="userSpaceOnUse" x1="-801.7729" y1="842.6802" x2="-802.0609" y2="842.3826" gradientTransform="matrix(-184.6769 212.2024 236.4594 205.7876 -346905.4688 -1958.979)">
		<stop  offset="0" style="stop-color:#000000;stop-opacity:0.6"/>
		<stop  offset="0.3613" style="stop-color:#000000;stop-opacity:0"/>
	</linearGradient>
	<path fill="url(#SVGID_11_)" d="M526.264,1300.39c13.424,0.064,25.367-5.287,33.827-13.996
		c8.458-8.709,13.431-20.771,12.914-34.125c-0.514-13.354-6.423-25.468-15.556-34.26c-9.136-8.795-21.499-14.264-34.922-14.328
		l-220.535-1.056c-13.423-0.063-25.367,5.292-33.824,13.999c-8.458,8.709-13.432,20.771-12.916,34.123
		c0.518,13.355,6.426,25.469,15.562,34.261c9.134,8.792,21.496,14.263,34.919,14.327l220.532,1.053L526.264,1300.39z"/>
	<linearGradient id="SVGID_12_" gradientUnits="userSpaceOnUse" x1="412.9941" y1="1190.7451" x2="412.9941" y2="1263.6074">
		<stop  offset="0.2827" style="stop-color:#FFFFFF;stop-opacity:0"/>
		<stop  offset="0.5079" style="stop-color:#FFFFFF;stop-opacity:0.4"/>
		<stop  offset="0.733" style="stop-color:#FFFFFF;stop-opacity:0"/>
	</linearGradient>
	<ellipse fill="url(#SVGID_12_)" cx="412.994" cy="1227.177" rx="151.883" ry="36.431"/>
</g>
<g>
	
		<linearGradient id="SVGID_13_" gradientUnits="userSpaceOnUse" x1="-802.8135" y1="844.4048" x2="-804.3364" y2="842.8307" gradientTransform="matrix(-184.6769 212.2024 236.4594 205.7876 -346905.4688 -1958.979)">
		<stop  offset="0.4607" style="stop-color:#680D81"/>
		<stop  offset="1" style="stop-color:#F01787"/>
	</linearGradient>
	<path fill="url(#SVGID_13_)" d="M1568.012,1367.94c70.953,0.346,134.082-27.951,178.803-73.984
		c44.703-46.034,70.988-109.795,68.262-180.376c-2.717-70.58-33.955-134.617-82.229-181.09
		c-48.289-46.484-113.637-75.397-184.588-75.738l-1165.703-5.578c-70.948-0.336-134.08,27.977-178.785,73.998
		c-44.71,46.032-70.997,109.788-68.274,180.37c2.734,70.585,33.969,134.619,82.257,181.094
		c48.278,46.467,113.621,75.386,184.574,75.728l1165.686,5.561L1568.012,1367.94z"/>
	
		<linearGradient id="SVGID_14_" gradientUnits="userSpaceOnUse" x1="-802.8135" y1="844.4048" x2="-804.3364" y2="842.8307" gradientTransform="matrix(-184.6769 212.2024 236.4594 205.7876 -346905.4688 -1958.979)">
		<stop  offset="0" style="stop-color:#000000;stop-opacity:0.6"/>
		<stop  offset="0.3613" style="stop-color:#000000;stop-opacity:0"/>
	</linearGradient>
	<path fill="url(#SVGID_14_)" d="M1568.01,1367.94c70.953,0.342,134.084-27.951,178.805-73.984
		c44.703-46.034,70.988-109.795,68.26-180.376c-2.715-70.578-33.953-134.617-82.227-181.089
		c-48.289-46.485-113.637-75.398-184.588-75.739l-1165.703-5.578c-70.948-0.336-134.082,27.977-178.785,73.999
		c-44.71,46.032-70.997,109.787-68.274,180.369c2.734,70.585,33.967,134.619,82.255,181.09
		c48.28,46.471,113.623,75.386,184.574,75.731l1165.688,5.561L1568.01,1367.94z"/>
	
		<radialGradient id="SVGID_15_" cx="1348.709" cy="1595.1328" r="304.9819" gradientTransform="matrix(2.528 0 0 0.3462 -2434.8115 404.4707)" gradientUnits="userSpaceOnUse">
		<stop  offset="0.1518" style="stop-color:#FFFFFF;stop-opacity:0.4"/>
		<stop  offset="1" style="stop-color:#FFFFFF;stop-opacity:0"/>
	</radialGradient>
	<path fill="url(#SVGID_15_)" d="M1745.787,956.769c0,58.322-345.192,105.598-771.004,105.598
		c-425.817,0-771.01-47.275-771.01-105.598c0-58.32,345.193-105.597,771.01-105.597
		C1400.595,851.172,1745.787,898.449,1745.787,956.769z"/>
</g>
<g>
	
		<linearGradient id="SVGID_16_" gradientUnits="userSpaceOnUse" x1="-803.6084" y1="844.3389" x2="-804.9635" y2="842.9383" gradientTransform="matrix(212.2024 184.6769 205.7875 -236.4594 -1175.229 349268.8125)">
		<stop  offset="0.4607" style="stop-color:#680D81"/>
		<stop  offset="1" style="stop-color:#F01787"/>
	</linearGradient>
	<path fill="url(#SVGID_16_)" d="M1978.664,724.16c0.306-63.128-24.868-119.292-65.824-159.082
		c-40.958-39.772-97.686-63.158-160.48-60.731c-62.796,2.416-119.771,30.208-161.117,73.159
		c-41.356,42.962-67.079,101.102-67.384,164.228l-4.963,1037.125c-0.299,63.122,24.892,119.29,65.836,159.064
		c40.955,39.778,97.68,63.166,160.476,60.743c62.802-2.433,119.771-30.223,161.119-73.185
		c41.343-42.953,67.071-101.088,67.377-164.216l4.947-1037.11L1978.664,724.16z"/>
	
		<linearGradient id="SVGID_17_" gradientUnits="userSpaceOnUse" x1="1740.3457" y1="1541.0947" x2="1740.3457" y2="1997.1436" gradientTransform="matrix(1 0 0 1 0.5864 1.4141)">
		<stop  offset="0.4241" style="stop-color:#000000;stop-opacity:0"/>
		<stop  offset="1" style="stop-color:#000000;stop-opacity:0.6"/>
	</linearGradient>
	<circle fill="url(#SVGID_17_)" cx="1740.932" cy="1770.533" r="228.024"/>
	
		<radialGradient id="SVGID_18_" cx="1758.2295" cy="798.3101" r="94.7002" gradientTransform="matrix(1.8548 0 0 1.1448 -1504.9485 -301.3131)" gradientUnits="userSpaceOnUse">
		<stop  offset="0.1518" style="stop-color:#FFFFFF;stop-opacity:0.4"/>
		<stop  offset="1" style="stop-color:#FFFFFF;stop-opacity:0"/>
	</radialGradient>
	<ellipse fill="url(#SVGID_18_)" cx="1756.279" cy="612.587" rx="175.653" ry="108.413"/>
</g>
<g>
	
		<linearGradient id="SVGID_19_" gradientUnits="userSpaceOnUse" x1="-803.3916" y1="846.3379" x2="-803.8322" y2="845.8825" gradientTransform="matrix(-184.6769 212.2024 236.4594 205.7876 -346905.4688 -1958.979)">
		<stop  offset="0.4607" style="stop-color:#680D81"/>
		<stop  offset="1" style="stop-color:#F01787"/>
	</linearGradient>
	<path fill="url(#SVGID_19_)" d="M1803.559,1699.673c27.584,0.099,52.126-7.894,69.512-20.896
		c17.379-13.002,27.598-31.01,26.538-50.944c-1.056-19.935-13.2-38.021-31.968-51.146c-18.773-13.129-44.178-21.295-71.762-21.391
		l-453.187-1.576c-27.583-0.095-52.125,7.902-69.506,20.9c-17.381,13-27.601,31.008-26.542,50.941
		c1.063,19.936,13.206,38.021,31.979,51.147c18.77,13.124,44.172,21.292,71.757,21.388l453.18,1.571L1803.559,1699.673z"/>
	
		<linearGradient id="SVGID_20_" gradientUnits="userSpaceOnUse" x1="-803.3916" y1="846.3379" x2="-803.8322" y2="845.8825" gradientTransform="matrix(-184.6769 212.2024 236.4594 205.7876 -346905.4688 -1958.979)">
		<stop  offset="0" style="stop-color:#000000;stop-opacity:0.6"/>
		<stop  offset="0.3613" style="stop-color:#000000;stop-opacity:0"/>
	</linearGradient>
	<path fill="url(#SVGID_20_)" d="M1803.557,1699.673c27.584,0.097,52.128-7.894,69.514-20.896
		c17.379-13.002,27.598-31.01,26.537-50.944c-1.055-19.934-13.199-38.021-31.967-51.146c-18.773-13.129-44.178-21.295-71.762-21.391
		l-453.187-1.576c-27.583-0.095-52.126,7.902-69.506,20.9c-17.381,13.001-27.601,31.008-26.542,50.941
		c1.063,19.936,13.205,38.021,31.979,51.146c18.77,13.125,44.172,21.291,71.756,21.389l453.181,1.571L1803.557,1699.673z"/>
	
		<radialGradient id="SVGID_21_" cx="1562.166" cy="5793.5186" r="134.2271" gradientTransform="matrix(2.2331 0 0 0.2222 -1915.5387 296.2731)" gradientUnits="userSpaceOnUse">
		<stop  offset="0.1518" style="stop-color:#FFFFFF;stop-opacity:0.4"/>
		<stop  offset="1" style="stop-color:#FFFFFF;stop-opacity:0"/>
	</radialGradient>
	<ellipse fill="url(#SVGID_21_)" cx="1572.929" cy="1583.545" rx="299.742" ry="29.824"/>
</g>
<g>
	
		<linearGradient id="SVGID_22_" gradientUnits="userSpaceOnUse" x1="-800.8916" y1="845.1753" x2="-801.826" y2="844.2095" gradientTransform="matrix(-184.6769 212.2024 236.4594 205.7876 -346905.4688 -1958.979)">
		<stop  offset="0.4607" style="stop-color:#680D81"/>
		<stop  offset="1" style="stop-color:#F01787"/>
	</linearGradient>
	<path fill="url(#SVGID_22_)" d="M1185.12,1966.26c43.584,0.213,82.361-17.169,109.832-45.445
		c27.46-28.277,43.605-67.443,41.931-110.799c-1.669-43.355-20.857-82.691-50.51-111.238
		c-29.663-28.553-69.804-46.313-113.386-46.522l-716.051-3.427c-43.582-0.205-82.361,17.186-109.822,45.455
		c-27.463,28.275-43.61,67.439-41.938,110.795c1.68,43.357,20.865,82.691,50.527,111.24c29.656,28.543,69.793,46.307,113.378,46.516
		l716.04,3.416L1185.12,1966.26z"/>
	
		<linearGradient id="SVGID_23_" gradientUnits="userSpaceOnUse" x1="-800.8916" y1="845.1753" x2="-801.826" y2="844.2095" gradientTransform="matrix(-184.6769 212.2024 236.4594 205.7876 -346905.4688 -1958.979)">
		<stop  offset="0" style="stop-color:#000000;stop-opacity:0.6"/>
		<stop  offset="0.3613" style="stop-color:#000000;stop-opacity:0"/>
	</linearGradient>
	<path fill="url(#SVGID_23_)" d="M1185.118,1966.26c43.584,0.211,82.363-17.169,109.834-45.445
		c27.46-28.277,43.605-67.443,41.93-110.799c-1.668-43.354-20.856-82.691-50.509-111.236
		c-29.663-28.555-69.804-46.314-113.386-46.524l-716.051-3.427c-43.582-0.205-82.362,17.186-109.822,45.455
		c-27.463,28.277-43.61,67.439-41.938,110.795c1.68,43.357,20.864,82.691,50.526,111.237
		c29.657,28.546,69.794,46.308,113.378,46.519l716.041,3.416L1185.118,1966.26z"/>
	
		<radialGradient id="SVGID_24_" cx="1287.7676" cy="3781.2559" r="187.3399" gradientTransform="matrix(2.528 0 0 0.3462 -2434.8115 404.4707)" gradientUnits="userSpaceOnUse">
		<stop  offset="0.1518" style="stop-color:#FFFFFF;stop-opacity:0.4"/>
		<stop  offset="1" style="stop-color:#FFFFFF;stop-opacity:0"/>
	</radialGradient>
	<ellipse fill="url(#SVGID_24_)" cx="820.718" cy="1713.691" rx="473.604" ry="64.865"/>
</g>
<g>
	
		<linearGradient id="SVGID_25_" gradientUnits="userSpaceOnUse" x1="-804.9443" y1="841.2905" x2="-805.3563" y2="840.8647" gradientTransform="matrix(212.2024 184.6769 205.7875 -236.4594 -1175.229 349268.8125)">
		<stop  offset="0.4607" style="stop-color:#680D81"/>
		<stop  offset="1" style="stop-color:#F01787"/>
	</linearGradient>
	<path fill="url(#SVGID_25_)" d="M1118.387,1535.615c0.094-19.21-7.566-36.301-20.029-48.408
		c-12.463-12.102-29.725-19.219-48.834-18.48c-19.107,0.735-36.445,9.193-49.027,22.262c-12.584,13.074-20.412,30.766-20.505,49.975
		l-1.51,315.592c-0.091,19.208,7.574,36.3,20.033,48.402c12.463,12.104,29.723,19.222,48.833,18.484
		c19.109-0.74,36.445-9.196,49.027-22.27c12.58-13.071,20.41-30.761,20.502-49.971l1.506-315.588L1118.387,1535.615z"/>
	
		<linearGradient id="SVGID_26_" gradientUnits="userSpaceOnUse" x1="1045.4609" y1="1783.2207" x2="1045.4609" y2="1921.9941" gradientTransform="matrix(1 0 0 1 0.5864 1.4141)">
		<stop  offset="0.4241" style="stop-color:#000000;stop-opacity:0"/>
		<stop  offset="1" style="stop-color:#000000;stop-opacity:0.6"/>
	</linearGradient>
	<circle fill="url(#SVGID_26_)" cx="1046.047" cy="1854.021" r="69.387"/>
	
		<radialGradient id="SVGID_27_" cx="1376.6094" cy="2956.8535" r="28.8164" gradientTransform="matrix(1.8548 0 0 1.3958 -1504.9485 -2618.374)" gradientUnits="userSpaceOnUse">
		<stop  offset="0.1518" style="stop-color:#FFFFFF;stop-opacity:0.4"/>
		<stop  offset="1" style="stop-color:#FFFFFF;stop-opacity:0"/>
	</radialGradient>
	<ellipse fill="url(#SVGID_27_)" cx="1048.434" cy="1508.898" rx="53.45" ry="40.221"/>
</g>
<g>
	
		<linearGradient id="SVGID_28_" gradientUnits="userSpaceOnUse" x1="-806.5947" y1="840.2944" x2="-807.0067" y2="839.8687" gradientTransform="matrix(212.2024 184.6769 205.7875 -236.4594 -1175.229 349268.8125)">
		<stop  offset="0.4607" style="stop-color:#680D81"/>
		<stop  offset="1" style="stop-color:#F01787"/>
	</linearGradient>
	<path fill="url(#SVGID_28_)" d="M563.274,1466.229c0.094-19.21-7.566-36.301-20.029-48.408
		c-12.463-12.102-29.725-19.219-48.834-18.48c-19.107,0.735-36.445,9.193-49.027,22.262c-12.584,13.074-20.412,30.766-20.504,49.975
		l-1.51,315.592c-0.092,19.208,7.574,36.3,20.033,48.402c12.463,12.104,29.723,19.222,48.832,18.484
		c19.109-0.74,36.445-9.196,49.027-22.27c12.58-13.071,20.41-30.761,20.502-49.971l1.506-315.588L563.274,1466.229z"/>
	
		<linearGradient id="SVGID_29_" gradientUnits="userSpaceOnUse" x1="490.3481" y1="1713.834" x2="490.3481" y2="1852.6074" gradientTransform="matrix(1 0 0 1 0.5864 1.4141)">
		<stop  offset="0.4241" style="stop-color:#000000;stop-opacity:0"/>
		<stop  offset="1" style="stop-color:#000000;stop-opacity:0.6"/>
	</linearGradient>
	<circle fill="url(#SVGID_29_)" cx="490.935" cy="1784.635" r="69.387"/>
	
		<radialGradient id="SVGID_30_" cx="1079.4883" cy="2787.2402" r="28.8164" gradientTransform="matrix(1.8548 0 0 1.3158 -1504.9485 -2230.2075)" gradientUnits="userSpaceOnUse">
		<stop  offset="0.1518" style="stop-color:#FFFFFF;stop-opacity:0.4"/>
		<stop  offset="1" style="stop-color:#FFFFFF;stop-opacity:0"/>
	</radialGradient>
	<ellipse fill="url(#SVGID_30_)" cx="497.322" cy="1437.204" rx="53.45" ry="37.915"/>
</g>
<g>
	
		<linearGradient id="SVGID_31_" gradientUnits="userSpaceOnUse" x1="-807.0659" y1="843.9302" x2="-807.3697" y2="843.6162" gradientTransform="matrix(-184.6769 212.2024 236.4594 205.7876 -346905.4688 -1958.979)">
		<stop  offset="0.4607" style="stop-color:#680D81"/>
		<stop  offset="1" style="stop-color:#F01787"/>
	</linearGradient>
	<path fill="url(#SVGID_31_)" d="M1804.979,433.538c14.169,0.069,26.774-5.582,35.704-14.773
		c8.927-9.192,14.176-21.924,13.631-36.018c-0.542-14.094-6.78-26.881-16.42-36.161c-9.643-9.282-22.691-15.056-36.858-15.124
		l-232.772-1.114c-14.167-0.067-26.772,5.586-35.7,14.776c-8.928,9.192-14.177,21.923-13.633,36.017
		c0.546,14.095,6.782,26.881,16.425,36.162c9.641,9.279,22.688,15.053,36.856,15.122l232.769,1.11L1804.979,433.538z"/>
	
		<linearGradient id="SVGID_32_" gradientUnits="userSpaceOnUse" x1="-807.0659" y1="843.9302" x2="-807.3697" y2="843.6162" gradientTransform="matrix(-184.6769 212.2024 236.4594 205.7876 -346905.4688 -1958.979)">
		<stop  offset="0" style="stop-color:#000000;stop-opacity:0.6"/>
		<stop  offset="0.3613" style="stop-color:#000000;stop-opacity:0"/>
	</linearGradient>
	<path fill="url(#SVGID_32_)" d="M1804.979,433.538c14.168,0.068,26.774-5.582,35.704-14.773
		c8.927-9.192,14.176-21.924,13.631-36.018c-0.542-14.093-6.78-26.881-16.42-36.16c-9.643-9.283-22.691-15.056-36.858-15.124
		l-232.772-1.114c-14.167-0.067-26.773,5.586-35.7,14.776c-8.928,9.192-14.177,21.923-13.633,36.017
		c0.546,14.095,6.782,26.881,16.425,36.161c9.641,9.279,22.688,15.053,36.856,15.122l232.769,1.11L1804.979,433.538z"/>
	
		<radialGradient id="SVGID_33_" cx="1630.2461" cy="-153.1797" r="60.9004" gradientTransform="matrix(2.528 0 0 0.3462 -2434.8115 404.4707)" gradientUnits="userSpaceOnUse">
		<stop  offset="0.1518" style="stop-color:#FFFFFF;stop-opacity:0.4"/>
		<stop  offset="1" style="stop-color:#FFFFFF;stop-opacity:0"/>
	</radialGradient>
	<ellipse fill="url(#SVGID_33_)" cx="1686.521" cy="351.434" rx="153.958" ry="21.086"/>
</g>
</svg>
