<?xml version="1.0" encoding="utf-8"?>
<!-- Generator: Adobe Illustrator 16.0.3, SVG Export Plug-In . SVG Version: 6.00 Build 0)  -->
<!DOCTYPE svg PUBLIC "-//W3C//DTD SVG 1.1//EN" "http://www.w3.org/Graphics/SVG/1.1/DTD/svg11.dtd">
<svg version="1.1" id="Capa_1" xmlns="http://www.w3.org/2000/svg" xmlns:xlink="http://www.w3.org/1999/xlink" x="0px" y="0px"
	 width="2016px" height="2016px" viewBox="0 0 2016 2016" enable-background="new 0 0 2016 2016" xml:space="preserve">
<g>
	
		<linearGradient id="SVGID_1_" gradientUnits="userSpaceOnUse" x1="-803.313" y1="842.7803" x2="-802.6766" y2="841.7202" gradientTransform="matrix(-357.5808 -12.487 -10.8418 310.4694 -277406.625 -270912.25)">
		<stop  offset="0" style="stop-color:#6F00FF"/>
		<stop  offset="1" style="stop-color:#FF00B9"/>
	</linearGradient>
	<path fill="url(#SVGID_1_)" d="M370.657,987.295c126.649,39.048,268.066,29.372,394.238-38.285
		c126.17-67.656,213.208-180.481,251.929-308.204c38.718-127.723,29.123-270.342-37.962-397.584
		c-18.598-35.274-49.604-59.603-84.716-70.426c-35.102-10.828-74.303-8.142-109.277,10.608
		c-34.973,18.758-59.105,50.031-69.834,85.436c-10.733,35.406-8.077,74.939,10.522,110.212
		c29.89,56.701,34.169,120.251,16.917,177.166c-17.255,56.916-56.038,107.187-112.258,137.338
		c-56.22,30.147-119.239,34.459-175.675,17.058c-56.436-17.4-106.289-56.515-136.182-113.211
		c-18.6-35.278-49.611-59.605-84.719-70.433c-35.102-10.826-74.304-8.142-109.28,10.614c-34.979,18.756-59.103,50.031-69.836,85.433
		c-10.733,35.404-8.073,74.939,10.524,110.213C132.139,860.473,244.012,948.247,370.657,987.295L370.657,987.295z"/>
	
		<linearGradient id="SVGID_2_" gradientUnits="userSpaceOnUse" x1="-802.5938" y1="842.7231" x2="-803.7191" y2="841.3333" gradientTransform="matrix(-357.5808 -12.487 -10.8418 310.4694 -277406.625 -270912.25)">
		<stop  offset="0" style="stop-color:#000000;stop-opacity:0.4"/>
		<stop  offset="0.288" style="stop-color:#000000;stop-opacity:0.2"/>
		<stop  offset="0.6283" style="stop-color:#000000;stop-opacity:0.1"/>
		<stop  offset="1" style="stop-color:#000000;stop-opacity:0"/>
	</linearGradient>
	<path fill="url(#SVGID_2_)" d="M370.244,986.636c126.649,39.049,268.066,29.372,394.237-38.285
		c126.171-67.655,213.209-180.48,251.929-308.203c38.719-127.723,29.123-270.343-37.962-397.585
		c-18.598-35.274-49.604-59.603-84.715-70.426c-35.103-10.828-74.304-8.142-109.277,10.608
		c-34.973,18.758-59.105,50.031-69.834,85.436c-10.733,35.406-8.078,74.939,10.521,110.212
		c29.891,56.701,34.17,120.251,16.917,177.166c-17.255,56.916-56.038,107.186-112.259,137.338
		c-56.22,30.146-119.239,34.459-175.674,17.058c-56.436-17.399-106.289-56.515-136.182-113.212
		c-18.6-35.277-49.611-59.605-84.719-70.432c-35.102-10.826-74.304-8.142-109.28,10.614c-34.979,18.756-59.103,50.031-69.836,85.433
		c-10.733,35.404-8.073,74.939,10.524,110.213C131.725,859.814,243.598,947.588,370.244,986.636L370.244,986.636z"/>
	
		<radialGradient id="SVGID_3_" cx="874.2827" cy="325.585" r="103.41" gradientTransform="matrix(1.012 -0.2117 0.3979 1.9019 -136.3177 -78.5225)" gradientUnits="userSpaceOnUse">
		<stop  offset="0" style="stop-color:#FFFFFF;stop-opacity:0.6"/>
		<stop  offset="1" style="stop-color:#FFFFFF;stop-opacity:0"/>
	</radialGradient>
	<path fill="url(#SVGID_3_)" d="M988.293,332.517c21.43,102.413-10.586,195.768-71.506,208.514
		c-60.92,12.746-127.675-59.943-149.104-162.357c-21.426-102.413,10.588-195.768,71.508-208.514S966.866,230.104,988.293,332.517z"
		/>
</g>
<g>
	
		<linearGradient id="SVGID_4_" gradientUnits="userSpaceOnUse" x1="-803.2998" y1="842.4761" x2="-802.6994" y2="841.476" gradientTransform="matrix(-174.4974 -312.3629 -271.209 151.5074 89739.0313 -377781.5938)">
		<stop  offset="0" style="stop-color:#6F00FF"/>
		<stop  offset="1" style="stop-color:#FF00B9"/>
	</linearGradient>
	<path fill="url(#SVGID_4_)" d="M1091.761,613.531c30.364,121.302,107.273,230.714,223.529,299.493
		c116.254,68.779,249.847,83.901,371.854,52.748c122.007-31.156,232.432-108.586,302.353-224.904
		c19.385-32.246,23.87-69.159,15.45-102.787c-8.411-33.623-29.732-63.951-61.955-83.018c-32.229-19.062-69.26-23.26-103.08-14.62
		c-33.82,8.637-64.432,30.096-83.813,62.344c-31.16,51.829-80.364,86.334-134.73,100.219
		c-54.369,13.881-113.893,7.142-165.698-23.503c-51.803-30.646-86.074-79.404-99.605-133.458
		c-13.531-54.051-6.318-113.401,24.836-165.232c19.387-32.25,23.87-69.167,15.453-102.792
		c-8.412-33.623-29.732-63.952-61.962-83.018c-32.229-19.066-69.259-23.257-103.077-14.623c-33.82,8.636-64.43,30.101-83.814,62.345
		C1077.582,359.05,1061.397,492.233,1091.761,613.531L1091.761,613.531z"/>
	
		<linearGradient id="SVGID_5_" gradientUnits="userSpaceOnUse" x1="-806.2949" y1="841.5581" x2="-805.7178" y2="840.3951" gradientTransform="matrix(-169.2818 -293.4297 -251.7496 144.9447 76782.375 -357808.3125)">
		<stop  offset="0" style="stop-color:#000000;stop-opacity:0.4"/>
		<stop  offset="0.288" style="stop-color:#000000;stop-opacity:0.2"/>
		<stop  offset="0.6283" style="stop-color:#000000;stop-opacity:0.1"/>
		<stop  offset="1" style="stop-color:#000000;stop-opacity:0"/>
	</linearGradient>
	<path fill="url(#SVGID_5_)" d="M1096.434,616.144c32.483,121.065,111.027,229.878,227.93,297.749
		c116.903,67.873,250.03,81.951,370.765,49.847c120.734-32.108,229.075-110.401,296.407-227.265
		c18.666-32.398,22.43-69.345,13.422-102.907c-9.001-33.556-30.773-63.717-63.176-82.534
		c-32.408-18.81-69.313-22.719-102.777-13.815c-33.468,8.901-63.503,30.599-82.167,62.997
		c-30.006,52.073-78.278,86.963-132.08,101.271c-53.802,14.307-113.12,8.031-165.215-22.209
		c-52.089-30.242-87.091-78.732-101.565-132.679c-14.478-53.947-8.425-113.354,21.576-165.426
		c18.667-32.4,22.429-69.352,13.425-102.914c-9.001-33.556-30.774-63.719-63.183-82.533
		c-32.408-18.816-69.311-22.717-102.775-13.819c-33.468,8.9-63.5,30.603-82.166,63
		C1077.524,361.773,1063.947,495.083,1096.434,616.144L1096.434,616.144z"/>
	
		<radialGradient id="SVGID_6_" cx="1276.9619" cy="351.1367" r="103.4102" gradientTransform="matrix(1.012 -0.2117 0.2844 1.3595 -98.1994 103.6579)" gradientUnits="userSpaceOnUse">
		<stop  offset="0" style="stop-color:#FFFFFF;stop-opacity:0.6"/>
		<stop  offset="1" style="stop-color:#FFFFFF;stop-opacity:0"/>
	</radialGradient>
	<path fill="url(#SVGID_6_)" d="M1404.23,287.589c15.318,73.208-21.651,142.887-82.57,155.634
		c-60.92,12.745-122.722-36.269-138.039-109.477c-15.316-73.208,21.651-142.887,82.571-155.633S1388.914,214.382,1404.23,287.589z"
		/>
	
		<radialGradient id="SVGID_7_" cx="1776.1533" cy="532.0996" r="103.41" gradientTransform="matrix(1.012 -0.2117 0.2817 1.3465 -52.0177 324.3866)" gradientUnits="userSpaceOnUse">
		<stop  offset="0" style="stop-color:#FFFFFF;stop-opacity:0.6"/>
		<stop  offset="1" style="stop-color:#FFFFFF;stop-opacity:0"/>
	</radialGradient>
	<path fill="url(#SVGID_7_)" d="M2005.604,641.723c15.172,72.507-21.917,141.618-82.836,154.364
		c-60.92,12.746-122.603-35.7-137.773-108.208c-15.169-72.507,21.917-141.618,82.837-154.364S1990.436,569.216,2005.604,641.723z"/>
</g>
<g>
	
		<linearGradient id="SVGID_8_" gradientUnits="userSpaceOnUse" x1="-803.8745" y1="842.917" x2="-802.9308" y2="841.3449" gradientTransform="matrix(313.4972 172.4514 149.7308 -272.1938 126812.4531 369270.2188)">
		<stop  offset="0" style="stop-color:#6F00FF"/>
		<stop  offset="1" style="stop-color:#FF00B9"/>
	</linearGradient>
	<path fill="url(#SVGID_8_)" d="M1595.59,1148.797c-141.497-136.402-335.134-218.196-547.376-213.058
		c-212.24,5.135-402.907,96.234-539.594,239.366c-136.683,143.139-219.392,338.31-215.727,551.586
		c1.017,59.126,25.779,112.065,65.007,149.879c39.213,37.81,92.892,60.479,151.721,59.062
		c58.834-1.431,111.693-26.675,149.576-66.356c37.89-39.678,60.821-93.776,59.802-152.899
		c-1.627-95.036,35.221-182.007,96.128-245.791c60.912-63.78,145.868-104.368,240.443-106.664
		c94.574-2.291,180.862,34.159,243.913,94.942c63.051,60.779,102.861,145.896,104.496,240.933
		c1.017,59.13,25.788,112.072,65.01,149.886c39.212,37.813,92.89,60.483,151.728,59.059c58.839-1.425,111.688-26.679,149.575-66.351
		c37.891-39.678,60.816-93.779,59.8-152.906C1826.417,1476.203,1737.076,1285.195,1595.59,1148.797L1595.59,1148.797z"/>
	
		<linearGradient id="SVGID_9_" gradientUnits="userSpaceOnUse" x1="-804.5527" y1="840.9478" x2="-804.8565" y2="843.0115" gradientTransform="matrix(333.1662 188.7037 166.3335 -294.4971 129179.3359 401284.75)">
		<stop  offset="0.2827" style="stop-color:#000000;stop-opacity:0.4"/>
		<stop  offset="0.5288" style="stop-color:#000000;stop-opacity:0.2"/>
		<stop  offset="0.7435" style="stop-color:#000000;stop-opacity:0.1"/>
		<stop  offset="1" style="stop-color:#000000;stop-opacity:0"/>
	</linearGradient>
	<path fill="url(#SVGID_9_)" d="M1603.295,1148.205c-138.274-137.834-329.48-221.01-540.848-216.866
		c-211.366,4.143-402.875,94.823-541.632,238.083c-138.756,143.265-224.761,339.11-225.132,553.579
		c-0.102,59.458,23.548,112.803,61.885,151.013c38.319,38.211,91.324,61.261,149.912,60.117
		c58.591-1.154,111.685-26.281,150.141-65.998c38.466-39.715,62.312-93.997,62.412-153.454
		c0.169-95.567,38.488-182.836,100.316-246.679c61.835-63.839,147.168-104.241,241.354-106.097
		c94.183-1.845,179.389,35.22,241.006,96.645c61.611,61.418,99.643,147.196,99.478,242.755
		c-0.103,59.464,23.556,112.816,61.884,151.028c38.322,38.206,91.327,61.262,149.917,60.113
		c58.6-1.149,111.685-26.284,150.146-65.998c38.461-39.712,62.303-94.001,62.406-153.454
		C1826.9,1478.521,1741.565,1286.038,1603.295,1148.205L1603.295,1148.205z"/>
	
		<radialGradient id="SVGID_10_" cx="1028.4805" cy="731.8359" r="103.4105" gradientTransform="matrix(0.6464 -0.9885 3.0602 2.0012 -1514.6641 707.1965)" gradientUnits="userSpaceOnUse">
		<stop  offset="0" style="stop-color:#FFFFFF;stop-opacity:0.6"/>
		<stop  offset="1" style="stop-color:#FFFFFF;stop-opacity:0"/>
	</radialGradient>
	<path fill="url(#SVGID_10_)" d="M1460.151,1047.396c164.785,107.759,266.822,243.354,227.91,302.859
		c-38.915,59.503-204.042,20.386-368.828-87.376c-164.782-107.762-266.82-243.354-227.907-302.859
		S1295.368,939.636,1460.151,1047.396z"/>
</g>
<g>
	
		<linearGradient id="SVGID_11_" gradientUnits="userSpaceOnUse" x1="-801.1069" y1="844.7578" x2="-800.9137" y2="844.4359" gradientTransform="matrix(-174.4974 -312.3629 -271.209 151.5074 89739.0313 -377781.5938)">
		<stop  offset="0" style="stop-color:#6F00FF"/>
		<stop  offset="1" style="stop-color:#FF00B9"/>
	</linearGradient>
	<path fill="url(#SVGID_11_)" d="M316.979,387.811c9.771,39.033,34.519,74.24,71.928,96.372
		c37.409,22.133,80.397,26.998,119.657,16.974c39.26-10.025,74.793-34.941,97.292-72.37c6.238-10.377,7.682-22.255,4.972-33.075
		c-2.706-10.819-9.567-20.579-19.937-26.714c-10.371-6.134-22.286-7.484-33.169-4.705s-20.733,9.686-26.97,20.062
		c-10.027,16.678-25.86,27.781-43.354,32.249c-17.495,4.467-36.648,2.298-53.319-7.563c-16.669-9.862-27.697-25.552-32.051-42.945
		c-4.354-17.393-2.033-36.49,7.991-53.169c6.238-10.377,7.681-22.257,4.973-33.077c-2.707-10.819-9.567-20.579-19.938-26.714
		c-10.37-6.135-22.286-7.484-33.168-4.706c-10.883,2.779-20.732,9.686-26.971,20.062
		C312.416,305.923,307.208,348.779,316.979,387.811L316.979,387.811z"/>
	
		<linearGradient id="SVGID_12_" gradientUnits="userSpaceOnUse" x1="-803.9995" y1="843.9536" x2="-803.8138" y2="843.5793" gradientTransform="matrix(-169.2818 -293.4297 -251.7496 144.9447 76782.375 -357808.3125)">
		<stop  offset="0" style="stop-color:#000000;stop-opacity:0.4"/>
		<stop  offset="0.288" style="stop-color:#000000;stop-opacity:0.2"/>
		<stop  offset="0.6283" style="stop-color:#000000;stop-opacity:0.1"/>
		<stop  offset="1" style="stop-color:#000000;stop-opacity:0"/>
	</linearGradient>
	<path fill="url(#SVGID_12_)" d="M318.482,388.652c10.452,38.957,35.727,73.971,73.344,95.811
		c37.618,21.841,80.456,26.371,119.307,16.04c38.85-10.332,73.713-35.525,95.379-73.13c6.007-10.426,7.218-22.314,4.319-33.114
		c-2.896-10.798-9.903-20.503-20.329-26.558c-10.429-6.054-22.304-7.312-33.072-4.446c-10.77,2.864-20.435,9.847-26.44,20.271
		c-9.655,16.756-25.188,27.983-42.501,32.588c-17.313,4.604-36.4,2.584-53.164-7.147c-16.761-9.73-28.024-25.334-32.682-42.693
		c-4.658-17.359-2.711-36.476,6.942-53.232c6.007-10.426,7.218-22.315,4.32-33.116c-2.896-10.797-9.902-20.503-20.331-26.558
		c-10.429-6.055-22.303-7.31-33.071-4.447c-10.77,2.864-20.434,9.848-26.44,20.272C312.397,306.799,308.028,349.696,318.482,388.652
		L318.482,388.652z"/>
	
		<radialGradient id="SVGID_13_" cx="417.6689" cy="202.3711" r="33.2756" gradientTransform="matrix(1.012 -0.2117 0.2844 1.3595 -98.1994 103.6579)" gradientUnits="userSpaceOnUse">
		<stop  offset="0" style="stop-color:#FFFFFF;stop-opacity:0.6"/>
		<stop  offset="1" style="stop-color:#FFFFFF;stop-opacity:0"/>
	</radialGradient>
	<path fill="url(#SVGID_13_)" d="M417.526,282.928c4.929,23.558-6.967,45.979-26.57,50.08c-19.603,4.102-39.489-11.67-44.419-35.228
		c-4.928-23.557,6.968-45.979,26.57-50.08C392.711,243.599,412.598,259.371,417.526,282.928z"/>
	
		<radialGradient id="SVGID_14_" cx="578.3013" cy="150.2886" r="33.2756" gradientTransform="matrix(1.012 -0.2117 0.2817 1.3465 -52.0177 324.3866)" gradientUnits="userSpaceOnUse">
		<stop  offset="0" style="stop-color:#FFFFFF;stop-opacity:0.6"/>
		<stop  offset="1" style="stop-color:#FFFFFF;stop-opacity:0"/>
	</radialGradient>
	<path fill="url(#SVGID_14_)" d="M611.039,396.882c4.882,23.332-7.053,45.57-26.655,49.672
		c-19.604,4.102-39.452-11.487-44.333-34.819c-4.882-23.331,7.052-45.57,26.655-49.672
		C586.309,357.961,606.158,373.551,611.039,396.882z"/>
</g>
<g>
	
		<linearGradient id="SVGID_15_" gradientUnits="userSpaceOnUse" x1="-803.4014" y1="846.5" x2="-803.1285" y2="846.0455" gradientTransform="matrix(313.4972 172.4514 149.7308 -272.1938 126812.4531 369270.2188)">
		<stop  offset="0" style="stop-color:#6F00FF"/>
		<stop  offset="1" style="stop-color:#FF00B9"/>
	</linearGradient>
	<path fill="url(#SVGID_15_)" d="M1864.695,294.324c-40.911-39.438-96.897-63.087-158.263-61.602
		c-61.364,1.485-116.492,27.824-156.012,69.208c-39.519,41.385-63.433,97.814-62.373,159.479
		c0.294,17.096,7.454,32.401,18.796,43.334c11.338,10.933,26.857,17.486,43.866,17.077c17.012-0.414,32.294-7.713,43.247-19.186
		c10.955-11.472,17.585-27.113,17.291-44.208c-0.471-27.478,10.183-52.623,27.793-71.065c17.611-18.44,42.175-30.176,69.519-30.839
		c27.345-0.663,52.293,9.876,70.522,27.45c18.229,17.573,29.74,42.183,30.213,69.66c0.294,17.097,7.456,32.403,18.796,43.337
		c11.338,10.933,26.857,17.487,43.869,17.075s32.292-7.714,43.246-19.184c10.955-11.472,17.584-27.114,17.29-44.21
		C1931.434,388.986,1905.603,333.76,1864.695,294.324L1864.695,294.324z"/>
	
		<linearGradient id="SVGID_16_" gradientUnits="userSpaceOnUse" x1="-804.687" y1="845.3491" x2="-804.7748" y2="845.9457" gradientTransform="matrix(333.1662 188.7037 166.3335 -294.4971 129179.3359 401284.75)">
		<stop  offset="0.2827" style="stop-color:#000000;stop-opacity:0.4"/>
		<stop  offset="0.5288" style="stop-color:#000000;stop-opacity:0.2"/>
		<stop  offset="0.7435" style="stop-color:#000000;stop-opacity:0.1"/>
		<stop  offset="1" style="stop-color:#000000;stop-opacity:0"/>
	</linearGradient>
	<path fill="url(#SVGID_16_)" d="M1866.923,294.152c-39.979-39.852-95.263-63.9-156.375-62.702
		c-61.111,1.198-116.482,27.416-156.602,68.836c-40.118,41.422-64.984,98.047-65.092,160.056
		c-0.029,17.191,6.809,32.614,17.893,43.662c11.079,11.048,26.404,17.712,43.344,17.382c16.94-0.334,32.291-7.599,43.41-19.082
		c11.121-11.483,18.017-27.178,18.045-44.368c0.049-27.631,11.128-52.863,29.004-71.322c17.879-18.457,42.551-30.139,69.783-30.676
		c27.23-0.533,51.866,10.184,69.682,27.943c17.813,17.758,28.809,42.559,28.762,70.188c-0.03,17.192,6.811,32.618,17.892,43.666
		c11.08,11.047,26.405,17.713,43.346,17.381c16.942-0.332,32.291-7.6,43.411-19.082c11.121-11.481,18.014-27.179,18.044-44.368
		C1931.573,389.656,1906.9,334.003,1866.923,294.152L1866.923,294.152z"/>
	
		<radialGradient id="SVGID_17_" cx="1829.7148" cy="698.3579" r="29.8991" gradientTransform="matrix(0.6464 -0.9885 3.0602 2.0012 -1514.6641 707.1965)" gradientUnits="userSpaceOnUse">
		<stop  offset="0" style="stop-color:#FFFFFF;stop-opacity:0.6"/>
		<stop  offset="1" style="stop-color:#FFFFFF;stop-opacity:0"/>
	</radialGradient>
	<path fill="url(#SVGID_17_)" d="M1825.536,265.005c47.644,31.156,77.146,70.361,65.895,87.565s-58.994,5.895-106.639-25.263
		c-47.643-31.157-77.145-70.361-65.895-87.565C1730.148,222.538,1777.893,233.849,1825.536,265.005z"/>
</g>
<g>
	
		<linearGradient id="SVGID_18_" gradientUnits="userSpaceOnUse" x1="-804.5859" y1="845.9419" x2="-804.3295" y2="845.5146" gradientTransform="matrix(-357.5808 -12.487 -10.8418 310.4694 -277406.625 -270912.25)">
		<stop  offset="0" style="stop-color:#6F00FF"/>
		<stop  offset="1" style="stop-color:#FF00B9"/>
	</linearGradient>
	<path fill="url(#SVGID_18_)" d="M991.371,1858.769c51.05,15.74,108.052,11.84,158.908-15.432
		c50.857-27.271,85.94-72.748,101.548-124.23c15.606-51.482,11.739-108.969-15.302-160.258
		c-7.497-14.219-19.994-24.024-34.147-28.387c-14.148-4.365-29.95-3.282-44.047,4.275c-14.097,7.561-23.824,20.166-28.148,34.438
		c-4.327,14.271-3.257,30.206,4.241,44.425c12.048,22.854,13.772,48.47,6.818,71.411c-6.955,22.941-22.588,43.205-45.249,55.358
		c-22.661,12.151-48.063,13.89-70.811,6.876s-42.843-22.78-54.893-45.634c-7.497-14.22-19.997-24.025-34.148-28.39
		c-14.148-4.363-29.95-3.282-44.048,4.278c-14.1,7.56-23.823,20.166-28.149,34.437c-4.327,14.271-3.254,30.206,4.242,44.424
		C895.229,1807.649,940.322,1843.029,991.371,1858.769L991.371,1858.769z"/>
	
		<linearGradient id="SVGID_19_" gradientUnits="userSpaceOnUse" x1="-804.2959" y1="845.9194" x2="-804.7495" y2="845.3592" gradientTransform="matrix(-357.5808 -12.487 -10.8418 310.4694 -277406.625 -270912.25)">
		<stop  offset="0" style="stop-color:#000000;stop-opacity:0.4"/>
		<stop  offset="0.288" style="stop-color:#000000;stop-opacity:0.2"/>
		<stop  offset="0.6283" style="stop-color:#000000;stop-opacity:0.1"/>
		<stop  offset="1" style="stop-color:#000000;stop-opacity:0"/>
	</linearGradient>
	<path fill="url(#SVGID_19_)" d="M991.204,1858.503c51.05,15.74,108.052,11.84,158.908-15.432
		c50.857-27.271,85.94-72.748,101.548-124.23c15.606-51.482,11.739-108.969-15.302-160.258
		c-7.497-14.219-19.994-24.024-34.147-28.387c-14.148-4.365-29.949-3.282-44.047,4.275c-14.097,7.562-23.824,20.167-28.148,34.438
		c-4.326,14.271-3.256,30.207,4.24,44.424c12.049,22.855,13.773,48.471,6.82,71.412c-6.956,22.941-22.589,43.205-45.25,55.358
		c-22.66,12.151-48.063,13.89-70.811,6.875c-22.748-7.013-42.843-22.779-54.892-45.633c-7.497-14.22-19.997-24.025-34.149-28.39
		c-14.148-4.363-29.95-3.281-44.048,4.278c-14.099,7.561-23.823,20.167-28.149,34.437c-4.326,14.271-3.254,30.207,4.242,44.425
		C895.063,1807.384,940.156,1842.764,991.204,1858.503L991.204,1858.503z"/>
	
		<radialGradient id="SVGID_20_" cx="927.9136" cy="988.0303" r="41.6819" gradientTransform="matrix(1.012 -0.2117 0.3979 1.9019 -136.3177 -78.5225)" gradientUnits="userSpaceOnUse">
		<stop  offset="0" style="stop-color:#FFFFFF;stop-opacity:0.6"/>
		<stop  offset="1" style="stop-color:#FFFFFF;stop-opacity:0"/>
	</radialGradient>
	<path fill="url(#SVGID_20_)" d="M1240.326,1594.842c8.639,41.28-4.267,78.909-28.822,84.047
		c-24.555,5.138-51.463-24.161-60.1-65.442s4.268-78.91,28.822-84.047C1204.782,1524.261,1231.69,1553.561,1240.326,1594.842z"/>
</g>
</svg>
