<?xml version="1.0" encoding="iso-8859-1"?>
<!-- Generator: Adobe Illustrator 16.0.3, SVG Export Plug-In . SVG Version: 6.00 Build 0)  -->
<!DOCTYPE svg PUBLIC "-//W3C//DTD SVG 1.1//EN" "http://www.w3.org/Graphics/SVG/1.1/DTD/svg11.dtd">
<svg version="1.1" id="Capa_1" xmlns="http://www.w3.org/2000/svg" xmlns:xlink="http://www.w3.org/1999/xlink" x="0px" y="0px"
	 width="1200px" height="800px" viewBox="0 0 1200 800" style="enable-background:new 0 0 1200 800;" xml:space="preserve">
<linearGradient id="SVGID_1_" gradientUnits="userSpaceOnUse" x1="-407.9214" y1="1406.3359" x2="-406.0331" y2="1408.8212" gradientTransform="matrix(-289.1667 0 0 -311.0677 -116990.8203 438313.875)">
	<stop  offset="0" style="stop-color:#420E80"/>
	<stop  offset="1" style="stop-color:#F23C9B"/>
</linearGradient>
<path style="fill:url(#SVGID_1_);" d="M774.028,732.852c22.68,25.405,53.426,39.135,84.798,40.796
	c31.372,1.657,63.375-8.755,88.564-31.633c25.196-22.87,38.808-53.881,40.453-85.516c1.646-31.64-8.679-63.914-31.361-89.319
	l-372.64-417.377c-22.685-25.403-53.433-39.127-84.802-40.786c-31.374-1.657-63.372,8.753-88.566,31.627
	c-25.193,22.88-38.803,53.885-40.445,85.522c-1.646,31.638,8.679,63.909,31.36,89.314L774.03,732.847L774.028,732.852z"/>
<linearGradient id="SVGID_2_" gradientUnits="userSpaceOnUse" x1="-407.5068" y1="1405.7744" x2="-405.6193" y2="1408.2588" gradientTransform="matrix(-283.6194 -56.3688 60.6381 -305.1002 -200145.4688 406815.4375)">
	<stop  offset="0" style="stop-color:#420E80"/>
	<stop  offset="1" style="stop-color:#F23C9B"/>
</linearGradient>
<path style="fill:url(#SVGID_2_);" d="M508.799,733.581c17.293,29.341,44.772,48.802,75.221,56.544
	c30.447,7.742,63.865,3.767,93.032-13.759c29.17-17.523,48.566-45.283,56.346-75.991c7.783-30.712,3.947-64.381-13.346-93.719
	L435.919,124.644c-17.296-29.337-44.778-48.792-75.224-56.534c-30.448-7.741-63.863-3.769-93.032,13.757
	c-29.169,17.529-48.563,45.286-56.34,75.997c-7.782,30.71-3.945,64.375,13.347,93.714l284.133,482.001L508.799,733.581z"/>
<linearGradient id="SVGID_3_" gradientUnits="userSpaceOnUse" x1="-407.8486" y1="1406.7607" x2="-405.9604" y2="1409.246" gradientTransform="matrix(-133.748 -256.3764 275.7939 -143.8779 -442045.25 98690.8594)">
	<stop  offset="0" style="stop-color:#420E80"/>
	<stop  offset="1" style="stop-color:#F23C9B"/>
</linearGradient>
<path style="fill:url(#SVGID_3_);" d="M492.884,628.314c-12.035,31.859-9.987,65.47,3.052,94.054
	c13.041,28.582,37.075,52.137,69.008,63.891c31.932,11.759,65.721,9.485,94.529-3.688c28.814-13.176,52.652-37.259,64.687-69.117
	l197.69-523.437c12.03-31.861,9.977-65.469-3.063-94.05c-13.042-28.583-37.072-52.137-69.005-63.894
	c-31.938-11.754-65.723-9.479-94.532,3.698c-28.812,13.174-52.647,37.255-64.682,69.114L492.89,628.314H492.884z"/>
<linearGradient id="SVGID_4_" gradientUnits="userSpaceOnUse" x1="-407.1563" y1="1407.1523" x2="-406.6592" y2="1407.9806" gradientTransform="matrix(-312.7914 -173.7282 150.8394 -271.581 -338989.2813 312015.25)">
	<stop  offset="0" style="stop-color:#F24B9A"/>
	<stop  offset="1" style="stop-color:#1C288F"/>
</linearGradient>
<path style="fill:url(#SVGID_4_);" d="M311.537,622.055c74.325,72.234,176.259,115.786,288.199,113.534
	c111.938-2.254,212.683-49.885,285.069-125.071c72.39-75.188,116.428-177.937,114.951-290.416
	c-0.407-31.182-13.355-59.155-33.962-79.18c-20.599-20.022-48.855-32.096-79.882-31.471c-31.03,0.626-58.956,13.827-79.022,34.67
	c-20.069,20.841-32.273,49.323-31.865,80.503c0.657,50.121-18.965,95.905-51.223,129.409
	c-32.257,33.504-77.149,54.729-127.027,55.734c-49.88,1.004-95.303-18.405-128.423-50.592
	c-33.118-32.189-53.929-77.162-54.586-127.283c-0.409-31.178-13.357-59.152-33.96-79.176c-20.6-20.024-48.857-32.096-79.887-31.47
	c-31.03,0.622-58.957,13.826-79.021,34.668c-20.065,20.841-32.271,49.323-31.864,80.505
	C190.51,448.901,237.214,549.82,311.537,622.055L311.537,622.055z"/>
</svg>
